<svg xmlns="http://www.w3.org/2000/svg" width="150" height="150" viewBox="0 0 150 150">
  <g id="Group_3" data-name="Group 3" transform="translate(-1233 -755)">
    <g id="Ellipse_1" data-name="Ellipse 1" transform="translate(1233 755)" fill="#0756fb" stroke="#fff" stroke-width="1">
      <circle cx="75" cy="75" r="75" stroke="none"/>
      <circle cx="75" cy="75" r="74.5" fill="none"/>
    </g>
    <path id="Path_9" data-name="Path 9" d="M19.44,0Q15.6,0,15.6-3.84V-42.32L7.44-38.88a3.432,3.432,0,0,1-3.04.16A3.823,3.823,0,0,1,2.56-41.2l-.8-2.24Q.64-46.96,4-48.4l14.72-6.56A13.4,13.4,0,0,1,24.48-56Q28-56,28-52.16V-3.84Q28,0,24.08,0Z" transform="translate(1292 858)" fill="#fff"/>
  </g>
</svg>
