<svg xmlns="http://www.w3.org/2000/svg" width="150" height="150" viewBox="0 0 150 150">
  <g id="Group_5" data-name="Group 5" transform="translate(-1233 -755)">
    <g id="Ellipse_1" data-name="Ellipse 1" transform="translate(1233 755)" fill="#0756fb" stroke="#fff" stroke-width="1">
      <circle cx="75" cy="75" r="75" stroke="none"/>
      <circle cx="75" cy="75" r="74.5" fill="none"/>
    </g>
    <path id="Path_10" data-name="Path 10" d="M8.32,0A3.833,3.833,0,0,1,4.16-3.52L4-4.56A5.181,5.181,0,0,1,5.84-9.52L25.2-27.04a33.078,33.078,0,0,0,5.6-6,10.414,10.414,0,0,0,1.92-6,6.816,6.816,0,0,0-2.48-5.56,9.62,9.62,0,0,0-6.32-2.04q-6.24,0-8.16,4.32a8.523,8.523,0,0,1-1.72,2.6,3.52,3.52,0,0,1-2.44.76H7.2a3.893,3.893,0,0,1-3-1.08,3.09,3.09,0,0,1-.6-2.92,16.833,16.833,0,0,1,6.32-9.96q5.04-3.96,14.24-3.96,9.28,0,14.92,4.92T44.72-38.8q0,9.76-10.4,18.64L22.24-9.92l.08.32q4.72-.48,11.6-.48h9.36q3.84,0,3.84,3.92v2.32Q47.12,0,43.28,0Z" transform="translate(1283 858)" fill="#fff"/>
  </g>
</svg>
