<svg xmlns="http://www.w3.org/2000/svg" width="150" height="150" viewBox="0 0 150 150">
  <g id="Group_4" data-name="Group 4" transform="translate(-1233 -755)">
    <g id="Ellipse_1" data-name="Ellipse 1" transform="translate(1233 755)" fill="#0756fb" stroke="#fff" stroke-width="1">
      <circle cx="75" cy="75" r="75" stroke="none"/>
      <circle cx="75" cy="75" r="74.5" fill="none"/>
    </g>
    <path id="Path_11" data-name="Path 11" d="M22.64.88Q11.92.88,4.56-3.92,1.76-5.84,4-8.8l1.92-2.48q1.84-2.48,4.8-.88a22.647,22.647,0,0,0,11.04,2.8q5.92,0,9.2-2.88a8.862,8.862,0,0,0,3.28-6.88,7.851,7.851,0,0,0-2.96-6.36,11.187,11.187,0,0,0-7.36-2.44,13.732,13.732,0,0,0-4.8.8q-3.04.88-4.64-1.36L13.6-29.6a3.3,3.3,0,0,1,.72-4.88L27.36-45.92H8.4q-3.52,0-3.52-3.52v-3.12Q4.88-56,8.4-56H41.04q3.44,0,3.44,3.44v1.2a5.455,5.455,0,0,1-2,4.24L28.64-35.2a14.518,14.518,0,0,1,3.28.32,17.754,17.754,0,0,1,10.44,5.12,14.908,14.908,0,0,1,4.2,10.96A17.982,17.982,0,0,1,40.24-4.68Q33.92.88,22.64.88Z" transform="translate(1283 858)" fill="#fff"/>
  </g>
</svg>
