<svg xmlns="http://www.w3.org/2000/svg" version="1.1" xmlns:xlink="http://www.w3.org/1999/xlink" xmlns:svgjs="http://svgjs.com/svgjs" width="512" height="512" x="0" y="0" viewBox="0 0 512 512" style="enable-background:new 0 0 512 512" xml:space="preserve"><g><path d="M512 284.057c0-66.018-53.708-119.726-119.726-119.726h-24.565v-25.803c18.241-3.516 32.065-19.591 32.065-38.842 0-21.816-17.749-39.564-39.565-39.564s-39.564 17.748-39.564 39.564c0 19.251 13.824 35.327 32.064 38.842v25.803H303.58V83.653c0-17.396-14.152-31.549-31.548-31.549h-.516v-.516c0-8.556-6.96-15.517-15.516-15.517h-80.161c-8.556 0-15.516 6.961-15.516 15.517v.516h-.516c-17.396 0-31.548 14.153-31.548 31.549v80.677h-8.533C53.708 164.331 0 218.04 0 284.057c0 52.157 33.528 96.624 80.161 112.999v63.356c0 8.556 6.96 15.516 15.516 15.516h16.032c8.556 0 15.516-6.96 15.516-15.516V444.38c0-4.705 3.828-8.532 8.533-8.532h240.483c4.705 0 8.533 3.828 8.533 8.532v16.032c0 8.556 6.96 15.516 15.516 15.516h16.032c8.556 0 15.516-6.96 15.516-15.516v-63.356C478.472 380.681 512 336.214 512 284.057zM335.645 99.686c0-13.545 11.02-24.564 24.564-24.564s24.565 11.02 24.565 24.564-11.02 24.564-24.565 24.564-24.564-11.019-24.564-24.564zm-63.613-32.581c9.125 0 16.548 7.424 16.548 16.549v80.677h-17.064v-16.548c0-8.556-6.96-15.516-15.516-15.516h-.516v-49.13H256c8.556 0 15.516-6.96 15.516-15.516v-.517h.516zm-96.709 97.226v-16.548c0-.285.231-.516.516-.516H256c.285 0 .516.231.516.516v16.548zm16.032-49.129h49.129v17.064h-49.129zm-16.032-63.613c0-.285.231-.517.516-.517H256c.285 0 .516.231.516.517v16.032a.517.517 0 0 1-.516.516h-32.064a7.5 7.5 0 0 0 0 15h16.548v17.064h-49.129V83.137h.516a7.5 7.5 0 0 0 0-15h-16.032a.517.517 0 0 1-.516-.516zm-32.065 32.064c0-9.125 7.423-16.549 16.548-16.549h.516v.517c0 8.556 6.96 15.516 15.516 15.516h.516v49.129h-.516c-8.556 0-15.516 6.96-15.516 15.516v16.548h-17.064zM15 284.057c0-55.224 42.967-100.597 97.226-104.455v208.909C57.967 384.653 15 339.28 15 284.057zm401.839 176.354a.516.516 0 0 1-.516.516h-16.032a.516.516 0 0 1-.516-.516v-16.032c0-12.976-10.557-23.532-23.533-23.532H135.758c-12.976 0-23.533 10.557-23.533 23.532v16.032a.516.516 0 0 1-.516.516H95.677a.516.516 0 0 1-.516-.516v-59.168a119.732 119.732 0 0 0 24.564 2.539h272.549c8.417 0 16.633-.878 24.564-2.539v59.168zm-17.065-71.9V235.96c0-4.143-3.358-7.5-7.5-7.5s-7.5 3.357-7.5 7.5v152.822H127.226V179.331h257.549v24.565a7.5 7.5 0 0 0 15 0v-24.294C454.033 183.46 497 228.833 497 284.057c0 55.223-42.967 100.596-97.226 104.454z" fill="#ffffff" data-original="#000000" opacity="1"></path><path d="M367.709 99.686V91.67a7.5 7.5 0 0 0-15 0v8.016a7.5 7.5 0 0 0 15 0z" fill="#ffffff" data-original="#000000" opacity="1"></path></g></svg>