<svg xmlns="http://www.w3.org/2000/svg" version="1.1" xmlns:xlink="http://www.w3.org/1999/xlink" xmlns:svgjs="http://svgjs.com/svgjs" width="512" height="512" x="0" y="0" viewBox="0 0 512 512" style="enable-background:new 0 0 512 512" xml:space="preserve"><g><path d="m473.438 209.406 28.299 14.149a5 5 0 0 1 2.764 4.472v100.629a5 5 0 0 1-5 5h-26.062M158.983 54.094h299.455c8.284 0 15 6.716 15 15v280.625c0 8.284-6.716 15-15 15H22.5c-8.284 0-15-6.716-15-15V69.094c0-8.284 6.716-15 15-15h101.483" style="stroke-width:15;stroke-linecap:round;stroke-linejoin:round;stroke-miterlimit:10;" fill="none" stroke="#ffffff" stroke-width="15" stroke-linecap="round" stroke-linejoin="round" stroke-miterlimit="10" data-original="#000000"></path><path d="M437.375 131.75h-114.25a5 5 0 0 1-5-5V90.156a5 5 0 0 1 5-5h114.25a5 5 0 0 1 5 5v36.594a5 5 0 0 1-5 5zM369.498 209.406h-46.373a5 5 0 0 1-5-5v-36.594a5 5 0 0 1 5-5h114.25a5 5 0 0 1 5 5v36.594a5 5 0 0 1-5 5h-32.877M437.375 333.656h-114.25a5 5 0 0 1-5-5v-83.188a5 5 0 0 1 5-5h114.25a5 5 0 0 1 5 5v83.188a5 5 0 0 1-5 5zM473.438 131.75l31.062 15.531M473.438 100.688l31.062 15.531M111.219 457.906H28.031a5 5 0 0 1-5-5v-11.062c0-8.284 6.716-15 15-15h63.188c8.284 0 15 6.716 15 15v11.062a5 5 0 0 1-5 5zM369.719 457.906h83.188a5 5 0 0 0 5-5v-11.062c0-8.284-6.716-15-15-15h-63.188c-8.284 0-15 6.716-15 15v11.062a5 5 0 0 0 5 5zM85.156 364.719v62.125M54.094 426.844v-62.125M395.781 364.719v62.125M426.844 426.844v-62.125M50.948 263.549c-7.935-16.365-12.385-34.734-12.385-54.142 0-68.621 55.629-124.25 124.25-124.25s124.25 55.629 124.25 124.25-55.629 124.25-124.25 124.25c-37.357 0-70.863-16.486-93.64-42.58" style="stroke-width:15;stroke-linecap:round;stroke-linejoin:round;stroke-miterlimit:10;" fill="none" stroke="#ffffff" stroke-width="15" stroke-linecap="round" stroke-linejoin="round" stroke-miterlimit="10" data-original="#000000"></path><circle cx="162.812" cy="209.406" r="62.125" style="stroke-width:15;stroke-linecap:round;stroke-linejoin:round;stroke-miterlimit:10;" fill="none" stroke="#ffffff" stroke-width="15" stroke-linecap="round" stroke-linejoin="round" stroke-miterlimit="10" data-original="#000000"></circle><circle cx="162.812" cy="209.406" r="31.062" style="stroke-width:15;stroke-linecap:round;stroke-linejoin:round;stroke-miterlimit:10;" fill="none" stroke="#ffffff" stroke-width="15" stroke-linecap="round" stroke-linejoin="round" stroke-miterlimit="10" data-original="#000000"></circle><path d="M111.319 96.295a149.964 149.964 0 0 1 48.271 82.208M39.109 197.445a149.956 149.956 0 0 1 95.33-.699M90.602 310.556a149.96 149.96 0 0 1 47.059-82.908M214.306 322.517a149.964 149.964 0 0 1-48.271-82.208M286.516 221.367a149.956 149.956 0 0 1-95.33.699M235.023 108.257a149.96 149.96 0 0 1-47.059 82.908" style="stroke-width:15;stroke-linecap:round;stroke-linejoin:round;stroke-miterlimit:10;" fill="none" stroke="#ffffff" stroke-width="15" stroke-linecap="round" stroke-linejoin="round" stroke-miterlimit="10" data-original="#000000"></path><circle cx="162.812" cy="209.406" r="93.188" style="stroke-width:15;stroke-linecap:round;stroke-linejoin:round;stroke-miterlimit:10;" fill="none" stroke="#ffffff" stroke-width="15" stroke-linecap="round" stroke-linejoin="round" stroke-miterlimit="10" data-original="#000000"></circle></g></svg>