<svg xmlns="http://www.w3.org/2000/svg" width="131" height="130.991" viewBox="0 0 131 130.991">
  <g id="air" transform="translate(-1 -1)">
    <path id="Path_1" data-name="Path 1" d="M50.9,1c9.919,0,18.714,5.49,18.714,15.6.674,6.918-6.444,20.735-6.238,28.084a31.627,31.627,0,0,0,.7,6.407A16.359,16.359,0,0,1,67.4,50.93c6.731-20.536,16.774-31.215,30.286-31.215C114.4,19.714,132,36.139,132,50.9c0,9.919-5.49,18.714-15.6,18.714-7.448.561-20.611-6.444-28.084-6.238a31.629,31.629,0,0,0-6.407.7,16.839,16.839,0,0,1,.156,3.325c20.53,6.718,31.215,16.762,31.215,30.28,0,16.712-16.425,34.31-31.19,34.31-9.919,0-18.714-5.5-18.714-15.6-.487-7.841,6.444-20.5,6.238-28.084a31.627,31.627,0,0,0-.7-6.407,16.419,16.419,0,0,1-3.325.156c-6.718,20.536-16.762,31.215-30.28,31.215C18.594,113.286,1,96.861,1,82.1c0-9.919,5.5-18.714,15.6-18.714,7.841-.487,20.5,6.444,28.084,6.238a31.628,31.628,0,0,0,6.407-.7,16.4,16.4,0,0,1-.156-3.325C30.4,58.871,19.71,48.827,19.71,35.31,19.71,18.591,36.135,1,50.9,1M80.457,73.443A15.664,15.664,0,0,1,74.805,79.7a38.07,38.07,0,0,1,1.048,8.621c.674,6.924-6.444,20.735-6.238,28.084,0,5.883,5.564,9.357,12.476,9.357,11.229,0,24.952-14.709,24.952-28.071,0-10.168-8.59-18.3-26.587-24.247M16.591,69.619c-5.883,0-9.357,5.564-9.357,12.476,0,11.222,14.709,24.952,28.071,24.952,10.168,0,18.3-8.59,24.247-26.587A15.576,15.576,0,0,1,53.29,74.8a37.645,37.645,0,0,1-8.6,1.054c-6.924.674-20.742-6.444-28.09-6.238M66.5,57.143A9.36,9.36,0,1,0,75.863,66.5,9.36,9.36,0,0,0,66.5,57.143M97.7,25.952c-10.168,0-18.309,8.59-24.254,26.574a15.735,15.735,0,0,1,6.263,5.67,37.625,37.625,0,0,1,8.615-1.06c6.924-.667,20.735,6.45,28.084,6.238,5.876,0,9.357-5.558,9.357-12.476,0-11.216-14.709-24.952-28.071-24.952M50.907,7.232c-11.222,0-24.952,14.716-24.952,28.071,0,10.168,8.59,18.309,26.581,24.254A15.634,15.634,0,0,1,58.2,53.294a37.647,37.647,0,0,1-1.054-8.615c-.674-6.924,6.444-20.735,6.238-28.084,0-5.883-5.564-9.357-12.476-9.357" fill="#0756fb" fill-rule="evenodd"/>
  </g>
</svg>
