<svg xmlns="http://www.w3.org/2000/svg" width="288.603" height="233.45" viewBox="0 0 288.603 233.45">
  <g id="arbejdsplads" transform="translate(-55.697 -33.98)">
    <path id="Path_12" data-name="Path 12" d="M140.84,41.84c-40.9,10.1-73.23,42-82.71,83.08-7.05,30.55-.86,62.05,46.59,73.5,102.59,24.77,213.4,16.6,226.67-32.94S319.61,41.05,261,35.79C227.55,32.8,177.83,32.7,140.84,41.84Z" fill="#e6e6e6" opacity="0.3"/>
    <path id="Path_13" data-name="Path 13" d="M190.78,174.74s-7.56,3.83-4.67,8.26,9.19-4.13,9.19-4.13Z" fill="#f4a28c"/>
    <path id="Path_14" data-name="Path 14" d="M173.5,99a4.51,4.51,0,0,1,5.5-5.56A66.08,66.08,0,0,1,214.79,118c1.57,2.13,3.07,4.21,4.48,6.22a31.35,31.35,0,0,1-6.89,43.14l-16.29,12.19-6.44-5.89,13.07-12.49a17.1,17.1,0,0,0-.06-24.78L177,112.12Z" fill="#0756fb"/>
    <path id="Path_15" data-name="Path 15" d="M173.5,99a4.51,4.51,0,0,1,5.5-5.56A66.08,66.08,0,0,1,214.79,118c1.57,2.13,3.07,4.21,4.48,6.22a31.35,31.35,0,0,1-6.89,43.14l-16.29,12.19-6.44-5.89,13.07-12.49a17.1,17.1,0,0,0-.06-24.78L177,112.12Z" fill="#fff" opacity="0.46"/>
    <ellipse id="Ellipse_2" data-name="Ellipse 2" cx="137.87" cy="13.24" rx="137.87" ry="13.24" transform="translate(68.56 240.95)" fill="#e6e6e6" opacity="0.45"/>
    <path id="Path_16" data-name="Path 16" d="M158.4,76.91a31.551,31.551,0,0,1,2.84,8,2.55,2.55,0,0,1-2.18,2.9,5.68,5.68,0,0,1-5.72-2.25L150.23,82a4.58,4.58,0,0,1,0-5.3C152.11,73.7,157.11,74.08,158.4,76.91Z" fill="#f4a28c"/>
    <path id="Path_17" data-name="Path 17" d="M151.8,80.69l-.74,16.7,9.23-.25-3.17-12.05Z" fill="#f4a28c"/>
    <path id="Path_18" data-name="Path 18" d="M155.05,83s-.78-1.8-2.09-1.1-.19,3.31,1.77,2.79Z" fill="#f4a28c"/>
    <path id="Path_19" data-name="Path 19" d="M159.73,79.85l2.07,1.27a.82.82,0,0,1,0,1.38l-1.66,1.08Z" fill="#f4a28c"/>
    <path id="Path_20" data-name="Path 20" d="M157.87,87.85a6.06,6.06,0,0,1-3.17-1.43s.48,3,4.16,5.64Z" fill="#ce8172" opacity="0.31"/>
    <path id="Path_21" data-name="Path 21" d="M151.4,85.19l-3.58-6.08s-3.31-1-1.87-3.63,3.59-1.44,4.41-4.86a3,3,0,0,1,5.49-1.32c1.21,1.77,5.51-.14,5.43,3s-4.09,4.42-5.23,4.78C151.06,78.64,157.29,84.1,151.4,85.19Z" fill="#24285b"/>
    <path id="Path_22" data-name="Path 22" d="M178.58,245.48s1.36,3.77,4.76,4.06,4.3,3.61,1.24,4.48-11-3.07-11-3.07l.22-4.91Z" fill="#0756fb"/>
    <path id="Path_23" data-name="Path 23" d="M132.48,245.48s-1.36,3.77-4.76,4.06-4.3,3.61-1.24,4.48,11-3.07,11-3.07l-.22-4.91Z" fill="#0756fb"/>
    <path id="Path_24" data-name="Path 24" d="M173,92.5a117.92,117.92,0,0,0-44.07,9.43,17,17,0,0,0-8.58,23.25l24,47.83,44.46-2.63s8.09-26.88,6.47-57.29A21.86,21.86,0,0,0,173,92.5Z" fill="#0756fb"/>
    <path id="Path_25" data-name="Path 25" d="M144.34,173l-13.28,73.15h6.64l16.65-39.71a68.93,68.93,0,0,1,29.56-33.3l4.89-2.77Z" fill="#24285b"/>
    <path id="Path_26" data-name="Path 26" d="M188.8,170.38l-6.86,75.78h-8.83s2.06-57-13.87-69.16Z" fill="#24285b"/>
    <path id="Path_27" data-name="Path 27" d="M141.4,105.44s11.35,7.3,7.78,29.75a45,45,0,0,0,10.75,36.9l-15.59.92s-10-20.83-12.66-25.25S141.4,105.44,141.4,105.44Z" opacity="0.08"/>
    <path id="Path_28" data-name="Path 28" d="M143.7,112.24c.05-10.17-12.66-14.86-19.46-7.3a42.1,42.1,0,0,0-10.82,23.23c-2.71,22.33.27,71.08.27,71.08h8.08s5.46-48.72,17.38-71.08C142.47,121.94,143.68,116.64,143.7,112.24Z" fill="#0756fb"/>
    <path id="Path_29" data-name="Path 29" d="M143.7,112.24c.05-10.17-12.66-14.86-19.46-7.3a42.1,42.1,0,0,0-10.82,23.23c-2.71,22.33.27,71.08.27,71.08h8.08s5.46-48.72,17.38-71.08C142.47,121.94,143.68,116.64,143.7,112.24Z" fill="#fff" opacity="0.46"/>
    <path id="Path_30" data-name="Path 30" d="M110.81,213.33v-3.45a4.72,4.72,0,0,1,4.72-4.72H120a4.72,4.72,0,0,1,4.72,4.72v3.7" fill="none" stroke="#24285b" stroke-miterlimit="10" stroke-width="2"/>
    <rect id="Rectangle_1" data-name="Rectangle 1" width="54.56" height="11.89" transform="translate(91 222.03)" fill="#ffd200"/>
    <rect id="Rectangle_2" data-name="Rectangle 2" width="54.56" height="11.89" transform="translate(91 222.03)" opacity="0.08"/>
    <path id="Path_31" data-name="Path 31" d="M138.9,211.97l6.66,10.06H91l6.67-10.06Z" fill="#ffd200"/>
    <path id="Path_32" data-name="Path 32" d="M115.09,199.25s-2.42,8.05.77,8.05,7,1.53,4.59-8.05Z" fill="#f4a28c"/>
    <rect id="Rectangle_3" data-name="Rectangle 3" width="3.76" height="51.46" transform="translate(330.887 200.233) rotate(15.67)" fill="#e6e6e6"/>
    <path id="Path_33" data-name="Path 33" d="M336.26,203.17a3.611,3.611,0,0,1-.85-.11l-6.07-1.71a3.14,3.14,0,0,1-2.17-3.86l1.23-4.37a3.13,3.13,0,0,1,3.86-2.17l6.07,1.7a3.14,3.14,0,0,1,1.89,1.49,3.09,3.09,0,0,1,.28,2.38l-1.22,4.37a3.14,3.14,0,0,1-3.02,2.28Zm-.32-2a1.18,1.18,0,0,0,1.46-.82l1.23-4.37a1.19,1.19,0,0,0-.82-1.46l-6.08-1.7a1.17,1.17,0,0,0-1.45.82L329.05,198a1.17,1.17,0,0,0,.82,1.45Z" fill="#c9c9c9"/>
    <path id="Path_34" data-name="Path 34" d="M327.55,253.23l3-10.78-18-5.06-3.16,11.27a9.331,9.331,0,0,0-.12,4.57Z" fill="#c9c9c9"/>
    <rect id="Rectangle_4" data-name="Rectangle 4" width="8.23" height="78.23" transform="translate(229.36 174.47)" fill="#0756fb"/>
    <rect id="Rectangle_5" data-name="Rectangle 5" width="8.23" height="78.23" transform="translate(273.83 174.47)" fill="#0756fb"/>
    <rect id="Rectangle_6" data-name="Rectangle 6" width="8.23" height="78.23" transform="translate(229.36 174.47)" opacity="0.08"/>
    <rect id="Rectangle_7" data-name="Rectangle 7" width="8.23" height="78.23" transform="translate(273.83 174.47)" opacity="0.08"/>
    <rect id="Rectangle_8" data-name="Rectangle 8" width="72.21" height="25.47" transform="translate(219.62 184.18)" fill="#0756fb"/>
    <path id="Path_35" data-name="Path 35" d="M223.28,184.18l8.63,25.47h11.94l-9.81-25.47Z" fill="#24285b"/>
    <path id="Path_36" data-name="Path 36" d="M245.38,184.18l8.63,25.47h11.94l-9.81-25.47Z" fill="#24285b"/>
    <path id="Path_37" data-name="Path 37" d="M267.42,184.18l8.62,25.47h11.94l-9.81-25.47Z" fill="#24285b"/>
    <rect id="Rectangle_9" data-name="Rectangle 9" width="72.21" height="11.94" transform="translate(219.62 219.3)" fill="#0756fb"/>
    <path id="Path_38" data-name="Path 38" d="M272.41,184.18l19.42,18.74V194Z" opacity="0.08"/>
    <path id="Path_39" data-name="Path 39" d="M145,75.41l17.29-2.34a.68.68,0,0,0,.29-1.23l-.74-.51a4,4,0,0,1-1.67-2.43c-.65-2.69-2.58-8.11-7.76-8.33-6.62-.29-13.15,4.67-9.19,13.83A1.69,1.69,0,0,0,145,75.41Z" fill="#ffd200"/>
    <path id="Path_40" data-name="Path 40" d="M143.5,69.37a7.53,7.53,0,0,1,2.92-6.1.54.54,0,0,1,.8.66,13.61,13.61,0,0,0-1.36,5.5,1.17,1.17,0,0,1-1,1.12h0a1.18,1.18,0,0,1-1.36-1.18Z" fill="#fff" opacity="0.31"/>
    <path id="Path_41" data-name="Path 41" d="M305.81,113.65A9.23,9.23,0,0,0,295,104.5a12.49,12.49,0,0,0-11-6.58h-.46a14.85,14.85,0,1,0-28.77,0h-.46a12.5,12.5,0,1,0,0,25h43.4v-.08A9.27,9.27,0,0,0,305.81,113.65Z" fill="#e6e6e6"/>
    <path id="Path_42" data-name="Path 42" d="M68.61,83.83A6.87,6.87,0,0,1,75.48,77a8,8,0,0,1,1.11.09,9.25,9.25,0,0,1,8.16-4.87h.34a10.6,10.6,0,0,1-.34-2.66,11,11,0,1,1,21.65,2.66h.34a9.26,9.26,0,1,1,0,18.52H74.59v-.06a6.88,6.88,0,0,1-5.98-6.85Z" fill="#e6e6e6"/>
    <path id="Path_43" data-name="Path 43" d="M144,174.74s5.37-28.54,5.37-44.31c0-23.31-8.44-33.26-8.44-33.26l3.5-1.12s7.32,11.93,19.35,9.39c11.2-2.35,8.36-13.22,8.31-13.38h3.24s10.44,8.54,12.89,22.29c4.16,23.3.55,56,.55,56Z" fill="#24285b"/>
    <rect id="Rectangle_10" data-name="Rectangle 10" width="47.69" height="6.04" transform="translate(140.56 170.38)" fill="#c9c9c9"/>
    <rect id="Rectangle_11" data-name="Rectangle 11" width="9.67" height="14.16" rx="2.11" transform="translate(138.56 167.24)" fill="#ffd200"/>
    <rect id="Rectangle_12" data-name="Rectangle 12" width="9.67" height="6.81" rx="2.11" transform="translate(138.56 167.24)" fill="#fff" opacity="0.46"/>
    <circle id="Ellipse_3" data-name="Ellipse 3" cx="1.35" cy="1.35" r="1.35" transform="translate(142.05 169.25)" fill="#24285b"/>
    <rect id="Rectangle_13" data-name="Rectangle 13" width="9.67" height="14.16" rx="2.11" transform="translate(149.97 167.24)" fill="#ffd200"/>
    <rect id="Rectangle_14" data-name="Rectangle 14" width="9.67" height="6.81" rx="2.11" transform="translate(149.97 167.24)" fill="#fff" opacity="0.46"/>
    <circle id="Ellipse_4" data-name="Ellipse 4" cx="1.35" cy="1.35" r="1.35" transform="translate(153.45 169.25)" fill="#24285b"/>
    <rect id="Rectangle_15" data-name="Rectangle 15" width="9.67" height="14.16" rx="2.11" transform="translate(180.4 167.24)" fill="#ffd200"/>
    <rect id="Rectangle_16" data-name="Rectangle 16" width="9.67" height="6.81" rx="2.11" transform="translate(180.4 167.24)" fill="#fff" opacity="0.46"/>
    <circle id="Ellipse_5" data-name="Ellipse 5" cx="1.35" cy="1.35" r="1.35" transform="translate(183.88 169.25)" fill="#24285b"/>
    <path id="Path_44" data-name="Path 44" d="M214.55,248.79s3.68-5.3-1.82-6.76,1.33-8.6-3.79-9.54-4.26,6.61-4.26,6.61-3.53-3-6-.48,1,5.36,1,5.36-4.93,1.7-1.86,4.81Z" fill="#e6e6e6"/>
    <path id="Path_45" data-name="Path 45" d="M207.16,249.49s2.34-4,5.78-3.51a3.21,3.21,0,0,1,3.08,3.51Z" fill="#c9c9c9"/>
    <path id="Path_46" data-name="Path 46" d="M184.79,132.76s-21.33,1.37-27.77,0l-.87,17.47s21.46,3,27.73.72Z" fill="#fff" opacity="0.2"/>
  </g>
</svg>
