<svg xmlns="http://www.w3.org/2000/svg" version="1.1" xmlns:xlink="http://www.w3.org/1999/xlink" xmlns:svgjs="http://svgjs.com/svgjs" width="512" height="512" x="0" y="0" viewBox="0 0 512 512" style="enable-background:new 0 0 512 512" xml:space="preserve"><g><path d="m431.72 116.552-23.79-88.83c-3.18-11.91-14.02-20.22-26.34-20.22H263.75c-12.32 0-23.16 8.31-26.34 20.21l-23.8 88.84v.01" style="stroke-width:15;stroke-linecap:round;stroke-linejoin:round;stroke-miterlimit:10;" fill="none" stroke="#ffffff" stroke-width="15" stroke-linecap="round" stroke-linejoin="round" stroke-miterlimit="10" data-original="#000000" opacity="1"></path><path d="m255.46 93.062 13.72-51.22h106.98l13.72 51.22M159.026 443.889l-28.071 56.142a8.08 8.08 0 0 1-7.228 4.467h-19.249a8.081 8.081 0 0 1-8.081-8.081v-52.528M415.603 418.373v78.044a8.081 8.081 0 0 1-8.081 8.081h-18.948a8.082 8.082 0 0 1-7.41-4.856L355.6 440.909" style="stroke-width:15;stroke-linecap:round;stroke-linejoin:round;stroke-miterlimit:10;" fill="none" stroke="#ffffff" stroke-width="15" stroke-linecap="round" stroke-linejoin="round" stroke-miterlimit="10" data-original="#000000" opacity="1"></path><circle cx="322.67" cy="262.063" r="88.893" style="stroke-width:15;stroke-linecap:round;stroke-linejoin:round;stroke-miterlimit:10;" fill="none" stroke="#ffffff" stroke-width="15" stroke-linecap="round" stroke-linejoin="round" stroke-miterlimit="10" data-original="#000000" opacity="1"></circle><circle cx="322.67" cy="262.063" r="52.528" style="stroke-width:15;stroke-linecap:round;stroke-linejoin:round;stroke-miterlimit:10;" fill="none" stroke="#ffffff" stroke-width="15" stroke-linecap="round" stroke-linejoin="round" stroke-miterlimit="10" data-original="#000000" opacity="1"></circle><path d="M401.71 170.152c25.83 22.23 42.18 55.16 42.18 91.91 0 66.95-54.27 121.22-121.22 121.22s-121.22-54.27-121.22-121.22 54.27-121.22 121.22-121.22c17.66 0 34.44 3.78 49.57 10.57M55.991 443.889V288.482M175.807 369.286c-14.878-20.343-25.631-43.893-31.029-69.42M7.5 349.592v84.2c0 5.58 4.53 10.1 10.1 10.1h255.84" style="stroke-width:15;stroke-linecap:round;stroke-linejoin:round;stroke-miterlimit:10;" fill="none" stroke="#ffffff" stroke-width="15" stroke-linecap="round" stroke-linejoin="round" stroke-miterlimit="10" data-original="#000000" opacity="1"></path><path d="M7.5 314.592v-20.85c0-6.09 5.35-10.79 11.39-10.02l125.9 16.14a182.368 182.368 0 0 1-3.95-37.8c0-100.42 81.41-181.83 181.83-181.83 100.72 0 181.83 81.11 181.83 181.83 0 100.42-81.41 181.83-181.83 181.83h-14.23" style="stroke-width:15;stroke-linecap:round;stroke-linejoin:round;stroke-miterlimit:10;" fill="none" stroke="#ffffff" stroke-width="15" stroke-linecap="round" stroke-linejoin="round" stroke-miterlimit="10" data-original="#000000" opacity="1"></path><circle cx="322.67" cy="262.063" r="16.162" style="stroke-width:15;stroke-linecap:round;stroke-linejoin:round;stroke-miterlimit:10;" fill="none" stroke="#ffffff" stroke-width="15" stroke-linecap="round" stroke-linejoin="round" stroke-miterlimit="10" data-original="#000000" opacity="1"></circle><path d="M322.67 245.9v-72.73M334.098 250.634l51.429-51.428M338.832 262.063h72.731M334.098 273.491l51.429 51.429M322.67 278.225v72.731M311.241 273.491l-51.428 51.429M306.507 262.063h-72.73M311.241 250.634l-51.428-51.428" style="stroke-width:15;stroke-linecap:round;stroke-linejoin:round;stroke-miterlimit:10;" fill="none" stroke="#ffffff" stroke-width="15" stroke-linecap="round" stroke-linejoin="round" stroke-miterlimit="10" data-original="#000000" opacity="1"></path></g></svg>