<svg xmlns="http://www.w3.org/2000/svg" width="185.885" height="35.18" viewBox="0 0 185.885 35.18">
  <g id="Group_29" data-name="Group 29" transform="translate(-328.072 -216.045)">
    <path id="Path_17" data-name="Path 17" d="M17.185-12.7a5.375,5.375,0,0,1,3.71,2.03,5.98,5.98,0,0,1,1.33,3.745,6.11,6.11,0,0,1-2.38,5.04A9.9,9.9,0,0,1,13.51,0H4.445A1.5,1.5,0,0,1,2.73-1.68V-22.82A1.5,1.5,0,0,1,4.445-24.5h8.05a10,10,0,0,1,6.213,1.82,5.834,5.834,0,0,1,2.4,4.9,5.187,5.187,0,0,1-.962,3.028A5.621,5.621,0,0,1,17.185-12.7Zm-5.11-7.385H8.3v5.95h2.94a5.257,5.257,0,0,0,3.325-.892,2.7,2.7,0,0,0,1.12-2.188,2.494,2.494,0,0,0-1.015-2.1A4.166,4.166,0,0,0,12.075-20.09ZM13.3-4.48a3.741,3.741,0,0,0,2.537-.8,2.611,2.611,0,0,0,.927-2.065,2.789,2.789,0,0,0-1.172-2.258,5.471,5.471,0,0,0-3.447-.927H8.3V-4.48ZM29.435,7.84A1.471,1.471,0,0,1,28.122,7.3,1.419,1.419,0,0,1,28.14,5.88l2.94-7.105-6.65-14.77a1.454,1.454,0,0,1-.018-1.435,1.451,1.451,0,0,1,1.313-.56H28.1a1.873,1.873,0,0,1,1.96,1.365L33.74-6.86l3.71-9.765a1.908,1.908,0,0,1,1.96-1.365h2.275a1.405,1.405,0,0,1,1.3.56,1.543,1.543,0,0,1,0,1.435L33.145,6.545a1.981,1.981,0,0,1-1.96,1.3Zm24.64.385a15.019,15.019,0,0,1-7-1.61,1.462,1.462,0,0,1-.595-2.31l.42-.77a1.477,1.477,0,0,1,2.275-.63,9.52,9.52,0,0,0,4.41,1.12,5.368,5.368,0,0,0,3.8-1.312A5.062,5.062,0,0,0,58.8-1.19V-2.52a6.447,6.447,0,0,1-5.81,2.9,7.911,7.911,0,0,1-6.177-2.73,9.642,9.642,0,0,1-2.433-6.65,9.642,9.642,0,0,1,2.433-6.65,7.911,7.911,0,0,1,6.177-2.73,6.358,6.358,0,0,1,5.74,2.94V-16.45q0-1.54,1.715-1.54H62.37a1.485,1.485,0,0,1,1.68,1.68V-1.33q0,4.865-2.782,7.21A10.78,10.78,0,0,1,54.075,8.225Zm-3.15-13.58a4.126,4.126,0,0,0,3.29,1.47,4.2,4.2,0,0,0,3.308-1.453,5.474,5.474,0,0,0,1.313-3.657,5.474,5.474,0,0,0-1.312-3.658A4.2,4.2,0,0,0,54.215-14.1a4.055,4.055,0,0,0-3.272,1.487A5.463,5.463,0,0,0,49.7-8.995,5.494,5.494,0,0,0,50.925-5.355ZM70.07,0a1.485,1.485,0,0,1-1.68-1.68V-16.31a1.485,1.485,0,0,1,1.68-1.68h2.065a1.485,1.485,0,0,1,1.68,1.68v1.19q1.365-3.255,5.46-3.255a5.682,5.682,0,0,1,4.987,2.257,9.756,9.756,0,0,1,1.593,5.757v8.68A1.5,1.5,0,0,1,84.14,0H82.11a1.485,1.485,0,0,1-1.68-1.68V-9.975a5.071,5.071,0,0,0-.735-2.94,2.409,2.409,0,0,0-2.1-1.05,3.488,3.488,0,0,0-2.66,1.225,5.117,5.117,0,0,0-1.12,3.57v7.49A1.485,1.485,0,0,1,72.135,0Zm35.805-2.345A9.912,9.912,0,0,1,98.77.385a9.911,9.911,0,0,1-7.1-2.73,8.831,8.831,0,0,1-2.87-6.65,8.831,8.831,0,0,1,2.87-6.65,9.911,9.911,0,0,1,7.1-2.73,9.912,9.912,0,0,1,7.105,2.73,8.831,8.831,0,0,1,2.87,6.65A8.831,8.831,0,0,1,105.875-2.345ZM95.34-5.425A4.607,4.607,0,0,0,98.77-3.99a4.607,4.607,0,0,0,3.43-1.435,4.866,4.866,0,0,0,1.4-3.535,4.91,4.91,0,0,0-1.4-3.57,4.607,4.607,0,0,0-3.43-1.435,4.591,4.591,0,0,0-3.447,1.435A4.943,4.943,0,0,0,93.94-8.96,4.866,4.866,0,0,0,95.34-5.425ZM117.425,0A1.85,1.85,0,0,1,115.5-1.365L110.285-16.03a1.431,1.431,0,0,1,.035-1.417,1.519,1.519,0,0,1,1.33-.542h2.31a1.774,1.774,0,0,1,1.89,1.435l2.835,9.24,2.7-8.75a1.806,1.806,0,0,1,1.89-1.435h.525a1.806,1.806,0,0,1,1.89,1.435l2.73,8.75,2.8-9.24a1.774,1.774,0,0,1,1.89-1.435h2.31a1.519,1.519,0,0,1,1.33.542,1.483,1.483,0,0,1,.07,1.417l-5.25,14.665A1.85,1.85,0,0,1,129.64,0h-1.5a1.854,1.854,0,0,1-1.925-1.4l-2.66-8.645L120.855-1.4A1.821,1.821,0,0,1,118.93,0Z" transform="translate(377 243)"/>
    <g id="Page-1" transform="translate(328.072 246.389) rotate(-90)">
      <g id="B" transform="translate(0)">
        <path id="_28" data-name="28" d="M6.069,30.343a2.281,2.281,0,0,1-2.276,2.276,2.346,2.346,0,0,1-2.2-1.745A43.637,43.637,0,0,1,0,18.964C0,13.351,1.745,0,10.62,0a6.705,6.705,0,0,1,6.827,6.827c0,5.462-2.276,7.738-2.276,11.379,0,1.821.683,2.2,2.124,2.352,7.282.759,13.048,2.276,13.048,8.269,0,8.269-10.924,12.9-17.447,12.9a9.854,9.854,0,0,1-6.9-2.958A2.183,2.183,0,0,1,5.31,37.17a2.333,2.333,0,0,1,2.276-2.276,2.184,2.184,0,0,1,1.593.683A5.123,5.123,0,0,0,12.9,37.17c5.614,0,12.9-4.476,12.9-8.344,0-1.593-1.062-2.958-8.951-3.717a6.722,6.722,0,0,1-6.22-6.9c0-5.462,2.276-7.738,2.276-11.379A2.076,2.076,0,0,0,10.62,4.551c-3.262,0-6.069,7.889-6.069,14.413A38.581,38.581,0,0,0,5.993,29.812,1.291,1.291,0,0,1,6.069,30.343Z" fill="#0756fb"/>
      </g>
    </g>
  </g>
</svg>
