<svg xmlns="http://www.w3.org/2000/svg" version="1.1" xmlns:xlink="http://www.w3.org/1999/xlink" xmlns:svgjs="http://svgjs.com/svgjs" width="512" height="512" x="0" y="0" viewBox="0 0 32 32" style="enable-background:new 0 0 512 512" xml:space="preserve"><g><path d="m22.832 22.609-1.297.348-1.593-5.945c.149-.15.268-.336.313-.559a1.133 1.133 0 0 0-.818-1.322l-.896-3.35c.467-.195.775-.666.704-1.191a1.146 1.146 0 0 0-1.286-.98l-1.121-4.178a.331.331 0 0 0-.412-.236l-.842.224a.337.337 0 0 0-.237.412l1.066 3.977-1.385.178s-2.729-1.666-5.087-1.666a2.88 2.88 0 0 0-2.879 2.881l-.021 11.937-1.471 4.482a1.573 1.573 0 0 0 1.492 2.078c.656 0 1.27-.414 1.49-1.07L10.15 23.9c.055-.162.083-.332.083-.504v-3.605l1.292 8.568a1.574 1.574 0 1 0 3.112-.469l-1.815-12.037v-.801l1.016 1.039c.158.164.362.273.585.32l3.98.824 1.641 6.119c-.673.182-1.006.273-1.298.35-.781.207-.992 1.506-.856 2.357l6.864-1.838c-.309-.807-1.141-1.821-1.922-1.614zM15.23 14.24l-2.408-2.463v-.219l1.622.662a1.131 1.131 0 0 0 .586.076l1.981-.258.729 2.723z" fill="#ffffff" data-original="#000000" opacity="1"></path><path d="M26.513 27.406c-.771-.793-1.608-2.613-1.608-2.613l-6.861 1.84s.186 1.994-.084 3.066z" fill="#ffffff" data-original="#000000" opacity="1"></path><circle cx="10.293" cy="4.732" r="2.432" fill="#ffffff" data-original="#000000" opacity="1"></circle></g></svg>