<svg xmlns="http://www.w3.org/2000/svg" version="1.1" xmlns:xlink="http://www.w3.org/1999/xlink" xmlns:svgjs="http://svgjs.com/svgjs" width="512" height="512" x="0" y="0" viewBox="0 0 65 65" style="enable-background:new 0 0 512 512" xml:space="preserve" class=""><g><path d="M22.432 58.563a.75.75 0 0 0 0-1.5h-.623a.75.75 0 0 0 0 1.5zM34.51 58.563a.75.75 0 0 0 0-1.5h-9.396a.75.75 0 0 0 0 1.5zM9.304 5.876a.75.75 0 0 0 0 1.5h10.864a.75.75 0 0 0 0-1.5zM6.266 5.876a.75.75 0 0 0 0 1.5h.517a.75.75 0 0 0 0-1.5z" fill="#ffffff" data-original="#000000" opacity="1" class=""></path><path d="M62.242 9.782H2.758A2.26 2.26 0 0 0 .5 12.04v40.358a2.26 2.26 0 0 0 2.258 2.258h2.894v2.804c0 .918.747 1.664 1.665 1.664h7.976c.918 0 1.664-.746 1.664-1.664v-2.804h31.086v2.804c0 .918.746 1.664 1.664 1.664h7.976c.918 0 1.665-.746 1.665-1.664v-2.804h2.894a2.26 2.26 0 0 0 2.258-2.258V12.04a2.26 2.26 0 0 0-2.258-2.258zM15.457 57.46c0 .09-.073.164-.164.164H7.317a.165.165 0 0 1-.165-.164v-2.804h8.305zm42.39 0c0 .09-.074.164-.164.164h-7.976a.164.164 0 0 1-.164-.164v-2.804h8.305zM63 52.398c0 .418-.34.758-.758.758-39.307-.005-10.861 0-59.484 0A.759.759 0 0 1 2 52.398V12.04c0-.418.34-.758.758-.758h59.484c.418 0 .758.34.758.758z" fill="#ffffff" data-original="#000000" opacity="1" class=""></path><path d="M32.72 15.604a.75.75 0 0 0-.831 1.249 18.677 18.677 0 0 1 7.03 8.763.75.75 0 0 0 1.4-.54 19.916 19.916 0 0 0-7.598-9.472zM28.775 15.186c.223.092.444.189.662.292a.751.751 0 0 0 .634-1.36c-.237-.11-.477-.217-.72-.317a.75.75 0 0 0-.576 1.385zM21.693 16.179c-8.844 0-16.04 7.196-16.04 16.04s7.196 16.04 16.04 16.04 16.041-7.195 16.041-16.04-7.196-16.04-16.04-16.04zm0 30.58c-8.017 0-14.54-6.522-14.54-14.54s6.523-14.54 14.54-14.54 14.541 6.523 14.541 14.54-6.523 14.54-14.54 14.54z" fill="#ffffff" data-original="#000000" opacity="1" class=""></path><path d="M24.612 31.478a3.008 3.008 0 0 0-.454-.766c1.546-2.048 2.34-3.665 2.34-4.802 0-2.794-4.53-4.755-6.98-4.755-2.712 0-3.353 2.358-2.502 4.985.312.973 1.14 2.45 2.508 4.49a3.018 3.018 0 0 0-.427.65c-2.601-.322-4.432-.206-5.43.363-2.419 1.392-1.858 6.294-.634 8.42 1.372 2.365 3.746 1.712 5.568-.327.819-.9 1.788-2.682 2.541-4.208.572.129.832.061.96.048 1.013 2.33 1.98 3.75 2.943 4.305.777.45 1.706.446 2.574.214 2.047-.547 4.205-2.433 5.032-3.867 1.363-2.357-.358-4.089-3.069-4.668-.987-.21-2.662-.237-4.97-.082zm-6.207-8.4c.076-.104.308-.423 1.113-.423 1.963 0 5.48 1.64 5.48 3.255 0 .762-.748 2.19-2.021 3.883a3.033 3.033 0 0 0-2.239-.042c-1.556-2.325-2.11-3.493-2.295-4.072-.372-1.149-.386-2.121-.038-2.6zm1.399 11.775c-.927 1.88-1.74 3.245-2.317 3.88-.8.895-1.622 1.387-2.222 1.334-.13-.013-.527-.053-.933-.754-.5-.869-.843-2.329-.853-3.634-.011-1.37.338-2.392.934-2.735.404-.231 1.139-.347 2.126-.347.648 0 1.405.05 2.25.151.037.704.414 1.575 1.015 2.105zm.483-2.264c0-.857.706-1.53 1.526-1.525.016 0 .032.005.048.005.797.03 1.47.685 1.47 1.52 0 .84-.713 1.517-1.526 1.517a1.538 1.538 0 0 1-1.518-1.517zm11.259 1.706c.053.12.213.48-.193 1.183-.666 1.156-2.522 2.74-4.12 3.168-.418.11-1.003.189-1.436-.063-.383-.22-1.167-.97-2.28-3.504.63-.429 1.19-1.277 1.295-2.112 2.07-.135 3.64-.115 4.457.06 1.185.253 2.037.728 2.277 1.268zM57.74 18.358H43.517a.75.75 0 0 0 0 1.5h14.221a.75.75 0 0 0 0-1.5zM57.74 22.827H43.517a.75.75 0 0 0 0 1.5h14.221a.75.75 0 0 0 0-1.5zM57.74 27.297H43.517a.75.75 0 0 0 0 1.5h14.221a.75.75 0 0 0 0-1.5zM55.79 33.807H45.467c-.588 0-1.067.478-1.067 1.067v9.375c0 .588.479 1.066 1.067 1.066H55.79c.589 0 1.067-.478 1.067-1.066v-9.375c0-.589-.478-1.067-1.067-1.067zm-.433 10.008H45.9v-8.508h9.457z" fill="#ffffff" data-original="#000000" opacity="1" class=""></path></g></svg>