<svg xmlns="http://www.w3.org/2000/svg" version="1.1" xmlns:xlink="http://www.w3.org/1999/xlink" xmlns:svgjs="http://svgjs.com/svgjs" width="512" height="512" x="0" y="0" viewBox="0 0 512 512" style="enable-background:new 0 0 512 512" xml:space="preserve"><g><path d="M100.688 116.219v31.062M411.312 116.219v31.062M100.688 178.344v31.062M411.312 178.344v31.062M100.688 240.469v31.062M411.312 240.469v31.062M100.688 302.594v31.062M411.312 302.594v31.062M100.688 364.719v31.062M411.312 364.719v31.062M244.568 85.156h166.744M100.688 85.156h108.88M411.312 116.219H100.688M100.688 147.281h310.624M411.312 178.344H100.688M100.688 209.406h310.624M411.312 240.469H100.688M100.688 271.531h310.624M411.312 302.594H100.688M100.688 333.656h310.624M411.312 364.719H100.688M100.688 395.781h310.624M411.312 426.844H100.688M437.375 442.375h-21.062a5 5 0 0 1-5-5V74.625a5 5 0 0 1 5-5h21.062a5 5 0 0 1 5 5v362.75a5 5 0 0 1-5 5zM95.688 442.375H74.625a5 5 0 0 1-5-5V74.625a5 5 0 0 1 5-5h21.062a5 5 0 0 1 5 5v362.75a4.999 4.999 0 0 1-4.999 5zM442.375 395.781h26.062a5 5 0 0 1 5 5v21.062a5 5 0 0 1-5 5h-26.062M442.375 85.156h26.062a5 5 0 0 1 5 5v21.062a5 5 0 0 1-5 5h-26.062M442.375 209.406h15.531c8.578 0 15.531-6.954 15.531-15.531v0c0-8.578-6.954-15.531-15.531-15.531h-15.531" style="stroke-width:15;stroke-linecap:round;stroke-linejoin:round;stroke-miterlimit:10;" fill="none" stroke="#ffffff" stroke-width="15" stroke-linecap="round" stroke-linejoin="round" stroke-miterlimit="10" data-original="#000000" opacity="1"></path><path d="M472.852 238.02a46.531 46.531 0 0 1-14.946 2.449h-15.531M442.375 147.281h15.531c25.733 0 46.594 20.861 46.594 46.594v0a46.397 46.397 0 0 1-4.973 20.966M442.375 333.656h15.531c8.578 0 15.531-6.954 15.531-15.531v0c0-8.578-6.954-15.531-15.531-15.531h-15.531" style="stroke-width:15;stroke-linecap:round;stroke-linejoin:round;stroke-miterlimit:10;" fill="none" stroke="#ffffff" stroke-width="15" stroke-linecap="round" stroke-linejoin="round" stroke-miterlimit="10" data-original="#000000" opacity="1"></path><path d="M442.375 271.531h15.531c25.733 0 46.594 20.861 46.594 46.594v0c0 25.733-20.861 46.594-46.594 46.594h-15.531M69.625 147.281H54.094c-8.578 0-15.531-6.954-15.531-15.531v0c0-8.578 6.954-15.531 15.531-15.531h15.531M69.625 271.531H54.094c-8.578 0-15.531-6.954-15.531-15.531v0c0-8.578 6.954-15.531 15.531-15.531h15.531" style="stroke-width:15;stroke-linecap:round;stroke-linejoin:round;stroke-miterlimit:10;" fill="none" stroke="#ffffff" stroke-width="15" stroke-linecap="round" stroke-linejoin="round" stroke-miterlimit="10" data-original="#000000" opacity="1"></path><path d="M69.625 209.406H54.094C28.361 209.406 7.5 230.267 7.5 256v0c0 25.733 20.861 46.594 46.594 46.594h15.531M69.625 395.781H54.094c-8.578 0-15.531-6.954-15.531-15.531v0c0-8.578 6.954-15.531 15.531-15.531h15.531M44.618 425.88c3.06.632 6.229.964 9.476.964h15.531" style="stroke-width:15;stroke-linecap:round;stroke-linejoin:round;stroke-miterlimit:10;" fill="none" stroke="#ffffff" stroke-width="15" stroke-linecap="round" stroke-linejoin="round" stroke-miterlimit="10" data-original="#000000" opacity="1"></path><path d="M69.625 333.656H54.094c-25.733 0-46.594 20.861-46.594 46.594v0a46.381 46.381 0 0 0 8.391 26.681M178.344 116.219v31.062M224.938 116.219v31.062M287.062 116.219v31.062M333.656 116.219v31.062M193.875 147.281v31.063M256 147.281v31.063M318.125 147.281v31.063M364.719 147.281v31.063M147.281 147.281v31.063M131.75 116.219v31.062M380.25 116.219v31.062M178.344 178.344v31.062M224.938 178.344v31.062M287.062 178.344v31.062M333.656 178.344v31.062M193.875 209.406v31.063M256 209.406v31.063M318.125 209.406v31.063M364.719 209.406v31.063M147.281 209.406v31.063M131.75 178.344v31.062M380.25 178.344v31.062M178.344 240.469v31.062M224.938 240.469v31.062M287.062 240.469v31.062M333.656 240.469v31.062M193.875 271.531v31.063M256 271.531v31.063M318.125 271.531v31.063M364.719 271.531v31.063M147.281 271.531v31.063M131.75 240.469v31.062M380.25 240.469v31.062M178.344 302.594v31.062M224.938 302.594v31.062M287.062 302.594v31.062M333.656 302.594v31.062M193.875 333.656v31.063M256 333.656v31.063M318.125 333.656v31.063M364.719 333.656v31.063M147.281 333.656v31.063M131.75 302.594v31.062M380.25 302.594v31.062M178.344 364.719v31.062M224.938 364.719v31.062M287.062 364.719v31.062M333.656 364.719v31.062M193.875 395.781v31.063M256 395.781v31.063M318.125 395.781v31.063M364.719 395.781v31.063M147.281 395.781v31.063M193.875 116.219V85.156M256 116.219V85.156M318.125 116.219V85.156M364.719 116.219V85.156M147.281 116.219V85.156M131.75 364.719v31.062M380.25 364.719v31.062M69.625 85.156H54.094C28.361 85.156 7.5 106.017 7.5 131.75v0c0 25.733 20.861 46.594 46.594 46.594h15.531" style="stroke-width:15;stroke-linecap:round;stroke-linejoin:round;stroke-miterlimit:10;" fill="none" stroke="#ffffff" stroke-width="15" stroke-linecap="round" stroke-linejoin="round" stroke-miterlimit="10" data-original="#000000" opacity="1"></path></g></svg>