<svg xmlns="http://www.w3.org/2000/svg" width="60.006" height="60.002" viewBox="0 0 60.006 60.002">
  <g id="customer-check-icon" transform="translate(0.003 -0.001)">
    <path id="Path_1" data-name="Path 1" d="M26.325,3.144a3.72,3.72,0,0,1,7.35,0,3.72,3.72,0,0,0,6.57,1.76A3.72,3.72,0,0,1,46.611,8.58a3.72,3.72,0,0,0,4.81,4.81A3.72,3.72,0,0,1,55.1,19.755a3.72,3.72,0,0,0,1.76,6.57,3.72,3.72,0,0,1,0,7.35,3.72,3.72,0,0,0-1.76,6.57,3.72,3.72,0,0,1-3.675,6.366,3.72,3.72,0,0,0-4.81,4.81,3.72,3.72,0,0,1-6.37,3.679,3.72,3.72,0,0,0-6.57,1.76,3.72,3.72,0,0,1-7.35,0,3.72,3.72,0,0,0-6.57-1.76,3.72,3.72,0,0,1-6.366-3.675,3.72,3.72,0,0,0-4.81-4.81A3.72,3.72,0,0,1,4.9,40.245a3.72,3.72,0,0,0-1.76-6.57,3.72,3.72,0,0,1,0-7.35,3.72,3.72,0,0,0,1.76-6.57,3.72,3.72,0,0,1,3.68-6.366,3.72,3.72,0,0,0,4.81-4.81A3.72,3.72,0,0,1,19.755,4.9a3.72,3.72,0,0,0,6.57-1.756Z" fill="#44cf6c"/>
    <path id="Path_2" data-name="Path 2" d="M37.734,22.316a.423.423,0,0,1,.344-.129.693.693,0,0,1,.387.129l1.2,1.246a.53.53,0,0,1,.172.344.545.545,0,0,1-.172.387L26.777,37.184a.488.488,0,0,1-.344.129.525.525,0,0,1-.387-.129l-5.715-5.758a.349.349,0,0,1-.172-.344.525.525,0,0,1,.172-.387l1.2-1.2a.544.544,0,0,1,.387-.172.53.53,0,0,1,.344.172l4.168,4.168Z" fill="#fff"/>
  </g>
</svg>
