<svg xmlns="http://www.w3.org/2000/svg" width="384.169" height="384.169" viewBox="0 0 384.169 384.169">
  <g id="Group_34" data-name="Group 34" transform="translate(-34 -598)">
    <g id="Group_28" data-name="Group 28" transform="translate(-63.437 76.126)">
      <g id="Group_31" data-name="Group 31" transform="translate(17 114)">
        <g id="Group_27" data-name="Group 27" transform="translate(80.437 407.875)">
          <path id="Path_7" data-name="Path 7" d="M312.138,384.169H72.032A72.027,72.027,0,0,1,0,312.138V72.032A72.027,72.027,0,0,1,72.032,0H312.138a72.027,72.027,0,0,1,72.032,72.032V312.138A72.027,72.027,0,0,1,312.138,384.169Z" fill="#e9f1f7"/>
        </g>
      </g>
    </g>
    <g id="cutting" transform="translate(95 678)">
      <path id="Path_25" data-name="Path 25" d="M225.762,220.557c1.8,0,2.95,3.168,4.227,1.892s3.162-2.944,2.53-5.134c-.5-1.733-4.366-.9-4.366-2.7s1.754-1.8,1.754-3.6-2.233-1.8-2.233-3.6,3.23-1.8,3.23-3.6-.142-1.8-.142-3.6-3.1-1.8-3.1-3.6,4.522-1.8,4.522-3.6-3.623-1.8-3.623-3.6,2.289-1.8,2.289-3.6-3.738-1.8-3.738-3.6.57-1.8.57-3.6-.522-1.8-.522-3.6,4.03-1.8,4.03-3.6,1.152-1.8,1.152-3.6-3.935-1.8-3.935-3.6,2.738-1.8,2.738-3.6-2.083-1.8-2.083-3.6-.017-1.8-.017-3.6-.854-1.8-.854-3.6-2.021-1.8-2.021-3.6,5.785-1.8,5.785-3.6-4.265-1.8-4.265-3.6,4.208-1.8,4.208-3.6-1.755-1.8-1.755-3.6-.227-1.8-.227-3.6,2.373-1.8,2.373-3.6-1.912-1.8-1.912-3.6-2.6-1.8-2.6-3.6,1.075-.524-.2-1.793-.014-1.953-1.825-1.953-1.811-.1-3.621-.1-1.808,3.444-3.615,3.444-1.807-1.711-3.615-1.711-1.807-1.132-3.614-1.132-1.807,2.664-3.615,2.664-1.808-2.421-3.615-2.421-1.807-3.089-3.615-3.089-1.807,4.012-3.613,4.012-1.806.476-3.612.476-1.807-3.429-3.614-3.429-1.8,4.631-3.61,4.631-1.806-4.622-3.613-4.622-1.8-.885-3.608-.885-1.806,3.249-3.612,3.249-1.806,1.835-3.612,1.835-1.807.336-3.613.336-1.806-6.108-3.612-6.108-1.806,1.863-3.612,1.863-1.806-1.567-3.612-1.567-1.806,2.682-3.613,2.682-1.806-1.986-3.611-1.986-1.806-.146-3.613-.146-1.806,1.092-3.611,1.092-1.8-1.233-3.61-1.233-1.806,1.812-3.612,1.812-1.806,1.109-3.611,1.109-1.8,2.462-3.609,2.462-1.805-2.71-3.61-2.71-1.806,1.421-3.613,1.421-1.836-2.582-3.113-1.306-3.195,1.307-3.195,3.111,3.916,1.8,3.916,3.609.315,1.8.315,3.6-3.925,1.8-3.925,3.6,4.632,1.8,4.632,3.6-1.712,1.8-1.712,3.6,1.352,1.8,1.352,3.6-.422,1.8-.422,3.6.621,1.8.621,3.6-1.659,1.8-1.659,3.6.217,1.8.217,3.6-3.153,1.8-3.153,3.6,3.895,1.8,3.895,3.6-2.276,1.8-2.276,3.6-2.056,1.8-2.056,3.6,2.311,1.8,2.311,3.6-.655,1.8-.655,3.6-1.068,1.8-1.068,3.6,3.078,1.8,3.078,3.6.089,1.8.089,3.6-1,1.8-1,3.6,1.865,1.8,1.865,3.6.822,1.8.822,3.6-1.225,1.8-1.225,3.6.437,1.8.437,3.6-4.306,1.8-4.306,3.6.885,1.8.885,3.6,4.275,1.8,4.275,3.6.784,1.8.784,3.6-5.652,3.371-4.375,4.64,2.844.206,4.655.206,1.811,1.112,3.621,1.112,1.808-3.332,3.615-3.332,1.807-1.417,3.615-1.417,1.807.737,3.614.737,1.807-1.394,3.615-1.394,1.808,5.949,3.615,5.949,1.807-1.817,3.615-1.817,1.807-1.95,3.613-1.95,1.806-.674,3.612-.674,1.807.244,3.614.244,1.8,2.827,3.61,2.827,1.806-3.71,3.613-3.71,1.8,1.11,3.608,1.11,1.806,3.1,3.612,3.1,1.806-2.434,3.612-2.434,1.807,1.479,3.613,1.479,1.806-3.8,3.612-3.8,1.806,2.226,3.612,2.226,1.806-2.151,3.612-2.151,1.806,4.228,3.613,4.228,1.806-4.652,3.611-4.652,1.806,4.267,3.613,4.267,1.806-2.457,3.611-2.457,1.8,2.606,3.61,2.606,1.806.369,3.612.369,1.806-2.153,3.611-2.153,1.8,1.008,3.609,1.008,1.8.079,3.61.079,1.81-1.916,3.616-1.916Zm3.649-126.8H226.97v2H222.4v-2h-2.441v2h-4.569v-2h-2.441v2h-4.569v-2h-2.441v2h-4.569v-2h-2.441v2h-4.569v-2h-2.44v2h-4.569v-2h-2.441v2h-4.57v-2H177.9v2h-4.569v-2h-2.441v2h-4.568v-2h-2.442v2h-4.568v-2h-2.441v2H152.3v-2h-2.441v2h-4.569v-2h-2.441v2h-4.57v-2h-2.439v2h-4.57v-2h-2.441v2h-4.569v-2h-2.441v2h-6.671V84.747h-7.018v-6.86H84.358v6.86H77.34v4.825H65.481v4.5l1.62.331a10.371,10.371,0,0,1,1.517.446V92.708H77.34v12.209H75.319a10.291,10.291,0,0,1-.188,1.643,10.178,10.178,0,0,1-.435,1.5H77.34v4.482h37.8V101.52h6.671v2.007h2.441V101.52h4.569v2.007h2.441V101.52h4.57v2.007h2.439V101.52h4.57v2.007h2.441V101.52h4.569v2.007h2.441V101.52h4.569v2.007H159.3V101.52h4.568v2.007h2.442V101.52h4.568v2.007h2.441V101.52h4.569v2.007h2.441V101.52h4.57v2.007h2.441V101.52h4.569v2.007h2.44V101.52h4.569v2.007h2.441V101.52h4.569v2.007h2.441V101.52h4.569v2.007h2.441V101.52h4.569v2.007h2.441V101.52h4.568v2.007H229.4V101.52h4.885V95.765H229.4v-2ZM88,83.956v-2.75h16.875v2.75Zm-1.777,24.31H83.553V89.6H86.22Zm6.25,0H89.8V89.6H92.47Zm15.167-.459a3.375,3.375,0,1,1,3.375-3.375A3.375,3.375,0,0,1,107.637,107.807ZM5.193,199.747a12.5,12.5,0,1,0,20.845,13.8c14.014-21.161,18.438-40.575,18.507-56.576L14.93,132.963C20.678,147.311,24.17,171.092,5.193,199.747Z" fill="#0756fb"/>
      <path id="Path_26" data-name="Path 26" d="M17.31,105.256a10.3,10.3,0,0,1-6.875-15.212l18.333-32a10.3,10.3,0,1,1,17.874,10.24L35.391,87.926l19.122,3.909,8.876-3.153v-1.2h3.38l8.478-3.012V82.656h5.1l1.919-.682V75.8h12.15a8,8,0,0,0-9.472-11.753L58.319,73.5,59.36,55.8a7.961,7.961,0,0,0-1.084-4.514A11.79,11.79,0,0,0,53.5,44.882c-7.409-4.744-20.617-4.307-30.068,7.958C10.537,69.78,4.953,81.756.3,103.633a24.238,24.238,0,0,0,.94,11.815,12.428,12.428,0,0,0,4.268,6.827l4.6,3.744,40.606,33.008,16.4,51.768a12.5,12.5,0,0,0,23.834-7.549L73.427,147.913a12.505,12.505,0,0,0-4.032-5.925L34.3,113.456l0,0q.59-2.247,1.313-4.455ZM47.97,12.294a22.5,22.5,0,1,0,40.1,20.423c.279-.547.526-1.1.756-1.66q-1.835-.725-3.622-1.562c-10.55-4.955-17.8-11.781-16.475-15.42.493,3.748,8.3,8.806,18.671,11.841,7.825,2.292,15.058,2.833,19.182,1.717,1.882-.509,3.117-1.362,3.465-2.552,1.113-3.8-7.224-9.584-18.619-12.921q-1.982-.58-4-1.03A22.494,22.494,0,0,0,47.97,12.294Z" fill="#0756fb"/>
      <path id="Path_27" data-name="Path 27" d="M72.876,106.1a8,8,0,0,0-6.236-9.44L31.814,89.542l12.833-22.4a8,8,0,0,0-13.883-7.954l-18.333,32A8,8,0,0,0,17.77,103l45.666,9.333a8,8,0,0,0,9.44-6.235ZM189.789,86.834c1.315-.95,1.206-3.346-.923-6.292s-6.786-4.374-6.786-4.374-.1,4.87,2.024,7.816S188.474,87.785,189.789,86.834Zm29.175-6.24c2.039-3.008,1.787-7.873,1.787-7.873s-4.612,1.569-6.65,4.578-2.075,5.407-.732,6.317,3.557-.013,5.6-3.022ZM197.491,51.419s-2.413,4.232-1.945,7.836,2.03,5.424,3.639,5.215,2.655-2.367,2.187-5.971S197.491,51.419,197.491,51.419ZM161.368,37c-2.28-2.83-7.005-4.013-7.005-4.013s.15,4.869,2.43,7.7,4.563,3.567,5.826,2.549,1.029-3.4-1.251-6.235ZM147.649,80.666c.747,1.44,3.133,1.684,6.359.01s5.323-6.07,5.323-6.07-4.8-.818-8.028.855-4.4,3.765-3.654,5.205Zm92.32-28.219s-3.316-3.569-6.894-4.2-5.783.314-6.065,1.912,1.464,3.242,5.043,3.874S239.969,52.447,239.969,52.447Zm6.76,84.491c-3.2-1.731-5.585-1.53-6.358-.1s.364,3.538,3.56,5.27,8.011,1,8.011,1S249.924,138.67,246.729,136.938Zm7.62,19.531c-3.454,1.13-4.951,3-4.447,4.546s2.82,2.168,6.274,1.038,6.234-5.13,6.234-5.13S257.8,155.339,254.349,156.469ZM113.271,70.552a1,1,0,1,0,.123,2,5.772,5.772,0,0,1,3.763,1.309,5.466,5.466,0,0,1,1.532,4.093,1,1,0,0,0,1,.983h.018a1,1,0,0,0,.982-1.017,7.363,7.363,0,0,0-2.175-5.527,7.669,7.669,0,0,0-5.243-1.838Z" fill="#0756fb"/>
      <path id="Path_28" data-name="Path 28" d="M114.83,65.994a1,1,0,1,0,.008,2h.01a9.183,9.183,0,0,1,5.976,2.456c1.582,1.6,2.353,3.924,2.289,6.9a1,1,0,0,0,.979,1.021h.021a1,1,0,0,0,1-.979c.074-3.534-.89-6.341-2.865-8.344a11.068,11.068,0,0,0-7.418-3.051Zm82.9,15.979,5.184-2.933.995-7.559-1.983-.261-.866,6.57-4.314,2.443ZM166.334,84.3l1.949,1.142,1.011-1.725-2.883-1.692-4.986,2.493.9,1.789Zm77.056,33.967,1.965-.374-1.1-5.753-4.214-1.967-.845,1.813,3.286,1.534Zm-.3-37.91,2.335-.878-.705-1.872-3.282,1.235L240.16,83.4,237.2,84.987l.945,1.763,3.709-1.991ZM97.123,129.3v3.509l-2.108,3.512,1.715,1.029,2.393-3.987v-2.992l3.3-2.2-1.109-1.664Zm5.785,30.8,1.929-.525-.6-2.19,4.163-4.163-.283-3.956-1.994.143.216,3.044-4.337,4.338Zm-18.474-35.51c-3.461,1.108-6.266,5.09-6.266,5.09s4.6,1.613,8.058.505,4.97-2.972,4.476-4.517S87.895,123.476,84.434,124.584Zm58.345-66.141-2.341-2.673-5.531.737.263,1.982,4.469-.6,2.327,2.659,6.19-.728-.235-1.987Z" fill="#0756fb"/>
    </g>
  </g>
</svg>
