<svg xmlns="http://www.w3.org/2000/svg" width="384.169" height="384.169" viewBox="0 0 384.169 384.169">
  <g id="Group_35" data-name="Group 35" transform="translate(-34 -598)">
    <g id="Group_34" data-name="Group 34">
      <g id="Group_28" data-name="Group 28" transform="translate(-63.437 76.126)">
        <g id="Group_31" data-name="Group 31" transform="translate(17 114)">
          <g id="Group_27" data-name="Group 27" transform="translate(80.437 407.875)">
            <path id="Path_7" data-name="Path 7" d="M312.138,384.169H72.032A72.027,72.027,0,0,1,0,312.138V72.032A72.027,72.027,0,0,1,72.032,0H312.138a72.027,72.027,0,0,1,72.032,72.032V312.138A72.027,72.027,0,0,1,312.138,384.169Z" fill="#e9f1f7"/>
          </g>
        </g>
      </g>
    </g>
    <g id="demolition" transform="translate(94 631.079)">
      <path id="Path_29" data-name="Path 29" d="M131.568,312.955h22.35a6.25,6.25,0,0,0,6.243-6.243V284.874a12.22,12.22,0,0,0-12.206-12.206H137.531a12.22,12.22,0,0,0-12.206,12.206v21.839A6.25,6.25,0,0,0,131.568,312.955Zm1.508-28.081a4.46,4.46,0,0,1,4.455-4.455h10.423a4.461,4.461,0,0,1,4.456,4.455V305.2H133.075Z" transform="translate(-60.572 -105.242)" fill="#0756fb"/>
      <path id="Path_30" data-name="Path 30" d="M263.166,55.835a3.875,3.875,0,0,0-5.461.46l-46.987,55.629-5.764-4.869a8.022,8.022,0,0,0-11.289.95l-7.891,9.343a39.707,39.707,0,0,0-18.015.763l-22.384-9.923a3.875,3.875,0,1,0-3.141,7.085l15.835,7.02a39.851,39.851,0,0,0-10.036,8.6l-29.683-13.159a3.88,3.88,0,0,0-3.141,0L34.136,153.678,29.3,142.769l85.06-37.709a5.98,5.98,0,0,1,4.836,0l9.261,4.106a3.875,3.875,0,1,0,3.141-7.085l-9.262-4.105a13.744,13.744,0,0,0-11.118,0L81.945,110.953v-8.934A5.226,5.226,0,0,0,76.725,96.8H60.531a5.227,5.227,0,0,0-5.221,5.221V122.76L24.777,136.3a6.239,6.239,0,0,0-3.174,8.232l6.061,13.67a6.228,6.228,0,0,0,8.233,3.176l5.613-2.488v21.19a3.875,3.875,0,1,0,7.75,0V155.451l67.52-29.934,26.83,11.894q-.748,1.38-1.385,2.816l-9.381.377-5.506-5.68a3.875,3.875,0,1,0-5.564,5.394l6.713,6.924a3.873,3.873,0,0,0,2.938,1.175l8.269-.332a39.55,39.55,0,0,0-.836,8.28L122.7,159.394a3.875,3.875,0,0,0-3.141,4.2l.787,7.8-6.834,1.443a3.875,3.875,0,1,0,1.6,7.583l10.239-2.162a3.875,3.875,0,0,0,3.055-4.181l-.78-7.72,12.018-2.254a39.156,39.156,0,0,0,1.214,4.546,12.258,12.258,0,0,0-6.892,10.984v21.839a6.25,6.25,0,0,0,6.243,6.243h22.35a6.25,6.25,0,0,0,6.243-6.243v-6.908a39.378,39.378,0,0,0,4.968.907l-.644,10.266-9.617,7.279a3.875,3.875,0,0,0-.752,5.428l4.664,6.166a3.875,3.875,0,0,0,6.181-4.676l-2.327-3.075,7.945-6.013A3.876,3.876,0,0,0,180.754,208l.776-12.38q1.39-.109,2.769-.315v59.658H137.607V227.174a8.789,8.789,0,0,0-8.778-8.779h-24.1a8.789,8.789,0,0,0-8.779,8.779v27.784h-30.6a21.5,21.5,0,0,0-.507-28.091.525.525,0,0,1-.142-.464,16.552,16.552,0,0,0,.659-5.528A16.72,16.72,0,0,0,49.846,205.18q-.293-.017-.586-.024V195.062a3.875,3.875,0,0,0-7.75,0v11.781a16.577,16.577,0,0,0-8.6,19.4.688.688,0,0,1-.109.641,21.471,21.471,0,0,0-.483,28.076H3.875a3.875,3.875,0,1,0,0,7.75H229.682a3.875,3.875,0,1,0,0-7.75H192.049V193.324a39.456,39.456,0,0,0,21.49-19.013,3.875,3.875,0,0,0-6.886-3.555,31.783,31.783,0,1,1,3.489-12.9,3.875,3.875,0,1,0,7.74.395,39.437,39.437,0,0,0-2.42-15.823l7.891-9.343a8.006,8.006,0,0,0-.95-11.29l-5.765-4.869L263.625,61.3a3.877,3.877,0,0,0-.459-5.462Zm-200.1,48.712H74.2v9.841l-11.134,4.936Zm-24.489,127.5a8.377,8.377,0,0,0,1.785-7.931,8.826,8.826,0,0,1-.335-2.414,8.723,8.723,0,0,1,2.77-6.411A8.806,8.806,0,0,1,57.271,224.2v0a8.3,8.3,0,0,0,1.8,7.835,13.751,13.751,0,1,1-20.5.011Zm65.129,22.91V227.174a1.03,1.03,0,0,1,1.029-1.029h24.1a1.03,1.03,0,0,1,1.028,1.029v27.784Zm57.354-63.229v8.233H141.72V179.632a4.473,4.473,0,0,1,2.3-3.9,39.812,39.812,0,0,0,17.03,16Zm56.378-63.647-5.746,6.8a39.789,39.789,0,0,0-17.84-15.083l5.739-6.795a.26.26,0,0,1,.367-.031L217.4,127.714a.259.259,0,0,1,.03.368Z" fill="#0756fb"/>
    </g>
  </g>
</svg>
