<svg xmlns="http://www.w3.org/2000/svg" version="1.1" xmlns:xlink="http://www.w3.org/1999/xlink" xmlns:svgjs="http://svgjs.com/svgjs" width="512" height="512" x="0" y="0" viewBox="0 0 682.667 682.667" style="enable-background:new 0 0 512 512" xml:space="preserve" class=""><g><defs><clipPath id="a" clipPathUnits="userSpaceOnUse"><path d="M0 512h512V0H0Z" fill="#ffffff" data-original="#000000"></path></clipPath></defs><g clip-path="url(#a)" transform="matrix(1.33333 0 0 -1.33333 0 682.667)"><path d="M0 0v16.162c0 8.927-7.236 16.163-16.163 16.163-8.926 0-16.162-7.236-16.162-16.163V0" style="stroke-width:15;stroke-linecap:round;stroke-linejoin:round;stroke-miterlimit:10;stroke-dasharray:none;stroke-opacity:1" transform="translate(150.943 344.894)" fill="none" stroke="#ffffff" stroke-width="15" stroke-linecap="round" stroke-linejoin="round" stroke-miterlimit="10" stroke-dasharray="none" stroke-opacity="" data-original="#000000"></path><path d="M0 0v-145.464a8.081 8.081 0 0 0-8.081-8.081h-16.163a8.081 8.081 0 0 0-8.081 8.081V0a8.081 8.081 0 0 0 8.081 8.081h16.163A8.081 8.081 0 0 0 0 0Z" style="stroke-width:15;stroke-linecap:round;stroke-linejoin:round;stroke-miterlimit:10;stroke-dasharray:none;stroke-opacity:1" transform="translate(504.5 357.017)" fill="none" stroke="#ffffff" stroke-width="15" stroke-linecap="round" stroke-linejoin="round" stroke-miterlimit="10" stroke-dasharray="none" stroke-opacity="" data-original="#000000"></path><path d="M0 0v-145.464a8.081 8.081 0 0 0-8.081-8.081h-16.163a8.081 8.081 0 0 0-8.081 8.081V0a8.081 8.081 0 0 0 8.081 8.081h16.163A8.081 8.081 0 0 0 0 0Z" style="stroke-width:15;stroke-linecap:round;stroke-linejoin:round;stroke-miterlimit:10;stroke-dasharray:none;stroke-opacity:1" transform="translate(39.825 357.017)" fill="none" stroke="#ffffff" stroke-width="15" stroke-linecap="round" stroke-linejoin="round" stroke-miterlimit="10" stroke-dasharray="none" stroke-opacity="" data-original="#000000"></path><path d="M0 0h-149.504a6.061 6.061 0 0 0-6.061 6.062v6.217a8.083 8.083 0 0 0 3.033 6.311l17.171 13.735h121.218L3.028 18.59a8.084 8.084 0 0 0 3.034-6.311V6.062A6.062 6.062 0 0 0 0 0Z" style="stroke-width:15;stroke-linecap:round;stroke-linejoin:round;stroke-miterlimit:10;stroke-dasharray:none;stroke-opacity:1" transform="translate(330.752 110.536)" fill="none" stroke="#ffffff" stroke-width="15" stroke-linecap="round" stroke-linejoin="round" stroke-miterlimit="10" stroke-dasharray="none" stroke-opacity="" data-original="#000000"></path><path d="M0 0v22.909" style="stroke-width:15;stroke-linecap:round;stroke-linejoin:round;stroke-miterlimit:10;stroke-dasharray:none;stroke-opacity:1" transform="translate(195.39 142.86)" fill="none" stroke="#ffffff" stroke-width="15" stroke-linecap="round" stroke-linejoin="round" stroke-miterlimit="10" stroke-dasharray="none" stroke-opacity="" data-original="#000000"></path><path d="M0 0v22.9" style="stroke-width:15;stroke-linecap:round;stroke-linejoin:round;stroke-miterlimit:10;stroke-dasharray:none;stroke-opacity:1" transform="translate(195.39 200.77)" fill="none" stroke="#ffffff" stroke-width="15" stroke-linecap="round" stroke-linejoin="round" stroke-miterlimit="10" stroke-dasharray="none" stroke-opacity="" data-original="#000000"></path><path d="M0 0v80.813" style="stroke-width:15;stroke-linecap:round;stroke-linejoin:round;stroke-miterlimit:10;stroke-dasharray:none;stroke-opacity:1" transform="translate(316.61 142.861)" fill="none" stroke="#ffffff" stroke-width="15" stroke-linecap="round" stroke-linejoin="round" stroke-miterlimit="10" stroke-dasharray="none" stroke-opacity="" data-original="#000000"></path><path d="M0 0v-121.22" style="stroke-width:15;stroke-linecap:round;stroke-linejoin:round;stroke-miterlimit:10;stroke-dasharray:none;stroke-opacity:1" transform="translate(256 344.894)" fill="none" stroke="#ffffff" stroke-width="15" stroke-linecap="round" stroke-linejoin="round" stroke-miterlimit="10" stroke-dasharray="none" stroke-opacity="" data-original="#000000"></path><path d="M0 0v121.22" style="stroke-width:15;stroke-linecap:round;stroke-linejoin:round;stroke-miterlimit:10;stroke-dasharray:none;stroke-opacity:1" transform="translate(377.22 223.675)" fill="none" stroke="#ffffff" stroke-width="15" stroke-linecap="round" stroke-linejoin="round" stroke-miterlimit="10" stroke-dasharray="none" stroke-opacity="" data-original="#000000"></path><path d="M0 0v121.22" style="stroke-width:15;stroke-linecap:round;stroke-linejoin:round;stroke-miterlimit:10;stroke-dasharray:none;stroke-opacity:1" transform="translate(134.78 223.675)" fill="none" stroke="#ffffff" stroke-width="15" stroke-linecap="round" stroke-linejoin="round" stroke-miterlimit="10" stroke-dasharray="none" stroke-opacity="" data-original="#000000"></path><path d="M0 0h-39.78" style="stroke-width:15;stroke-linecap:round;stroke-linejoin:round;stroke-miterlimit:10;stroke-dasharray:none;stroke-opacity:1" transform="translate(472.17 223.67)" fill="none" stroke="#ffffff" stroke-width="15" stroke-linecap="round" stroke-linejoin="round" stroke-miterlimit="10" stroke-dasharray="none" stroke-opacity="" data-original="#000000"></path><path d="M0 0h-357.56" style="stroke-width:15;stroke-linecap:round;stroke-linejoin:round;stroke-miterlimit:10;stroke-dasharray:none;stroke-opacity:1" transform="translate(397.39 223.67)" fill="none" stroke="#ffffff" stroke-width="15" stroke-linecap="round" stroke-linejoin="round" stroke-miterlimit="10" stroke-dasharray="none" stroke-opacity="" data-original="#000000"></path><path d="M0 0h-132.43" style="stroke-width:15;stroke-linecap:round;stroke-linejoin:round;stroke-miterlimit:10;stroke-dasharray:none;stroke-opacity:1" transform="translate(172.26 344.89)" fill="none" stroke="#ffffff" stroke-width="15" stroke-linecap="round" stroke-linejoin="round" stroke-miterlimit="10" stroke-dasharray="none" stroke-opacity="" data-original="#000000"></path><path d="M0 0h-264.91" style="stroke-width:15;stroke-linecap:round;stroke-linejoin:round;stroke-miterlimit:10;stroke-dasharray:none;stroke-opacity:1" transform="translate(472.17 344.89)" fill="none" stroke="#ffffff" stroke-width="15" stroke-linecap="round" stroke-linejoin="round" stroke-miterlimit="10" stroke-dasharray="none" stroke-opacity="" data-original="#000000"></path><path d="M0 0c0-6.261-8.081-6.261-8.081-12.521C-8.081-18.784 0-18.784 0-25.047c0-6.261-8.081-6.261-8.081-12.522C-8.081-43.834 0-43.834 0-50.1c0-6.264-8.081-6.264-8.081-12.53" style="stroke-width:15;stroke-linecap:round;stroke-linejoin:round;stroke-miterlimit:10;stroke-dasharray:none;stroke-opacity:1" transform="translate(322.386 70.13)" fill="none" stroke="#ffffff" stroke-width="15" stroke-linecap="round" stroke-linejoin="round" stroke-miterlimit="10" stroke-dasharray="none" stroke-opacity="" data-original="#000000"></path><path d="M0 0c0-6.261-8.082-6.261-8.082-12.521C-8.082-18.784 0-18.784 0-25.047c0-6.261-8.082-6.261-8.082-12.522C-8.082-43.834 0-43.834 0-50.1c0-6.264-8.082-6.264-8.082-12.53" style="stroke-width:15;stroke-linecap:round;stroke-linejoin:round;stroke-miterlimit:10;stroke-dasharray:none;stroke-opacity:1" transform="translate(260.041 70.13)" fill="none" stroke="#ffffff" stroke-width="15" stroke-linecap="round" stroke-linejoin="round" stroke-miterlimit="10" stroke-dasharray="none" stroke-opacity="" data-original="#000000"></path><path d="M0 0c0-6.261-8.081-6.261-8.081-12.521C-8.081-18.784 0-18.784 0-25.047c0-6.261-8.081-6.261-8.081-12.522C-8.081-43.834 0-43.834 0-50.1c0-6.264-8.081-6.264-8.081-12.53" style="stroke-width:15;stroke-linecap:round;stroke-linejoin:round;stroke-miterlimit:10;stroke-dasharray:none;stroke-opacity:1" transform="translate(197.695 70.13)" fill="none" stroke="#ffffff" stroke-width="15" stroke-linecap="round" stroke-linejoin="round" stroke-miterlimit="10" stroke-dasharray="none" stroke-opacity="" data-original="#000000"></path><path d="M0 0v16.162c0 8.927 7.236 16.163 16.163 16.163 8.926 0 16.162-7.236 16.162-16.163V0" style="stroke-width:15;stroke-linecap:round;stroke-linejoin:round;stroke-miterlimit:10;stroke-dasharray:none;stroke-opacity:1" transform="translate(361.057 344.894)" fill="none" stroke="#ffffff" stroke-width="15" stroke-linecap="round" stroke-linejoin="round" stroke-miterlimit="10" stroke-dasharray="none" stroke-opacity="" data-original="#000000"></path><path d="M0 0v127.28" style="stroke-width:15;stroke-linecap:round;stroke-linejoin:round;stroke-miterlimit:10;stroke-dasharray:none;stroke-opacity:1" transform="translate(134.78 377.22)" fill="none" stroke="#ffffff" stroke-width="15" stroke-linecap="round" stroke-linejoin="round" stroke-miterlimit="10" stroke-dasharray="none" stroke-opacity="" data-original="#000000"></path><path d="M0 0v127.28" style="stroke-width:15;stroke-linecap:round;stroke-linejoin:round;stroke-miterlimit:10;stroke-dasharray:none;stroke-opacity:1" transform="translate(377.22 377.22)" fill="none" stroke="#ffffff" stroke-width="15" stroke-linecap="round" stroke-linejoin="round" stroke-miterlimit="10" stroke-dasharray="none" stroke-opacity="" data-original="#000000"></path></g></g></svg>