<svg xmlns="http://www.w3.org/2000/svg" version="1.1" xmlns:xlink="http://www.w3.org/1999/xlink" xmlns:svgjs="http://svgjs.com/svgjs" width="512" height="512" x="0" y="0" viewBox="0 0 64 64" style="enable-background:new 0 0 512 512" xml:space="preserve"><g><path d="M62 1H8a7 7 0 0 0 0 14h48a1 1 0 0 1 0 2H8a7 7 0 0 0 0 14h48a1 1 0 0 1 0 2H8a7 7 0 0 0 0 14h48a1 1 0 0 1 0 2H8a7 7 0 0 0 0 14h54a1 1 0 0 0 1-1v-4a1 1 0 0 0-1-1H8a1 1 0 0 1 0-2h48a7 7 0 0 0 0-14H8a1 1 0 0 1 0-2h48a7 7 0 0 0 0-14H8a1 1 0 0 1 0-2h48a7 7 0 0 0 0-14H8a1 1 0 0 1 0-2h54a1 1 0 0 0 1-1V2a1 1 0 0 0-1-1zm-6 2v2H13V3zM13 13v-2h38v2zm38 6v2H13v-2zM13 29v-2h38v2zm38 6v2H13v-2zM13 45v-2h38v2zm38 6v2H13v-2zM13 61v-2h43v2zm48 0h-3v-2h3zM5 56a3 3 0 0 0 3 3h3v2H8a5 5 0 0 1 0-10h3v2H8a3 3 0 0 0-3 3zm56-8a5.006 5.006 0 0 1-5 5h-3v-2h3a3 3 0 0 0 0-6h-3v-2h3a5.006 5.006 0 0 1 5 5zM5 40a3 3 0 0 0 3 3h3v2H8a5 5 0 0 1 0-10h3v2H8a3 3 0 0 0-3 3zm56-8a5.006 5.006 0 0 1-5 5h-3v-2h3a3 3 0 0 0 0-6h-3v-2h3a5.006 5.006 0 0 1 5 5zM5 24a3 3 0 0 0 3 3h3v2H8a5 5 0 0 1 0-10h3v2H8a3 3 0 0 0-3 3zm56-8a5.006 5.006 0 0 1-5 5h-3v-2h3a3 3 0 0 0 0-6h-3v-2h3a5.006 5.006 0 0 1 5 5zM5 8a3 3 0 0 0 3 3h3v2H8A5 5 0 0 1 8 3h3v2H8a3 3 0 0 0-3 3zm56-3h-3V3h3z" fill="#ffffff" data-original="#000000" opacity="1"></path></g></svg>