<svg xmlns="http://www.w3.org/2000/svg" width="384.169" height="384.169" viewBox="0 0 384.169 384.169">
  <g id="Group_32" data-name="Group 32" transform="translate(-42.465 -540)">
    <g id="Group_28" data-name="Group 28" transform="translate(-54.972 18.126)">
      <g id="Group_31" data-name="Group 31" transform="translate(17 114)">
        <g id="Group_27" data-name="Group 27" transform="translate(80.437 407.875)">
          <path id="Path_7" data-name="Path 7" d="M312.138,384.169H72.032A72.027,72.027,0,0,1,0,312.138V72.032A72.027,72.027,0,0,1,72.032,0H312.138a72.027,72.027,0,0,1,72.032,72.032V312.138A72.027,72.027,0,0,1,312.138,384.169Z" fill="#e9f1f7"/>
        </g>
      </g>
    </g>
    <g id="parquet" transform="translate(141.388 639.838)">
      <path id="Path_19" data-name="Path 19" d="M183.01,186.323H3.313A3.313,3.313,0,0,1,0,183.01V3.313A3.313,3.313,0,0,1,3.313,0h179.7a3.313,3.313,0,0,1,3.313,3.313v179.7A3.313,3.313,0,0,1,183.01,186.323Zm-43.7-6.626H179.7V139.311l-37.461,37.461-.017.017-.017.017Zm-51.575,0h42.205l5.251-5.251-21.1-21.1L87.737,179.7Zm-48.152,0H78.366l57.6-57.6-19.39-19.39L55.414,163.868,39.585,179.7Zm-32.959,0H30.214l18.172-18.172L28.027,141.166l-21.4,21.4V179.7Zm112.148-31.04,21.1,21.1,39.82-39.82v-42.2l-36.7,36.7-24.218,24.217ZM32.713,136.479l20.358,20.359L154.685,55.225,134.326,34.866,94.489,74.7l-.009.008L32.713,136.479ZM6.626,108.685v44.508L25.65,134.169l.033-.033.033-.033L87.45,72.367,65.661,50.578ZM121.26,98.021l19.39,19.39L179.6,78.462l.1-.094V39.584L121.26,98.021ZM6.626,54.612V99.387L32.864,73.561,10.381,51.077Zm8.58-8.082L37.588,68.912,100.645,6.846H57.339Zm55.177-.6L92.137,67.682,153.194,6.626h-42.88l-39.931,39.3Zm68.627-15.748L159.37,50.54,179.7,30.213V6.626H162.565ZM6.626,6.626V45.51l1.239-1.166a3.507,3.507,0,0,1,.627-.59L47.906,6.626Z" fill="#0756fb"/>
    </g>
  </g>
</svg>
