<svg xmlns="http://www.w3.org/2000/svg" version="1.1" xmlns:xlink="http://www.w3.org/1999/xlink" xmlns:svgjs="http://svgjs.com/svgjs" width="512" height="512" x="0" y="0" viewBox="0 0 512 512" style="enable-background:new 0 0 512 512" xml:space="preserve"><g><path d="M352.505 134H337V67h3.263a20.5 20.5 0 0 0 0-41H171.737a20.5 20.5 0 0 0 0 41H175v67h-15.5a41.6 41.6 0 0 0-41.5 41.544v236.988a41.576 41.576 0 0 0 39 41.348v26.53a5.255 5.255 0 0 0 5.5 5.59h187a5.255 5.255 0 0 0 5.5-5.59v-26.53a41.576 41.576 0 0 0 39-41.348V175.544A41.6 41.6 0 0 0 352.505 134ZM171.737 55a8.5 8.5 0 0 1 0-17h168.526a8.5 8.5 0 0 1 0 17ZM325 67v67h-16V67Zm-52 33h-34a6.126 6.126 0 0 0-6 6.145V134h-18V67h82v67h-18v-27.855a6.126 6.126 0 0 0-6-6.145Zm-6 12v22h-22v-22Zm-64-45v67h-16V67Zm140 407H169v-20h174Zm39-61.468A29.524 29.524 0 0 1 352.505 442H159.5a29.524 29.524 0 0 1-29.5-29.468V358h56.631a95.93 95.93 0 0 0 139.957 0H382ZM382 229h-55.412a95.93 95.93 0 0 0-139.957 0H175a6 6 0 0 0 0 12h14.278a6.278 6.278 0 0 0 4.688-2.079 84.136 84.136 0 0 1 125.346.025 6.193 6.193 0 0 0 4.629 2.054H382v105h-58.059a5.929 5.929 0 0 0-4.49 1.945 84.026 84.026 0 0 1-125.682.019 5.95 5.95 0 0 0-4.491-1.964H130V241h5a6 6 0 0 0 0-12h-5v-53.456A29.589 29.589 0 0 1 159.5 146h193.01A29.589 29.589 0 0 1 382 175.544Z" fill="#ffffff" data-original="#000000" opacity="1"></path><path d="M208.5 157h-49a18.522 18.522 0 0 0-18.468 18.506 6 6 0 1 0 12-.009A6.5 6.5 0 0 1 159.5 169h49a6 6 0 0 0 0-12ZM238.5 157h-10a6 6 0 0 0 0 12h10a6 6 0 0 0 0-12ZM226.612 350.933a53.835 53.835 0 0 0 21.347 7.754 29.075 29.075 0 0 0 14.97-.022 54.074 54.074 0 0 0 30.662-91.777L259.6 232.9a6 6 0 0 0-7.577-.745 58.023 58.023 0 0 0-22.7 37.475l-3.416-3.247a6 6 0 0 0-8.377.106 54.5 54.5 0 0 0-16.01 39.041 53.364 53.364 0 0 0 15.908 38.128 54.343 54.343 0 0 0 9.184 7.275Zm41.05-8.368a17.339 17.339 0 0 1-7.061 4.286 40.038 40.038 0 0 1-10.305.02 16.643 16.643 0 0 1-6.826-4.119 17.091 17.091 0 0 1-1.226-22.6l13.617-17.419 13.367 17.2a17.171 17.171 0 0 1-1.566 22.632Zm-45.5-63.184 8.391 7.977a6 6 0 0 0 10.122-4.723 46.791 46.791 0 0 1 14.3-37.4l30.134 30.134a42.07 42.07 0 0 1 0 59.5c-.279.279-.572.542-.859.814a28.92 28.92 0 0 0-5.55-23.113l-18.09-23.263a5.983 5.983 0 0 0-4.727-2.307h-.008a5.991 5.991 0 0 0-4.728 2.294l-18.357 23.477a29.253 29.253 0 0 0-5.713 23.487 41.921 41.921 0 0 1-1.234-1.152 41.452 41.452 0 0 1-12.328-29.626 42.651 42.651 0 0 1 8.647-26.099Z" fill="#ffffff" data-original="#000000" opacity="1"></path></g></svg>