<svg xmlns="http://www.w3.org/2000/svg" version="1.1" xmlns:xlink="http://www.w3.org/1999/xlink" xmlns:svgjs="http://svgjs.com/svgjs" width="512" height="512" x="0" y="0" viewBox="0 0 480 480" style="enable-background:new 0 0 512 512" xml:space="preserve"><g><path d="M472 296c-13.255 0-24-10.745-24-24a8 8 0 0 0-16 0 24 24 0 0 1-16 22.528V56a8 8 0 0 0-8-8H72a8 8 0 0 0-8 8v118.528A24 24 0 0 1 48 152a8 8 0 0 0-16 0c0 13.255-10.745 24-24 24a8 8 0 0 0 0 16c13.255 0 24 10.745 24 24a8 8 0 0 0 16 0 24 24 0 0 1 16-22.528V424a8 8 0 0 0 8 8h336a8 8 0 0 0 8-8V313.472A24 24 0 0 1 432 336a8 8 0 0 0 16 0c0-13.255 10.745-24 24-24a8 8 0 0 0 0-16zM40 192a40.16 40.16 0 0 0-8-8 40.16 40.16 0 0 0 8-8 40.16 40.16 0 0 0 8 8 40.16 40.16 0 0 0-8 8zm360 176v48H235.312l58.344-58.344a8 8 0 0 0-.196-11.312 8 8 0 0 0-11.116 0L212.688 416h-25.376l106.344-106.344a8 8 0 0 0-.196-11.312 8 8 0 0 0-11.116 0L164.688 416H80V64h236.688l-58.344 58.344a8 8 0 0 0-.196 11.312 8 8 0 0 0 11.508 0L339.312 64h25.376L258.344 170.344a8 8 0 0 0-.196 11.312 8 8 0 0 0 11.508 0L387.312 64H400v304zm40-56a40.16 40.16 0 0 0-8-8 40.16 40.16 0 0 0 8-8 40.16 40.16 0 0 0 8 8 40.16 40.16 0 0 0-8 8z" fill="#ffffff" data-original="#000000" opacity="1"></path><path d="M392 360c-13.255 0-24-10.745-24-24a8 8 0 0 0-16 0c0 13.255-10.745 24-24 24a8 8 0 0 0 0 16c13.255 0 24 10.745 24 24a8 8 0 0 0 16 0c0-13.255 10.745-24 24-24a8 8 0 0 0 0-16zm-32 16a40.16 40.16 0 0 0-8-8 40.16 40.16 0 0 0 8-8 40.16 40.16 0 0 0 8 8 40.16 40.16 0 0 0-8 8zM152 112c-13.255 0-24-10.745-24-24a8 8 0 0 0-16 0c0 13.255-10.745 24-24 24a8 8 0 0 0 0 16c13.255 0 24 10.745 24 24a8 8 0 0 0 16 0c0-13.255 10.745-24 24-24a8 8 0 0 0 0-16zm-32 16a40.16 40.16 0 0 0-8-8 40.16 40.16 0 0 0 8-8 40.16 40.16 0 0 0 8 8 40.16 40.16 0 0 0-8 8z" fill="#ffffff" data-original="#000000" opacity="1"></path></g></svg>