<svg xmlns="http://www.w3.org/2000/svg" width="384.169" height="384.169" viewBox="0 0 384.169 384.169">
  <g id="Group_28" data-name="Group 28" transform="translate(-97.437 -521.874)">
    <g id="Group_31" data-name="Group 31" transform="translate(17 114)">
      <g id="Group_27" data-name="Group 27" transform="translate(80.437 407.875)">
        <path id="Path_7" data-name="Path 7" d="M312.138,384.169H72.032A72.027,72.027,0,0,1,0,312.138V72.032A72.027,72.027,0,0,1,72.032,0H312.138a72.027,72.027,0,0,1,72.032,72.032V312.138A72.027,72.027,0,0,1,312.138,384.169Z" fill="#e9f1f7"/>
      </g>
      <g id="glass" transform="translate(151.625 503.242)">
        <path id="Path_15" data-name="Path 15" d="M237.763,172.926a12.09,12.09,0,0,1-12.09-12.09,4.03,4.03,0,1,0-8.06,0,12.09,12.09,0,0,1-8.06,11.348V52.03a4.03,4.03,0,0,0-4.03-4.03H36.269a4.03,4.03,0,0,0-4.03,4.03v59.707a12.09,12.09,0,0,1-8.06-11.348,4.03,4.03,0,1,0-8.06,0,12.09,12.09,0,0,1-12.09,12.09,4.03,4.03,0,1,0,0,8.06,12.09,12.09,0,0,1,12.09,12.09,4.03,4.03,0,0,0,8.06,0,12.09,12.09,0,0,1,8.06-11.348V237.4a4.03,4.03,0,0,0,4.03,4.03H205.524a4.03,4.03,0,0,0,4.03-4.03V181.728a12.09,12.09,0,0,1,8.06,11.348,4.03,4.03,0,0,0,8.06,0,12.09,12.09,0,0,1,12.09-12.09,4.03,4.03,0,1,0,0-8.06ZM20.149,120.538a20.23,20.23,0,0,0-4.03-4.03,20.23,20.23,0,0,0,4.03-4.03,20.23,20.23,0,0,0,4.03,4.03,20.23,20.23,0,0,0-4.03,4.03ZM201.494,209.2v24.179H118.535l29.39-29.39a4.03,4.03,0,0,0-5.7-5.7l-35.088,35.088H94.356l53.569-53.569a4.03,4.03,0,0,0-5.7-5.7L82.959,233.375H40.3V56.06H159.527l-29.39,29.39a4.03,4.03,0,1,0,5.7,5.7L170.924,56.06h12.783l-53.569,53.569a4.03,4.03,0,1,0,5.7,5.7L195.1,56.06h6.391Zm20.149-28.209a20.231,20.231,0,0,0-4.03-4.03,20.23,20.23,0,0,0,4.03-4.03,20.23,20.23,0,0,0,4.03,4.03A20.232,20.232,0,0,0,221.644,180.986Z" transform="translate(0 -48)" fill="#0756fb"/>
        <path id="Path_16" data-name="Path 16" d="M237.165,221.046a12.09,12.09,0,0,1-12.09-12.09,4.03,4.03,0,1,0-8.06,0,12.09,12.09,0,0,1-12.09,12.09,4.03,4.03,0,0,0,0,8.06,12.09,12.09,0,0,1,12.09,12.09,4.03,4.03,0,1,0,8.06,0,12.09,12.09,0,0,1,12.09-12.09,4.03,4.03,0,1,0,0-8.06Zm-16.12,8.06a20.232,20.232,0,0,0-4.03-4.03,20.23,20.23,0,0,0,4.03-4.03,20.23,20.23,0,0,0,4.03,4.03A20.232,20.232,0,0,0,221.046,229.106ZM116.269,96.12a12.09,12.09,0,0,1-12.09-12.09,4.03,4.03,0,1,0-8.06,0A12.09,12.09,0,0,1,84.03,96.12a4.03,4.03,0,0,0,0,8.06,12.09,12.09,0,0,1,12.09,12.09,4.03,4.03,0,1,0,8.06,0,12.09,12.09,0,0,1,12.09-12.09,4.03,4.03,0,1,0,0-8.06Zm-16.12,8.06a20.23,20.23,0,0,0-4.03-4.03,20.23,20.23,0,0,0,4.03-4.03,20.23,20.23,0,0,0,4.03,4.03,20.23,20.23,0,0,0-4.03,4.03Z" transform="translate(-39.701 -63.88)" fill="#0756fb"/>
      </g>
    </g>
  </g>
</svg>
