<svg xmlns="http://www.w3.org/2000/svg" version="1.1" xmlns:xlink="http://www.w3.org/1999/xlink" xmlns:svgjs="http://svgjs.com/svgjs" width="512" height="512" x="0" y="0" viewBox="0 0 64 64" style="enable-background:new 0 0 512 512" xml:space="preserve"><g><path d="M63 36.999h-9.5V30h1.499c1.654 0 3-1.346 3-3V16.998c0-1.654-1.346-3-3-3h-8.003c-1.654 0-3 1.346-3 3v3.001h-8.998v-3.998c0-1.654-1.346-3-3-3h-3.999v-.188A2.994 2.994 0 0 0 30 9.997c0-1.654-1.346-3-3-3s-3 1.346-3 3c0 1.302.838 2.401 1.999 2.815V13h-4c-1.654 0-3 1.346-3 3v14.998H16v-1.996a1 1 0 0 0-1-1h-4V7.996a1 1 0 1 0-2 0v20.007H7V7.996a1 1 0 1 0-2 0v20.007H1a1 1 0 0 0-1 1v27.001a1 1 0 0 0 1 1h14a1 1 0 0 0 1-1V35.999h2.999v18.004c0 1.654 1.346 3 3 3h9.999c1.654 0 3-1.346 3-3V24.999h8.998V27c0 1.654 1.346 3 3 3H48.5v6.999h-9.502a1 1 0 0 0-1 1v18.003a1 1 0 0 0 1 1H63a1 1 0 0 0 1-1V37.999a1 1 0 0 0-1-1zM14 55.004H2v-4.002h12zm0-6.002H2v-8.997h1v6.999a1 1 0 0 0 1 1h8a1 1 0 0 0 1-1v-6.999h1zm-9-2.998v-5.999h6v5.999zm9-7.999h-1.995L12 38.004l-.005.001h-7.99L4 38.004l-.005.001H2v-8.002h12zm4.999-4.006H16v-1h2.999zM27 8.997a1 1 0 1 1 0 2 1 1 0 0 1 0-2zm5.998 45.006a1 1 0 0 1-1 1h-9.999a1 1 0 0 1-1-1V18.816c.314.112.647.185 1 .185h9.999c.353 0 .686-.072 1-.185zm-1-37.002h-9.999a1 1 0 0 1 0-2H26a.998.998 0 0 0 1.998 0h4a1 1 0 0 1 0 2zm11.998 5.998h-8.998v-1h8.998zm3 5.001a1 1 0 0 1-1-1V16.998a1 1 0 0 1 1-1h8.003a1 1 0 0 1 1 1V27a1 1 0 0 1-1 1zm-4.997 27.002h-2.001V42.999h2.001zm0-14.003h-2.001v-2h2.001zm3.999 14.003h-1.999V42.999h1.999zm0-14.003h-1.999v-2h1.999zm3.999 14.003h-1.999V42.999h1.999zm0-14.003h-1.999v-2h1.999zm1.503-4h-1V30h1zm2.496 18.003h-1.999V42.999h1.999zm0-14.003h-1.999v-2h1.999zM58 55.002h-2.004V42.999H58zm0-14.003h-2.004v-2H58zm4 14.003h-2V42.999h2zm0-14.003h-2v-2h2z" fill="#ffffff" data-original="#000000"></path></g></svg>