<svg xmlns="http://www.w3.org/2000/svg" width="880.126" height="131" viewBox="0 0 880.126 131">
  <g id="Group_2" data-name="Group 2" transform="translate(-466 -462)">
    <path id="Path_2" data-name="Path 2" d="M12.7,0Q7.8,0,7.8-4.8V-65.2q0-4.8,4.9-4.8h6.2q4.8,0,4.8,4.8v25.3H49.9V-65.2q0-4.8,4.8-4.8h6.2q4.8,0,4.8,4.8V-4.8Q65.7,0,60.9,0H54.7q-4.8,0-4.8-4.8V-27H23.7V-4.8Q23.7,0,18.9,0Zm91.2,0a5.385,5.385,0,0,1-5.5-3.9L77.1-64.5q-.9-2.5.15-4A4.145,4.145,0,0,1,80.9-70h6.8a5.16,5.16,0,0,1,5.4,4.1l14.1,45.2,14-45.2a5.16,5.16,0,0,1,5.4-4.1h6.7q2.7,0,3.75,1.5t.15,4L115.7-3.9A5.221,5.221,0,0,1,110.3,0Zm36.3,0q-2.7,0-3.7-1.5a4.348,4.348,0,0,1-.1-4l23.4-60.7a5.444,5.444,0,0,1,5.6-3.8h7.1a5.549,5.549,0,0,1,5.6,3.8L201.8-5.5a4.348,4.348,0,0,1-.1,4Q200.7,0,198,0h-6.5a5.549,5.549,0,0,1-5.6-3.8L182.4-13h-27L152-3.9A5.489,5.489,0,0,1,146.5,0Zm18.3-25.5h20.7L169-53.7ZM243.4,1.1q-17.3,0-27.85-10.5A34.751,34.751,0,0,1,205-35a34.751,34.751,0,0,1,10.55-25.6Q226.1-71.1,243.4-71.1a36.922,36.922,0,0,1,21.4,6.6q3.9,2.7,1,6.7l-2.5,3.1q-2.5,3.4-6.7.9a26.076,26.076,0,0,0-13.2-3.5q-10.2,0-16.35,6.4A22.05,22.05,0,0,0,220.9-35a22.05,22.05,0,0,0,6.15,15.9q6.15,6.4,16.35,6.4a26.076,26.076,0,0,0,13.2-3.5q4.2-2.5,6.7.9l2.5,3.1q2.8,4-.5,6.4A36.867,36.867,0,0,1,243.4,1.1Zm66-71.1q10.8,0,17,6.8a23.876,23.876,0,0,1,6.2,16.7q0,9.9-6.2,16.3t-17,6.4H294.1v19q0,4.8-4.8,4.8h-6.2q-4.9,0-4.9-4.8V-65.2q0-4.8,4.9-4.8Zm-2.1,33.6a8.657,8.657,0,0,0,6.7-2.85,10.206,10.206,0,0,0,2.6-7.15,10.527,10.527,0,0,0-2.6-7.3,8.587,8.587,0,0,0-6.7-2.9H294.1v20.2ZM385.6-6.7q-8.2,7.8-20.3,7.8T345-6.7a25.233,25.233,0,0,1-8.2-19,25.233,25.233,0,0,1,8.2-19q8.2-7.8,20.3-7.8t20.3,7.8a25.233,25.233,0,0,1,8.2,19A25.233,25.233,0,0,1,385.6-6.7Zm-30.1-8.8a13.163,13.163,0,0,0,9.8,4.1,13.163,13.163,0,0,0,9.8-4.1,13.9,13.9,0,0,0,4-10.1,14.028,14.028,0,0,0-4-10.2,13.163,13.163,0,0,0-9.8-4.1,13.117,13.117,0,0,0-9.85,4.1,14.124,14.124,0,0,0-3.95,10.2A13.9,13.9,0,0,0,355.5-15.5Zm92.9,8.8q-8.2,7.8-20.3,7.8T407.8-6.7a25.233,25.233,0,0,1-8.2-19,25.233,25.233,0,0,1,8.2-19q8.2-7.8,20.3-7.8t20.3,7.8a25.233,25.233,0,0,1,8.2,19A25.233,25.233,0,0,1,448.4-6.7Zm-30.1-8.8a13.163,13.163,0,0,0,9.8,4.1,13.163,13.163,0,0,0,9.8-4.1,13.9,13.9,0,0,0,4-10.1,14.028,14.028,0,0,0-4-10.2,13.163,13.163,0,0,0-9.8-4.1,13.117,13.117,0,0,0-9.85,4.1,14.124,14.124,0,0,0-3.95,10.2A13.9,13.9,0,0,0,418.3-15.5ZM470.7,0q-4.8,0-4.8-4.8V-67.5q0-4.8,4.8-4.8h5.8q4.9,0,4.9,4.8V-4.8q0,4.8-4.9,4.8Zm49.6,1.1q-13.4,0-21.5-7.6a24.972,24.972,0,0,1-8.1-19,26.189,26.189,0,0,1,7.8-19.1q7.8-7.9,20.4-7.9,11.4,0,19.1,6.65t8.2,18.55a3.514,3.514,0,0,1-1.25,3.15,5.794,5.794,0,0,1-3.65,1.05H505.5q-.2,4.8,4.25,8.4t11.55,3.6a22.918,22.918,0,0,0,11.4-3.1q4.1-2.3,6.8,1l1.1,1.4q3.3,4-.9,7.1Q531.7,1.1,520.3,1.1ZM505.9-31.7h25.8a10.051,10.051,0,0,0-4.55-6.95,15.231,15.231,0,0,0-8.05-2.15,15.929,15.929,0,0,0-8.3,2.2A10.7,10.7,0,0,0,505.9-31.7ZM559.8,0Q555,0,555-4.8V-46.6q0-4.8,4.8-4.8h5.5q4.8,0,4.8,4.8v6.4q1.1-6.3,5.15-9.3a13.626,13.626,0,0,1,8.15-3l1.7.1q2.9.2,2.9,4.1v7a4,4,0,0,1-.95,3,2.98,2.98,0,0,1-2.55.7q-1.8-.2-2.5-.2a10.236,10.236,0,0,0-8.3,3.9Q570.5-30,570.5-21V-4.8q0,4.8-4.8,4.8Zm70.9,1.1q-16.6,0-27.35-10.5A34.313,34.313,0,0,1,592.6-34.9a34.59,34.59,0,0,1,10.75-25.65Q614.1-71.1,630.3-71.1a41.1,41.1,0,0,1,21.2,5.4q4.1,2.6,1.2,6.7l-2.5,3.2q-2.4,3.4-6.7,1.4a28.727,28.727,0,0,0-13.2-2.9,20.773,20.773,0,0,0-15.55,6.45A21.9,21.9,0,0,0,608.5-35a22.346,22.346,0,0,0,6.05,15.8q6.05,6.5,16.45,6.5a25.729,25.729,0,0,0,12.2-2.8V-26.3H631.1q-4.9,0-4.9-4.8v-2.2q0-4.8,4.9-4.8h22.1q4.9,0,4.9,4.8v20.2A7.229,7.229,0,0,1,655-7,39.489,39.489,0,0,1,630.7,1.1ZM667.1,0q-2.7,0-3.7-1.5a4.348,4.348,0,0,1-.1-4l23.4-60.7a5.444,5.444,0,0,1,5.6-3.8h7.1a5.549,5.549,0,0,1,5.6,3.8L728.7-5.5a4.348,4.348,0,0,1-.1,4q-1,1.5-3.7,1.5h-6.5a5.549,5.549,0,0,1-5.6-3.8L709.3-13h-27l-3.4,9.1A5.489,5.489,0,0,1,673.4,0Zm18.3-25.5h20.7L695.9-53.7Z" transform="translate(617 561)"/>
    <g id="air" transform="translate(465.004 461)">
      <path id="Path_1" data-name="Path 1" d="M50.9,1c9.919,0,18.714,5.49,18.714,15.6.674,6.918-6.444,20.735-6.238,28.084a31.627,31.627,0,0,0,.7,6.407A16.358,16.358,0,0,1,67.4,50.93c6.731-20.536,16.774-31.215,30.286-31.215C114.4,19.714,132,36.139,132,50.9c0,9.919-5.49,18.714-15.6,18.714-7.448.561-20.611-6.444-28.084-6.238a31.629,31.629,0,0,0-6.407.7,16.839,16.839,0,0,1,.156,3.325c20.53,6.718,31.215,16.762,31.215,30.28,0,16.712-16.425,34.31-31.19,34.31-9.919,0-18.714-5.5-18.714-15.6-.487-7.841,6.444-20.5,6.238-28.084a31.627,31.627,0,0,0-.7-6.407,16.418,16.418,0,0,1-3.325.156c-6.718,20.536-16.762,31.215-30.28,31.215C18.594,113.286,1,96.861,1,82.1c0-9.919,5.5-18.714,15.6-18.714,7.841-.487,20.5,6.444,28.084,6.238a31.628,31.628,0,0,0,6.407-.7,16.4,16.4,0,0,1-.156-3.325C30.4,58.871,19.71,48.827,19.71,35.31,19.71,18.591,36.135,1,50.9,1M80.457,73.443A15.664,15.664,0,0,1,74.805,79.7a38.07,38.07,0,0,1,1.048,8.621c.674,6.924-6.444,20.735-6.238,28.084,0,5.883,5.564,9.357,12.476,9.357,11.229,0,24.952-14.709,24.952-28.071,0-10.168-8.59-18.3-26.587-24.247M16.591,69.619c-5.883,0-9.357,5.564-9.357,12.476,0,11.222,14.709,24.952,28.071,24.952,10.168,0,18.3-8.59,24.247-26.587A15.576,15.576,0,0,1,53.29,74.8a37.646,37.646,0,0,1-8.6,1.054c-6.924.674-20.742-6.444-28.09-6.238M66.5,57.143a9.36,9.36,0,1,0,.006,0M97.7,25.952c-10.168,0-18.309,8.59-24.254,26.574a15.735,15.735,0,0,1,6.263,5.67,37.625,37.625,0,0,1,8.615-1.06c6.924-.667,20.735,6.45,28.084,6.238,5.876,0,9.357-5.558,9.357-12.476,0-11.216-14.709-24.952-28.071-24.952M50.907,7.232c-11.222,0-24.952,14.716-24.952,28.071,0,10.168,8.59,18.309,26.581,24.254A15.634,15.634,0,0,1,58.2,53.294a37.647,37.647,0,0,1-1.054-8.615c-.674-6.924,6.444-20.735,6.238-28.084,0-5.883-5.564-9.357-12.476-9.357" transform="translate(0)" fill="#0756fb" fill-rule="evenodd"/>
    </g>
  </g>
</svg>
