<svg xmlns="http://www.w3.org/2000/svg" width="506.571" height="358.183" viewBox="0 0 506.571 358.183">
  <g id="OBJECTS" transform="translate(-346.715 -92.321)">
    <g id="Group_16" data-name="Group 16" transform="translate(-270.524 19)">
      <path id="Path_1" data-name="Path 1" d="M1093.957,431.5H630.3a8.818,8.818,0,0,1-8.818-8.818h0a8.818,8.818,0,0,1,8.818-8.818h463.654a8.818,8.818,0,0,1,8.817,8.818h0A8.818,8.818,0,0,1,1093.957,431.5Z" fill="#ebf1f7"/>
      <g id="Group_1" data-name="Group 1">
        <path id="Path_2" data-name="Path 2" d="M1123.195,303.717c-3.744,41.995-25.079,83.562-73.107,118.633H721.323C685.88,373,663.71,330.387,652.557,294.583c-27.865-89.538,13.216-136.461,87.959-139.573,104.626-4.342,117.7-86.155,210.482-81.5C1018.456,76.895,1133.209,191.84,1123.195,303.717Z" fill="#c8e0fc"/>
        <path id="Path_3" data-name="Path 3" d="M1123.195,303.717c-3.744,41.995-25.079,83.562-73.107,118.633H721.323C685.88,373,663.71,330.387,652.557,294.583h52.166v-99.7l54.738-4.139,17.468,23.648h22.542l17.468-55.009h32.173l6.992,7H893.08V137.26h37.2L951,201h63.455l15.257,34.394,34.259,5.627v92.8h28.677v-30.1Z" fill="#acceef"/>
      </g>
      <g id="Group_2" data-name="Group 2">
        <path id="Path_4" data-name="Path 4" d="M1042.813,188.41a43.829,43.829,0,0,1-39.8,16.9,18.619,18.619,0,0,0-16.96,7.069L891.343,336.03l-21.208-16.245,94.711-123.646a18.619,18.619,0,0,0,2.407-18.218,43.835,43.835,0,0,1,45.632-59.723l-21.871,28.553a22.392,22.392,0,0,0-2.9,22.2l.1.241a22.394,22.394,0,0,0,17.78,13.616l.252.033a22.392,22.392,0,0,0,20.677-8.588l21.873-28.555A43.793,43.793,0,0,1,1042.813,188.41Z" fill="#fff"/>
        <path id="Path_5" data-name="Path 5" d="M1042.814,188.412a43.822,43.822,0,0,1-39.8,16.9,18.611,18.611,0,0,0-16.96,7.07L891.344,336.025l-21.212-16.238.338-.44,14.886,11.4L980.07,207.1a18.585,18.585,0,0,1,16.949-7.07,43.822,43.822,0,0,0,48.366-49.877l3.406-4.444A43.778,43.778,0,0,1,1042.814,188.412Z" fill="#e6f3ff" opacity="0.53"/>
      </g>
      <g id="Group_11" data-name="Group 11">
        <rect id="Rectangle_2" data-name="Rectangle 2" width="15.977" height="49.366" transform="translate(1034.109 354.827)" fill="#3a3e47"/>
        <path id="Path_6" data-name="Path 6" d="M1034.108,244.153V411.4a10.944,10.944,0,0,1-10.938,10.95H785.364a10.945,10.945,0,0,1-10.939-10.95V244.153a10.945,10.945,0,0,1,10.939-10.95H1023.17A10.944,10.944,0,0,1,1034.108,244.153Z" fill="#e6f3ff"/>
        <circle id="Ellipse_1" data-name="Ellipse 1" cx="65.618" cy="65.618" r="65.618" transform="translate(790.088 261.129)" fill="#0aaced"/>
        <g id="Group_4" data-name="Group 4">
          <g id="Group_3" data-name="Group 3">
            <path id="Path_7" data-name="Path 7" d="M866.467,318.2a28.355,28.355,0,0,1-3.1,1.421s-16.115,16.5-10.984,0-9.991-24.764-17.761-34.756c-6.247-8.017,11.8-16.825,29.523-13.893a36.354,36.354,0,0,1,12.664,4.455C895.685,286.509,882.954,309.7,866.467,318.2Z" fill="#0d9dc9"/>
            <path id="Path_8" data-name="Path 8" d="M914.7,330.6a38.386,38.386,0,0,1-4.973,17.243c-11.762,20.061-37.191,4.443-44.183-13.431,0,0-1.612-1.579-3.326-3.586-3.767-4.421-8.018-10.939,3.326-7.409,16.5,5.131,24.753-9.991,34.744-17.761C907.616,299.962,915.6,314.52,914.7,330.6Z" fill="#0d9dc9"/>
          </g>
        </g>
        <g id="Group_6" data-name="Group 6">
          <g id="Group_5" data-name="Group 5">
            <path id="Path_9" data-name="Path 9" d="M834.61,378.065c-20.05-11.761-4.443-37.191,13.431-44.182,0,0,.879-.9,2.153-2.075,4.207-3.834,12.777-10.589,8.842,2.075-5.131,16.5,9.991,24.753,17.761,34.744S854.66,389.838,834.61,378.065Z" fill="#0d9dc9"/>
            <path id="Path_10" data-name="Path 10" d="M845.876,330.071c-16.5-5.131-24.764,9.992-34.756,17.761-9.269,7.217-19.576-17.986-11.649-37.676a33.42,33.42,0,0,1,2.211-4.51c11.773-20.051,37.2-4.444,44.194,13.442C845.876,319.088,862.373,335.2,845.876,330.071Z" fill="#0d9dc9"/>
          </g>
        </g>
        <path id="Path_11" data-name="Path 11" d="M834.61,378.065c-20.05-11.761-4.443-37.191,13.431-44.182,0,0,.879-.9,2.153-2.075l4.974,2.007,3.033,10.33C836.922,348,825.047,356.414,834.61,378.065Z" fill="#b81c4c" opacity="0.22" style="mix-blend-mode: color-burn;isolation: isolate"/>
        <path id="Path_12" data-name="Path 12" d="M845.876,319.088c-13.567-11.255-34.3-13.544-46.4-8.932a33.42,33.42,0,0,1,2.211-4.51C813.455,285.6,838.884,301.2,845.876,319.088Z" fill="#b81c4c" opacity="0.22" style="mix-blend-mode: color-burn;isolation: isolate"/>
        <path id="Path_13" data-name="Path 13" d="M866.467,318.2c10.86-15.934.9-38.06-2.323-47.228a36.354,36.354,0,0,1,12.664,4.455C895.685,286.509,882.954,309.7,866.467,318.2Z" fill="#b81c4c" opacity="0.22" style="mix-blend-mode: color-burn;isolation: isolate"/>
        <path id="Path_14" data-name="Path 14" d="M914.7,330.6a38.386,38.386,0,0,1-4.973,17.243c-11.762,20.061-37.191,4.443-44.183-13.431,0,0-1.612-1.579-3.326-3.586h1.06C872.94,345.171,900.816,327.726,914.7,330.6Z" fill="#b81c4c" opacity="0.22" style="mix-blend-mode: color-burn;isolation: isolate"/>
        <g id="Group_8" data-name="Group 8">
          <g id="Group_7" data-name="Group 7">
            <circle id="Ellipse_2" data-name="Ellipse 2" cx="11.712" cy="11.712" r="11.712" transform="translate(841.652 337.511) rotate(-76.718)" fill="#e9fbff"/>
          </g>
        </g>
        <g id="Group_9" data-name="Group 9">
          <path id="Path_15" data-name="Path 15" d="M790.088,246.169a3.133,3.133,0,1,1-3.133-3.133A3.133,3.133,0,0,1,790.088,246.169Z" fill="#0aaced"/>
          <path id="Path_16" data-name="Path 16" d="M1024.908,246.169a3.133,3.133,0,1,1-3.133-3.133A3.133,3.133,0,0,1,1024.908,246.169Z" fill="#0aaced"/>
          <path id="Path_17" data-name="Path 17" d="M790.088,407.326a3.133,3.133,0,1,1-3.133-3.133A3.133,3.133,0,0,1,790.088,407.326Z" fill="#0aaced"/>
          <path id="Path_18" data-name="Path 18" d="M1024.908,407.326a3.133,3.133,0,1,1-3.133-3.133A3.133,3.133,0,0,1,1024.908,407.326Z" fill="#0aaced"/>
        </g>
        <g id="Group_10" data-name="Group 10">
          <line id="Line_1" data-name="Line 1" x2="153.573" transform="translate(783.822 254.495)" fill="none" stroke="#fff" stroke-miterlimit="10" stroke-width="1.128"/>
          <line id="Line_2" data-name="Line 2" x2="153.573" transform="translate(783.822 276.146)" fill="none" stroke="#fff" stroke-miterlimit="10" stroke-width="1.128"/>
          <line id="Line_3" data-name="Line 3" x2="153.573" transform="translate(783.822 297.796)" fill="none" stroke="#fff" stroke-miterlimit="10" stroke-width="1.128"/>
          <line id="Line_4" data-name="Line 4" x2="153.573" transform="translate(783.822 319.446)" fill="none" stroke="#fff" stroke-miterlimit="10" stroke-width="1.128"/>
          <line id="Line_5" data-name="Line 5" x2="153.573" transform="translate(783.822 341.096)" fill="none" stroke="#fff" stroke-miterlimit="10" stroke-width="1.128"/>
          <line id="Line_6" data-name="Line 6" x2="153.573" transform="translate(783.822 362.746)" fill="none" stroke="#fff" stroke-miterlimit="10" stroke-width="1.128"/>
          <line id="Line_7" data-name="Line 7" x2="153.573" transform="translate(783.822 384.396)" fill="none" stroke="#fff" stroke-miterlimit="10" stroke-width="1.128"/>
          <line id="Line_8" data-name="Line 8" x2="153.573" transform="translate(783.822 406.046)" fill="none" stroke="#fff" stroke-miterlimit="10" stroke-width="1.128"/>
          <line id="Line_9" data-name="Line 9" y2="153.573" transform="translate(936.384 253.484)" fill="none" stroke="#fff" stroke-miterlimit="10" stroke-width="1.128"/>
          <line id="Line_10" data-name="Line 10" y2="153.573" transform="translate(914.734 253.484)" fill="none" stroke="#fff" stroke-miterlimit="10" stroke-width="1.128"/>
          <line id="Line_11" data-name="Line 11" y2="153.573" transform="translate(893.084 253.484)" fill="none" stroke="#fff" stroke-miterlimit="10" stroke-width="1.128"/>
          <line id="Line_12" data-name="Line 12" y2="153.573" transform="translate(871.434 253.484)" fill="none" stroke="#fff" stroke-miterlimit="10" stroke-width="1.128"/>
          <line id="Line_13" data-name="Line 13" y2="153.573" transform="translate(849.784 253.484)" fill="none" stroke="#fff" stroke-miterlimit="10" stroke-width="1.128"/>
          <line id="Line_14" data-name="Line 14" y2="153.573" transform="translate(828.134 253.484)" fill="none" stroke="#fff" stroke-miterlimit="10" stroke-width="1.128"/>
          <line id="Line_15" data-name="Line 15" y2="153.573" transform="translate(806.484 253.484)" fill="none" stroke="#fff" stroke-miterlimit="10" stroke-width="1.128"/>
          <line id="Line_16" data-name="Line 16" y2="153.573" transform="translate(784.834 253.484)" fill="none" stroke="#fff" stroke-miterlimit="10" stroke-width="1.128"/>
        </g>
        <path id="Rectangle_3" data-name="Rectangle 3" d="M5.412,0H49.545a5.412,5.412,0,0,1,5.412,5.412V146.137a5.413,5.413,0,0,1-5.413,5.413H5.412A5.412,5.412,0,0,1,0,146.138V5.412A5.412,5.412,0,0,1,5.412,0Z" transform="translate(950.996 254.495)" fill="#c8e0fc"/>
        <path id="Path_19" data-name="Path 19" d="M991.885,357.249H965.064a4.076,4.076,0,0,1-4.076-4.076h0a4.077,4.077,0,0,1,4.076-4.077h26.821a4.077,4.077,0,0,1,4.076,4.077h0A4.076,4.076,0,0,1,991.885,357.249Z" fill="#0aaced"/>
        <path id="Path_20" data-name="Path 20" d="M991.885,376.069H965.064a4.076,4.076,0,0,1-4.076-4.076h0a4.076,4.076,0,0,1,4.076-4.077h26.821a4.076,4.076,0,0,1,4.076,4.077h0A4.076,4.076,0,0,1,991.885,376.069Z" fill="#0aaced"/>
        <path id="Path_21" data-name="Path 21" d="M991.885,394.889H965.064a4.076,4.076,0,0,1-4.076-4.076h0a4.076,4.076,0,0,1,4.076-4.077h26.821a4.076,4.076,0,0,1,4.076,4.077h0A4.076,4.076,0,0,1,991.885,394.889Z" fill="#0aaced"/>
        <path id="Rectangle_4" data-name="Rectangle 4" d="M0,0H8.5a5.222,5.222,0,0,1,5.222,5.222V44.144A5.222,5.222,0,0,1,8.5,49.366H0a0,0,0,0,1,0,0V0A0,0,0,0,1,0,0Z" transform="translate(1034.109 261.129)" fill="#3a3e47"/>
        <path id="Rectangle_5" data-name="Rectangle 5" d="M7.517,0h6.361a0,0,0,0,1,0,0V15.034a0,0,0,0,1,0,0H7.517A7.517,7.517,0,0,1,0,7.517v0A7.517,7.517,0,0,1,7.517,0Z" transform="translate(1063.964 387.026) rotate(-180)" fill="#0aaced"/>
      </g>
      <g id="Group_12" data-name="Group 12">
        <rect id="Rectangle_6" data-name="Rectangle 6" width="93.817" height="49.232" transform="translate(836.461 183.563)" fill="#ce4e64"/>
        <rect id="Rectangle_7" data-name="Rectangle 7" width="93.817" height="49.232" transform="translate(812.59 183.563)" fill="#e46171"/>
        <path id="Path_22" data-name="Path 22" d="M906.407,206.6c-2.1,17.627-69.946,26.192-69.946,26.192h69.946Z" fill="#ce4e64" opacity="0.33"/>
        <line id="Line_17" data-name="Line 17" x2="117.687" transform="translate(812.59 200.042)" fill="none" stroke="#fff" stroke-miterlimit="10" stroke-width="1.128" opacity="0.2"/>
        <path id="Path_23" data-name="Path 23" d="M842.984,206.47h0a2.6,2.6,0,0,1-2.6-2.6v-7.665a2.6,2.6,0,0,1,2.6-2.6h0a2.6,2.6,0,0,1,2.595,2.6v7.665A2.6,2.6,0,0,1,842.984,206.47Z" fill="#fff"/>
        <path id="Path_24" data-name="Path 24" d="M874.029,206.47h0a2.6,2.6,0,0,1-2.595-2.6v-7.665a2.6,2.6,0,0,1,2.595-2.6h0a2.6,2.6,0,0,1,2.6,2.6v7.665A2.6,2.6,0,0,1,874.029,206.47Z" fill="#fff"/>
        <rect id="Rectangle_8" data-name="Rectangle 8" width="11.03" height="5.474" transform="translate(837.469 216.218)" fill="#3a3e47"/>
        <rect id="Rectangle_9" data-name="Rectangle 9" width="11.03" height="5.474" transform="translate(868.514 216.218)" fill="#3a3e47"/>
      </g>
      <path id="Path_25" data-name="Path 25" d="M844.03,422.35H785.364a10.945,10.945,0,0,1-10.939-10.95V327.771c38.06,0,41.477,23.151,38,48.3s20.163,25.238,31.6,32.263S844.03,422.35,844.03,422.35Z" fill="#6d3046" opacity="0.22" style="mix-blend-mode: color-burn;isolation: isolate"/>
      <g id="Group_15" data-name="Group 15">
        <path id="Path_26" data-name="Path 26" d="M674.587,405.223c-8.44.785-26.5,8.636-26.5,8.636v6.673h28.656Z" fill="#f9ac94"/>
        <path id="Path_27" data-name="Path 27" d="M776.926,383.582c.785,8.44,8.636,26.5,8.636,26.5h6.673V381.423Z" fill="#f9ac94"/>
        <path id="Path_28" data-name="Path 28" d="M650.425,420.533H617.982a.726.726,0,0,1-.733-.643.694.694,0,0,1,.35-.733,48.862,48.862,0,0,0,9.1-7.07c5.492-5.492,8.435-4.511,12.754,0a7.155,7.155,0,0,0,4.793,2.21c1.522-2.413,3.541-3.5,4.905-2.357a2.991,2.991,0,0,1,.835,1.151C650.268,412.967,650.425,420.533,650.425,420.533Z" fill="#a85b4c"/>
        <path id="Path_29" data-name="Path 29" d="M812.812,422.337h-32.94s.034-5.965,2.368-10.273c-4.217-3.529-.53-6.585-.53-6.585H794.1v4.6a19.782,19.782,0,0,0,13.024,4.882C815.18,414.962,812.812,422.337,812.812,422.337Z" fill="#a85b4c"/>
        <g id="Group_14" data-name="Group 14">
          <path id="Path_30" data-name="Path 30" d="M708.673,210.921c-3.471,7.665,4.44,14.873,4.313,15.491s6.571-8.5,6.571-8.5l-.7-4.064-6.7-5.2Z" fill="#231d1f"/>
          <path id="Path_31" data-name="Path 31" d="M741.12,205.931c2.421,4.584.346,8.942-2.018,9.132s-6.164-9.132-6.164-9.132l7.778-.8Z" fill="#231d1f"/>
          <path id="Path_32" data-name="Path 32" d="M739.977,216.278c1.538,3.3,5.556,5.682.03,7.59S738.251,219,738.251,219Z" fill="#e27c6a"/>
          <path id="Path_33" data-name="Path 33" d="M723.439,229.626l-2.072,9.633-10.1-4.529,3.441-16.685,10.91,3.728Z" fill="#ea907a"/>
          <path id="Path_34" data-name="Path 34" d="M738.393,206.517c2.9,13.292,1.792,24.459-1.183,26.1s-18.248,3.367-21.371-9.7l.24-1.418-.606-12.869,14.414-1.356Z" fill="#f9ac94"/>
          <path id="Path_35" data-name="Path 35" d="M735.286,205.931c-3.717,8.888-2.826,5.37-7.576,8.462s-3.809-.691-6.5,1.885-6.568-7.852-6.568-7.852l14.1-2.495Z" fill="#231d1f"/>
          <g id="Group_13" data-name="Group 13">
            <path id="Path_36" data-name="Path 36" d="M741.655,204.74l-12.867,2.413-20.118,3.766s-5.751-15.234,5.571-19.937a15.507,15.507,0,0,1,2.447-.789C731.235,186.765,738.1,192.369,741.655,204.74Z" fill="#e46171"/>
            <path id="Path_37" data-name="Path 37" d="M732.938,205.935s-1.6.474-4.15,1.218l-20.118,3.766s-5.751-15.234,5.571-19.937C712.347,204.616,732.938,205.935,732.938,205.935Z" fill="#ce5166"/>
            <path id="Path_38" data-name="Path 38" d="M707.986,210.921l42.282-5.764v-2.874l-43.055,6.237Z" fill="#f28b9c"/>
          </g>
          <path id="Path_39" data-name="Path 39" d="M718.832,221.948c-7.288-3.6-10.656-8.19-8.423-11.59s6.188-3.055,8.193,2.685S718.832,221.948,718.832,221.948Z" fill="#f9ac94"/>
          <path id="Path_40" data-name="Path 40" d="M736.777,214.374c.032,1.222-.276,2.222-.687,2.232s-.77-.971-.8-2.194.276-2.222.687-2.232S736.745,213.151,736.777,214.374Z" fill="#201e21"/>
          <path id="Path_41" data-name="Path 41" d="M732.938,225.24c-2.318-.667-5.006-4.707-5.006-4.707s-1.36,6.744,2.643,7.795Z" fill="#fff"/>
          <path id="Path_42" data-name="Path 42" d="M716.772,213.484c-.957-3.451-3.175-2.078-3.261-.576s3.375,5,3.375,5Z" fill="#201e21" opacity="0.43" style="mix-blend-mode: overlay;isolation: isolate"/>
        </g>
        <path id="Path_43" data-name="Path 43" d="M733.975,293.545v.045c-.022,1.917-.056,3.09-.056,3.09s-1.477,2.673-3.394,6.067c-.034.068-.079.146-.124.225-3.293,5.842-7.77,13.679-8.266,13.927-.778.4-21.584,3.146-21.584,3.146s.586,24.336-4.522-17.625c-.045-.384-.09-.756-.135-1.139a160.948,160.948,0,0,1-1.094-20.468c.349-27.064,8.322-39.8,8.322-39.8l2.526-6.36s19.238,3.338,19.971,2.819v8.379s3.192,11.965,6.135,18.641a22.705,22.705,0,0,1,1.342,5.83c.022.158.045.327.068.5A189.678,189.678,0,0,1,733.975,293.545Z" fill="#efefef"/>
        <path id="Path_44" data-name="Path 44" d="M735.092,330.837s-37.484,1.376-43.371,0,.192-8.829,0-13.351-.857-27.505,3.068-36.718c0,.012.011.034.011.045,3.71,11.83,14.84,17.761,24.685,14.908.113-.033.214-.067.327-.1,5.2-1.6,10.014-5.7,13.126-12.7l1.037,10.623v.045l.034.35s.1,5.83.451,12.393l.034.575c.384,7.285,1.049,15.291,2.165,17.163C738.825,327.691,735.092,330.837,735.092,330.837Z" fill="#0aaced"/>
        <path id="Path_45" data-name="Path 45" d="M734.46,306.333a20.362,20.362,0,0,0-3.619-3.361,3.276,3.276,0,0,0-.316-.225,29.349,29.349,0,0,0-4.466-2.673,26.589,26.589,0,0,1-6.134-4.353c-.034-.033-.079-.067-.113-.1-7.319-6.823-14.66-19.577-15.63-38.127l11.728-4.128L733.1,270.326c.022.158.045.327.068.5a189.678,189.678,0,0,1,.811,22.723v.045l.034.35S734.111,299.77,734.46,306.333Z" fill="#b81c4c" opacity="0.22" style="mix-blend-mode: color-burn;isolation: isolate"/>
        <path id="Path_46" data-name="Path 46" d="M818.022,273.675c.428-.124.744-.068.879.271.587,1.545-1.567,6.845-12.957,8.6a41.927,41.927,0,0,0-8.886,2.4l-.023.011a.452.452,0,0,1-.078.034c-1.049.395-2.087.823-3.147,1.3-.158.068-.338.135-.507.2a151.666,151.666,0,0,1-22.486,8.514c-19.43,5.6-23.264,12.664-43.032-4.8-.621-.541-1.185-1.06-1.7-1.556-13.341-12.766,4.883-9.8,11.558-8.4,1.387.294,2.278.519,2.278.519l5.515,3.722s22.125-7.308,40.19-8.03,18.088-10.476,21.505-12.291,1.635,2.537,0,5.063,8.661-7.8,10.409-5.48a1.906,1.906,0,0,1,.113,2.323c1.308-.993,2.8-1.9,3.4-1.388.8.655-1.522,3.632-3.124,5.5.576-.452,1.218-.7,1.726-.2C820.266,270.585,819.364,272.186,818.022,273.675Z" fill="#f9ac94"/>
        <path id="Path_47" data-name="Path 47" d="M793.3,286.5a151.666,151.666,0,0,1-22.486,8.514c-19.43,5.6-23.264,12.664-43.032-4.8-.621-.541-1.185-1.06-1.7-1.556-.3-.8-.463-1.274-.463-1.274l7.319-4.455,4.7-2.673c1.387.294,2.278.519,2.278.519l5.515,3.722c-6.383,8.536-5.515,11.953,4.838,12.934s22.8-4.341,30.289-6.473C785,289.688,789.987,287.816,793.3,286.5Z" fill="#b81c4c" opacity="0.22" style="mix-blend-mode: color-burn;isolation: isolate"/>
        <path id="Path_48" data-name="Path 48" d="M706.209,244.106s7.982-9.358,17.861,4.512,18.762,33.027,18.762,33.027L727.71,295.011S692.753,258.425,706.209,244.106Z" fill="#efefef"/>
        <path id="Path_49" data-name="Path 49" d="M692.5,329.658c-3.14,3.926,0,10.206,0,10.206h42.984s4.907-7.458-.392-9.028S692.5,329.658,692.5,329.658Z" fill="#231d1f"/>
        <path id="Path_50" data-name="Path 50" d="M724.018,405.614c-.259,10.093-1.782,15.72-11.13,16.611a34.69,34.69,0,0,1-4.669.079c-13.543-.6-42.987-1.184-42.987-1.184V403.426c11.39-1.962,32.973-2.717,32.973-2.717a149.867,149.867,0,0,1-5.683-43.574,23.7,23.7,0,0,1,1.985-9.574c5.8-12.36,22.632-8.447,28.9-5.345l.609,6.935s.011,2.131.034,5.593c.022,4.432.056,11.029.079,18.088C724.165,385.552,724.165,399.8,724.018,405.614Z" fill="#0c90ea"/>
        <path id="Path_51" data-name="Path 51" d="M712.888,422.225a34.69,34.69,0,0,1-4.669.079c-13.543-.6-42.987-1.184-42.987-1.184V403.426c11.39-1.962,32.973-2.717,32.973-2.717a149.867,149.867,0,0,1-5.683-43.574,23.7,23.7,0,0,1,1.985-9.574l6.157-1.838,23.388,9.021c.022,4.432.056,11.029.079,18.088-13.758,5.763-19.644,2.718-23.682,11.559-4.127,9.067-1.432,16.374,3.733,19.035s-20.975-.361-27.436,6.8C672.111,415.357,697.935,420,712.888,422.225Z" fill="#b81c4c" opacity="0.22" style="mix-blend-mode: color-burn;isolation: isolate"/>
        <path id="Path_52" data-name="Path 52" d="M796.506,393.435h-21.6c-1.962-11.378-.372-29.816-.372-29.816s-44.16,6.27-67.706,5.684-18.652-23.355-14.919-30.888l11.592-.225,19.476-.384s44.893-.293,56.474,0,17.265,2.256,16.678,15.8S796.506,393.435,796.506,393.435Z" fill="#0aaced"/>
        <path id="Path_53" data-name="Path 53" d="M792.254,393.435H774.91c-1.962-11.378-.372-29.816-.372-29.816s-44.16,6.27-67.706,5.684-18.652-23.355-14.919-30.888l11.592-.225,7.77,2.041,10.037,5.492c-1.117,13.058-.993,19.655,21.516,15.483s32.928-.361,39.875-3.778.112,6.947-2.831,16.543C777.132,382.9,784.552,392.747,792.254,393.435Z" fill="#b81c4c" opacity="0.22" style="mix-blend-mode: color-burn;isolation: isolate"/>
        <path id="Path_54" data-name="Path 54" d="M721.312,329.777v18.754a8.773,8.773,0,0,1-.339,2.447,8.9,8.9,0,0,1-8.559,6.45h-12.4a8.9,8.9,0,0,1-8.909-8.9V329.777a8.913,8.913,0,0,1,8.909-8.908h12.4A8.9,8.9,0,0,1,721.312,329.777Z" fill="#a85b4c"/>
        <path id="Path_55" data-name="Path 55" d="M794.949,393.435h-.958A3.78,3.78,0,0,1,794.949,393.435Z" fill="#b81c4c"/>
        <path id="Path_56" data-name="Path 56" d="M704.725,337.234a1.6,1.6,0,1,1-1.6-1.6A1.6,1.6,0,0,1,704.725,337.234Z" fill="#fff"/>
        <path id="Path_57" data-name="Path 57" d="M720.973,350.978a8.9,8.9,0,0,1-8.559,6.45h-12.4a8.9,8.9,0,0,1-8.909-8.9V329.777a8.913,8.913,0,0,1,8.909-8.908h3.112c-7.668,2.379-7.307,19.52-5.458,20.129s14.491,0,14.491,0a31.238,31.238,0,0,1-9.619,2.842c-6.022.868-6.056,10.1,3.676,10.1A38.85,38.85,0,0,0,720.973,350.978Z" fill="#b81c4c" opacity="0.22" style="mix-blend-mode: color-burn;isolation: isolate"/>
        <path id="Path_58" data-name="Path 58" d="M692.341,327.063c-1,12.919.289,14.038,8.441,14.038s16.732,1.79,16.732-2.911-1.412-12.127,3.048-12" fill="none" stroke="#bc7268" stroke-linecap="round" stroke-miterlimit="10" stroke-width="1.128"/>
        <path id="Path_59" data-name="Path 59" d="M649.151,411.94c-2.413-.124-4.747,4.985-4.747,4.985s-7.24-5.143-12.473-4.985c-3.405.091-5.863,5.109-7.16,8.593h-6.462l-1.06-.643a.694.694,0,0,1,.35-.733,48.862,48.862,0,0,0,9.1-7.07c5.492-5.492,8.435-4.511,12.754,0a7.155,7.155,0,0,0,4.793,2.21C645.768,411.884,647.787,410.8,649.151,411.94Z" fill="#b81c4c" opacity="0.22" style="mix-blend-mode: color-burn;isolation: isolate"/>
        <path id="Path_60" data-name="Path 60" d="M779.872,422.337s.034-5.965,2.368-10.273c-4.217-3.529-.53-6.585-.53-6.585h6.507c-3.789,3.631.271,6.935.271,6.935s-18.37,8.412,18.392,9.923Z" fill="#b81c4c" opacity="0.22" style="mix-blend-mode: color-burn;isolation: isolate"/>
      </g>
    </g>
  </g>
</svg>
