<svg xmlns="http://www.w3.org/2000/svg" version="1.1" xmlns:xlink="http://www.w3.org/1999/xlink" xmlns:svgjs="http://svgjs.com/svgjs" width="512" height="512" x="0" y="0" viewBox="0 0 511.939 511.939" style="enable-background:new 0 0 512 512" xml:space="preserve" class=""><g><path d="M424.303 39.937h-6.667v-30c-.492-13.254-19.512-13.244-20 0v30h-86.667v-30c-.492-13.254-19.512-13.244-20 0v30h-6.666c-5.522 0-10 4.478-10 10v70c0 5.522 4.478 10 10 10h6.666v41c-2.186 57.424-84.501 57.38-86.666 0v-161c-.492-13.254-19.512-13.244-20 0v161c3.194 83.927 123.502 83.863 126.666 0v-41h86.667v41c0 79.762-62.58 145.184-141.219 149.746l-2.188-17.28 25.601-26.043c3.872-3.938 3.818-10.271-.12-14.142-3.939-3.874-10.271-3.818-14.142.12L243.87 285.41l-15.376-16.401c-3.777-4.028-10.106-4.233-14.136-.456-4.028 3.778-4.232 10.106-.456 14.136l20.282 21.635 2.049 16.184c-77.405-5.844-138.599-70.696-138.599-149.571v-161c-.492-13.254-19.512-13.244-20 0v161c8.574 225.276 331.507 225.104 340 0v-41h6.667c5.522 0 10-4.478 10-10v-70c.002-5.523-4.476-10-9.998-10zm-130 70v-50h25v15c.492 13.254 19.512 13.244 20 0v-15h29.999v15c.492 13.254 19.512 13.244 20 0v-15h25.001v50z" fill="#ffffff" data-original="#000000" class=""></path><path d="M255.174 363.164c-3.768-4.529-11.309-4.528-15.076 0-1.387 1.591-2.874 3.278-4.435 5.05-19.125 21.701-48.027 54.497-48.027 83.725 0 33.084 26.916 60 60 60s60-26.916 60-60c0-29.23-28.904-62.027-48.031-83.729a1409.48 1409.48 0 0 1-4.431-5.046zm-7.538 128.775c-22.056 0-40-17.944-40-40 0-20.361 23.776-48.573 40-67.057 16.225 18.484 40 46.694 40 67.057 0 22.055-17.945 40-40 40zM162.387 383.149l-26.182 19.892c-4.397 3.342-5.254 9.615-1.913 14.013 3.36 4.422 9.653 5.235 14.013 1.913l26.182-19.892c4.397-3.342 5.254-9.615 1.913-14.013-3.341-4.395-9.614-5.254-14.013-1.913zM158.294 352.349a9.999 9.999 0 0 0-12.056-7.394l-27.45 6.579c-5.37 1.287-8.681 6.685-7.394 12.056 1.266 5.411 6.826 8.69 12.056 7.394l27.45-6.579c5.371-1.288 8.681-6.685 7.394-12.056zM359.066 403.041l-26.181-19.892c-4.398-3.342-10.672-2.483-14.013 1.913-3.341 4.397-2.484 10.671 1.913 14.013l26.181 19.892c4.359 3.322 10.653 2.509 14.013-1.913 3.341-4.398 2.485-10.671-1.913-14.013zM376.483 351.534l-27.45-6.579a9.996 9.996 0 0 0-12.056 7.394c-1.287 5.371 2.023 10.769 7.394 12.056l27.45 6.579c5.23 1.296 10.79-1.982 12.056-7.394 1.287-5.371-2.023-10.769-7.394-12.056z" fill="#ffffff" data-original="#000000" class=""></path></g></svg>