<svg xmlns="http://www.w3.org/2000/svg" version="1.1" xmlns:xlink="http://www.w3.org/1999/xlink" xmlns:svgjs="http://svgjs.com/svgjs" width="512" height="512" x="0" y="0" viewBox="0 0 489 489.546" style="enable-background:new 0 0 512 512" xml:space="preserve"><g><path d="m447.09 188.012-42.113-4.059a179.489 179.489 0 0 0-21.383-50.793l26.844-32.406a7.995 7.995 0 0 0-.5-10.758l-45.551-45.555a7.999 7.999 0 0 0-10.758-.5l-32.43 26.852a184.616 184.616 0 0 0-50.77-21.39L266.368 7.23A8 8 0 0 0 258.402 0h-62.254a7.996 7.996 0 0 0-7.96 7.23l-4.067 42.172a184.497 184.497 0 0 0-50.77 21.391l-32.43-26.86a8 8 0 0 0-10.757.5l-45.55 45.56a8 8 0 0 0-.5 10.76l26.835 32.403a179.415 179.415 0 0 0-21.398 50.801L7.46 188.02a7.958 7.958 0 0 0-7.188 7.96v64.579a7.954 7.954 0 0 0 7.184 7.96l42.14 4.063a184.507 184.507 0 0 0 21.376 50.77l-26.864 32.425a8.002 8.002 0 0 0 .86 11.098l34.55 30.559a8.002 8.002 0 0 0 6.25 1.953 8.015 8.015 0 0 0 5.614-3.371l49.656-71.25a8.005 8.005 0 0 0-.91-10.235c-47.64-47.64-47.645-124.886 0-172.531 47.644-47.645 124.89-47.645 172.535 0 47.645 47.645 47.645 124.89 0 172.531a8 8 0 0 0-.832 10.34l51.402 71.246a7.997 7.997 0 0 0 11.785 1.313l34.563-30.547a8.003 8.003 0 0 0 .86-11.102l-26.856-32.43a184.487 184.487 0 0 0 21.387-50.769l42.117-4.062a7.954 7.954 0 0 0 7.183-7.961v-64.586a7.957 7.957 0 0 0-7.183-7.961zm-8.817 65.277-40.574 3.914a7.968 7.968 0 0 0-7.02 6.235 168.714 168.714 0 0 1-23.66 56.167 8 8 0 0 0 .536 9.485l25.625 30.933-22.137 19.57-42.352-58.702c49.04-54.098 47.47-138.024-4.714-190.207-53.805-53.805-141.356-53.805-195.16 0-52.212 52.21-53.754 136.199-4.641 190.289L83.39 379.496 61.367 360.02l25.621-30.934a8.006 8.006 0 0 0 .532-9.488 168.878 168.878 0 0 1-23.68-56.16 7.942 7.942 0 0 0-6.992-6.235l-40.575-3.914v-50.043l40.575-3.918a7.966 7.966 0 0 0 7.027-6.273 163.778 163.778 0 0 1 23.637-56.082 8.005 8.005 0 0 0-.516-9.524L61.078 96.156l35.25-35.254 31.293 25.914a7.988 7.988 0 0 0 9.484.532 168.789 168.789 0 0 1 56.16-23.676 7.999 7.999 0 0 0 6.235-7.043l3.914-40.625h47.723l3.918 40.625a8 8 0 0 0 6.23 7.043 168.783 168.783 0 0 1 56.164 23.68 7.988 7.988 0 0 0 9.485-.532l31.289-25.914 35.25 35.25-25.914 31.293a8.004 8.004 0 0 0-.508 9.52 163.814 163.814 0 0 1 23.644 56.086 7.935 7.935 0 0 0 7 6.273l40.578 3.914zm0 0" fill="#ffffff" data-original="#000000"></path><path d="M255.172 369.05V247.579c20.164-11.644 33.402-33.75 33.402-56.531 0-31.129-17.8-53.8-47.617-60.64a8.005 8.005 0 0 0-7.016 1.734 8.022 8.022 0 0 0-2.754 6.683l2.645 33.95a22.97 22.97 0 0 1-21.332.007l2.844-34.136a7.996 7.996 0 0 0-2.907-6.856 7.994 7.994 0 0 0-7.292-1.492c-27.27 7.898-44.258 31.351-44.258 61.215 0 27.41 14.383 49.582 38.383 59.191v121.004c-17 10.035-33.38 30.398-33.122 56.309 0 30.875 17.602 53.699 47.032 61.062a8.015 8.015 0 0 0 9.937-8.379l-2.633-33.945a22.982 22.982 0 0 1 21.332-.012l-2.843 34.14a7.996 7.996 0 0 0 2.906 6.856 7.994 7.994 0 0 0 7.293 1.492c27.137-7.863 44.16-31.199 44.433-60.988.004-27.414-14.566-49.582-38.433-59.191zm.855 99.852 2.13-25.582a8 8 0 0 0-3.122-7.027l-.3-.23c-14.087-10.692-33.602-10.563-47.544.312a8.003 8.003 0 0 0-3.02 6.902l2.044 26.317c-15.403-7.676-24.016-22.34-24.016-41.656-.207-21.047 14.613-37.637 28.516-44.153a7.953 7.953 0 0 0 4.558-7.246V245.035a7.962 7.962 0 0 0-5.64-7.66c-20.2-6.098-32.719-23.672-32.719-45.871 0-17.879 7.953-32.66 21.363-40.887l-2.12 25.582a7.99 7.99 0 0 0 3.132 7.031l.297.227c14.066 10.688 33.562 10.574 47.5-.273l.215-.172a8.01 8.01 0 0 0 2.855-6.77l-2.07-26.597c15.71 7.363 24.496 21.96 24.496 41.406 0 18.125-11.855 36.414-28.832 44.476a7.998 7.998 0 0 0-4.566 7.227v131.96a8 8 0 0 0 5.687 7.657c20.203 6.102 32.746 23.676 32.746 45.8-.172 17.802-8.191 32.532-21.586 40.731zm0 0" fill="#ffffff" data-original="#000000"></path></g></svg>