<svg xmlns="http://www.w3.org/2000/svg" version="1.1" xmlns:xlink="http://www.w3.org/1999/xlink" xmlns:svgjs="http://svgjs.com/svgjs" width="512" height="512" x="0" y="0" viewBox="0 0 682.667 682.667" style="enable-background:new 0 0 512 512" xml:space="preserve"><g><defs><clipPath id="a" clipPathUnits="userSpaceOnUse"><path d="M0 512h512V0H0Z" fill="#0756FB" data-original="#000000"></path></clipPath></defs><g clip-path="url(#a)" transform="matrix(1.33333 0 0 -1.33333 0 682.667)"><path d="M0 0c0-82.843-67.157-150-150-150S-300-82.843-300 0s67.157 150 150 150S0 82.843 0 0Z" style="stroke-width:30;stroke-linecap:round;stroke-linejoin:round;stroke-miterlimit:10;stroke-dasharray:none;stroke-opacity:1" transform="translate(406 256)" fill="none" stroke="#0756FB" stroke-width="30" stroke-linecap="round" stroke-linejoin="round" stroke-miterlimit="10" stroke-dasharray="none" stroke-opacity="" data-original="#000000"></path><path d="m0 0-90-90-60 60" style="stroke-width:30;stroke-linecap:round;stroke-linejoin:round;stroke-miterlimit:10;stroke-dasharray:none;stroke-opacity:1" transform="translate(331 301)" fill="none" stroke="#0756FB" stroke-width="30" stroke-linecap="round" stroke-linejoin="round" stroke-miterlimit="10" stroke-dasharray="none" stroke-opacity="" data-original="#000000"></path><path d="M0 0c11.212 9.55 27.696 9.55 38.908 0l38.983-34.405L143.86-29.3c14.684 1.136 28.021-8.553 31.477-22.869l13.226-54.776 57.639-34.502c12.547-7.712 17.641-23.39 12.023-37.003l-22.771-55.177 22.771-55.177c5.618-13.614.524-29.292-12.023-37.004l-57.639-34.502-13.226-54.776c-3.456-14.315-16.793-24.005-31.477-22.869l-65.324 5.056-39.628-34.776c-11.212-9.55-27.696-9.55-38.908 0l-39.628 34.776-65.324-5.056c-14.684-1.136-28.021 8.554-31.477 22.869l-13.279 54.993-57.542 34.285c-12.548 7.712-17.642 23.39-12.023 37.004l22.77 55.177-22.77 55.177c-5.619 13.613-.525 29.291 12.023 37.003l52.61 31.255 18.211 58.023c3.456 14.316 16.793 24.005 31.477 22.869l65.97-5.105z" style="stroke-width:30;stroke-linecap:round;stroke-linejoin:round;stroke-miterlimit:10;stroke-dasharray:none;stroke-opacity:1" transform="translate(236.546 489.837)" fill="none" stroke="#0756FB" stroke-width="30" stroke-linecap="round" stroke-linejoin="round" stroke-miterlimit="10" stroke-dasharray="none" stroke-opacity="" data-original="#000000"></path></g></g></svg>