<?xml version="1.0" encoding="UTF-8" standalone="no"?>
<svg
   xmlns:dc="http://purl.org/dc/elements/1.1/"
   xmlns:cc="http://creativecommons.org/ns#"
   xmlns:rdf="http://www.w3.org/1999/02/22-rdf-syntax-ns#"
   xmlns:svg="http://www.w3.org/2000/svg"
   xmlns="http://www.w3.org/2000/svg"
   viewBox="0 0 7333.3335 4820.2134"
   height="4820.2134"
   width="7333.3335"
   xml:space="preserve"
   id="svg2"
   version="1.1"><metadata
     id="metadata8"><rdf:RDF><cc:Work
         rdf:about=""><dc:format>image/svg+xml</dc:format><dc:type
           rdf:resource="http://purl.org/dc/dcmitype/StillImage" /></cc:Work></rdf:RDF></metadata><defs
     id="defs6" /><g
     transform="matrix(1.3333333,0,0,-1.3333333,0,4820.2133)"
     id="g10"><g
       transform="scale(0.1)"
       id="g12"><g
         transform="scale(3.37423)"
         id="g14"><path
           id="path16"
           style="fill:#e8f7ff;fill-opacity:1;fill-rule:nonzero;stroke:none"
           d="m 15481.4,1141.5 c 176.6,212.17 1023.7,2868.92 -1066.2,4297.84 -978.8,669.25 -463.4,3222.02 -2629.1,3793.47 C 9547.3,9823.54 8472.3,8218.03 7480.57,8003.12 6488.62,7788.17 6188.75,8427.05 5245.07,7799.04 4173.33,7085.79 4984.72,5243.92 3631.28,4598.23 2277.85,3952.54 3707.84,1141.5 3707.84,1141.5 H 15481.4" /></g><g
         transform="scale(3.37423)"
         id="g18"><path
           id="path20"
           style="fill:#cceeff;fill-opacity:1;fill-rule:nonzero;stroke:none"
           d="m 3359.52,1148.35 c -331.42,0 -984.74,-56.93 -331.42,-412.865 C 3681.43,379.552 2110.14,0 5168.49,0 8226.85,0 12600,0 13860.7,0 c 1260.8,0 718.6,611.664 1497.1,685.814 778.4,74.18 1296.9,462.536 648.4,462.536 -648.4,0 -12646.68,0 -12646.68,0" /></g><g
         transform="scale(3.11882)"
         id="g22"><path
           id="path24"
           style="fill:#ade4ff;fill-opacity:1;fill-rule:nonzero;stroke:none"
           d="m 11924.9,566.656 c -2416.29,0 -4375.08,58.869 -4375.08,281.229 0,173.495 1192.86,192.575 2864.78,192.575 470.8,0 979.4,-1.51 1510.3,-1.51 530.8,0 1039.6,1.51 1510.3,1.51 1672.1,0 2864.8,-19.05 2864.8,-192.575 0,-222.36 -1958.8,-281.229 -4375.1,-281.229" /></g><g
         transform="scale(2.55356)"
         id="g26"><path
           id="path28"
           style="fill:#80ccff;fill-opacity:1;fill-rule:nonzero;stroke:none"
           d="m 14086.1,1508.37 c 0,0 2213.9,1925.9 1112.7,3314.51 -1101.3,1388.61 -2512.2,-656.77 -2890.8,444.47 -378.6,1101.21 3677.2,6106.05 -658.9,7042.15 C 7312.93,13245.5 9582.16,8761.03 8923.98,8053.23 8184.07,7257.6 5843.92,9374.06 6790.29,6001.51 7532.86,3355.24 6365.86,4635.84 5929.96,3799.01 5385.15,2753.14 6434.67,1508.37 6434.67,1508.37 h 7651.43" /></g><g
         transform="scale(1.19932)"
         id="g30"><path
           id="path32"
           style="fill:#a3daff;fill-opacity:1;fill-rule:nonzero;stroke:none"
           d="m 12294,6751.41 c 0.8,44.53 2.8,89.14 5.5,133.83 939.2,-277.32 1875.4,-63.29 2157.2,14.51 -397.5,619.76 -855.5,1204.51 -1378.4,1698.63 38.3,24.26 77.3,46.02 117,65.53 889.2,-850.73 1591,-1957.02 2128.6,-3047.81 -30.7,604.51 -196.9,2078.85 -1063.9,3298.46 45.2,10.92 89,23.59 131.4,38.27 1112.2,-1598.24 1069.9,-3595.62 1069.2,-3620.05 h -0.4 c 355.7,-758.1 632.6,-1495.94 839.8,-2121.13 h -136.3 c -343.6,1030.92 -875.9,2360.76 -1634.3,3573.37 -155.4,-45.12 -631.3,-167.43 -1224.1,-167.43 -314.7,0 -662.1,34.77 -1011.3,133.82" /></g><g
         transform="scale(1.37198)"
         id="g34"><path
           id="path36"
           style="fill:#a3daff;fill-opacity:1;fill-rule:nonzero;stroke:none"
           d="m 15781.5,7379.84 c -255,12.17 -1383.1,107.72 -2775.3,853.43 12.9,34.19 24.5,70.92 34.6,110.57 1343.4,-724.5 2436.9,-832.88 2721.7,-848.99 -91,538.86 -200.8,1079.46 -332.9,1606.44 -254,28.42 -1463.9,191.25 -2476.4,787.69 -10.2,50.66 -21,102.55 -32.3,155.72 959,-594.21 2152.8,-782.55 2478.1,-824.53 -379.9,1469.93 -937.8,2823.13 -1756.6,3719.53 -431.3,472 -811.2,1013.6 -1145.9,1592.6 25.3,31.4 52.6,59.7 81.1,86.1 335,-582.9 715.9,-1128.1 1148.8,-1602 552.1,-604.4 986.6,-1412.7 1329.1,-2323 61.3,716.1 187.9,2883.5 -387.5,4027 45.8,-7.5 91.5,-14.9 137.2,-22 660.2,-1420.5 356.7,-4117.5 340.8,-4253.7 891.9,-2538.77 1108.4,-5775.11 1154,-7637.23 h -113.6 c -28.2,1159.06 -122.3,2850.77 -404.9,4572.37" /></g><g
         transform="scale(2.41045)"
         id="g38"><path
           id="path40"
           style="fill:#a3daff;fill-opacity:1;fill-rule:nonzero;stroke:none"
           d="m 13043.3,2421.08 c -0.4,127.66 3.6,1819.33 498.8,2802.1 25.8,2.61 52.3,6.55 79.3,11.7 -441.8,-837.9 -503.4,-2285.68 -511.8,-2703.11 395.2,644.78 912.1,1219.94 1437.7,1706.94 -16.3,93.72 -113.1,707.05 31.3,1319.84 23.5,6.85 47.1,13.44 70.8,19.66 -138.8,-551.8 -71.2,-1115.47 -44.9,-1286.89 453.2,414.11 909.6,761.89 1297.2,1032.01 16,-14.52 32.1,-29.58 48.1,-45.31 -475,-330.23 -1055.7,-778.73 -1606.4,-1323.57 163.1,-109.07 910.7,-560.85 1956.6,-449.71 -8,-22.48 -16.3,-44.84 -24.9,-67.16 -104,-10 -205.4,-15.19 -303.3,-15.19 -910.8,0 -1543.1,395.49 -1675.3,485.6 -104,-104.26 -206.6,-212.08 -307.1,-323.01 102.2,-136.12 687,-845.07 1835.8,-968.62 -14.2,-20.29 -28.5,-40.37 -42.9,-60.2 -1122.3,133.96 -1711.2,816.57 -1837.1,980.03 C 13437,2967.25 12988.6,2314.3 12721.1,1597.96 h -69.2 c 104.7,284.68 237.5,559.52 391.4,823.12" /></g><g
         transform="scale(2.11144)"
         id="g42"><path
           id="path44"
           style="fill:#a3daff;fill-opacity:1;fill-rule:nonzero;stroke:none"
           d="m 12408.7,1824.26 c -0.3,454.95 9.1,965.17 35.3,1515.08 l -1.8,-0.24 c -6.5,46.42 -607.2,4190.75 -2296.9,6164.05 31.4,0.34 62.4,1.47 92.9,3.6 1399.6,-1678.66 2045,-4813.31 2223.7,-5829.92 62.8,1071.5 190.5,2271.54 429.9,3486.64 -9.5,13.16 -22.1,31.64 -39.9,58.02 -486.4,717.89 -1269.2,1813.78 -2007.1,2590.55 12.7,21.79 24.4,44.9 34.5,70.1 748.1,-782.74 1541.1,-1891.98 2032.9,-2617.7 56.8,281.47 119.5,563.6 189.1,844.92 277.4,1121.9 397.1,2240.14 424.9,3273.74 -247.6,1.1 -1592.7,30.9 -2711.2,524.7 -2.7,28 -5.3,56.1 -7.8,84.2 1113.8,-505.2 2479.8,-533.5 2721,-534.8 12,528.8 0.1,1034.5 -26.9,1506.4 -223.9,75 -1685.5,577.7 -2481.9,1169.7 11.3,22.6 22.7,44.9 34.9,66.8 751.3,-560.8 2149,-1056.3 2442.4,-1156.8 -46.9,767.1 -133,1440.9 -219.4,1973.5 25.2,-2.4 50.4,-4.8 76,-7.7 112.9,-701 224.4,-1641.4 248.6,-2714 1004.6,129.2 2026.6,734.6 2664.6,1181.3 11.2,-22.2 23.1,-44.1 33.5,-66.6 -647.1,-451.9 -1679.9,-1060.9 -2696.6,-1189.2 20.4,-1097.8 -51.8,-2329.51 -307.3,-3582.26 305.9,97.19 1724,568.19 2716.9,1238.02 -14.7,-40.68 -29.7,-81.22 -44.6,-121.72 -1048.5,-682.47 -2484.9,-1136.62 -2689.7,-1199.37 -32.4,-154.35 -67.4,-308.98 -105.6,-463.67 -262.8,-1062.83 -430.5,-2136.79 -534.8,-3145.39 196.2,272.94 772.3,902.13 2222.6,1538.19 3.2,-26.28 7.8,-51.24 13.9,-75.02 C 13131.6,5639.2 12670.3,4871.28 12621.9,4782.91 12514.3,3677.59 12482,2657.2 12482.5,1824.26 h -73.8" /></g><g
         transform="scale(2.50875)"
         id="g46"><path
           id="path48"
           style="fill:#8cd1ff;fill-opacity:1;fill-rule:nonzero;stroke:none"
           d="m 12251.1,1535.31 c 0,0 -285.3,1298.45 -978.8,2280.58 -880,1246.51 -622.8,2318.88 156.5,2257.54 866.7,-68.25 984.2,-332.64 1153.2,392.22 169.1,724.87 126.8,3900.45 1922.4,3905.15 1795.6,4.7 464.7,-4212.67 -295.7,-5662.4 -760.5,-1449.72 -253.5,-1570.5 147.8,-1449.72 401.4,120.81 781.6,-381.79 612.6,-926.76 -168.9,-544.93 -517.5,-796.61 -517.5,-796.61 h -2200.5" /></g><g
         transform="scale(2.36996)"
         id="g50"><path
           id="path52"
           style="fill:#7dcbff;fill-opacity:1;fill-rule:nonzero;stroke:none"
           d="m 13911.2,5339.59 c -94.3,412.58 -410.7,840.52 -699.2,1162 -6.5,-13.58 -13.1,-26.24 -19.9,-38.06 298.1,-333.46 622.5,-778.79 693.3,-1198.63 -193.5,-565.83 -323.8,-1094.66 -323.8,-1564.03 0,-863.9 103,-1596.74 193.7,-2075.65 h 40.4 c -90.6,476.42 -194.4,1210.02 -194.4,2075.65 0,295.4 52.5,615.41 140.3,954.02 62.9,54.77 820.1,703.6 1603.2,983.78 7.2,16.96 14.3,33.75 21.4,51.01 -718.1,-247.09 -1420.1,-809.64 -1606.3,-965.8 167.8,619.38 448,1298.84 738.6,2002.95 11.8,28.52 23.5,57.17 35.3,85.78 521.9,25.87 985.2,145.7 1325,262.58 4.9,16.12 9.7,32.32 14.5,48.48 -335,-117.26 -798,-240.26 -1322,-268.7 50.7,122.96 101.4,246.38 151.6,370.05 101.4,14.48 786.5,117.35 1288.9,320.35 4.4,16.88 8.8,33.8 13.2,50.67 -469.6,-194.85 -1128.1,-302.79 -1284.2,-326.5 273.3,675.84 527.8,1357.79 669.5,2005.99 92.7,4.47 579.4,45.35 909.7,413.42 -0.7,19.75 -1.9,39.07 -2.9,58.48 -309.6,-372.66 -785.7,-423.25 -898.1,-430.05 7.1,33.17 14.3,66.42 20.7,99.37 137.3,708.15 174,1198.45 165.1,1536.45 -13.2,3 -26.7,5.6 -40.3,8.1 9.8,-333.3 -25.4,-822.8 -163.8,-1536.41 -53.6,-276.75 -130,-560.68 -220.8,-848.32 -135.2,48.44 -983.8,374.86 -1340.5,1036.6 -6.1,-16.88 -12,-33.88 -17.9,-50.89 372.8,-653.77 1209.4,-976.01 1345.7,-1024.91 -189.6,-592.33 -440,-1199.94 -685.3,-1794.25 -199.3,-483.05 -393.8,-954.49 -550.7,-1403.53" /></g><g
         transform="scale(2.14309)"
         id="g54"><path
           id="path56"
           style="fill:#7dcbff;fill-opacity:1;fill-rule:nonzero;stroke:none"
           d="m 15622.2,1797.27 c 64.8,368.48 273.1,1394.58 677.8,2053.44 -11.6,9.38 -22.4,19.83 -32.6,31.21 -414.7,-671.55 -626,-1719.43 -689.9,-2084.65 h 44.7" /></g><g
         transform="scale(2.30997)"
         id="g58"><path
           id="path60"
           style="fill:#7dcbff;fill-opacity:1;fill-rule:nonzero;stroke:none"
           d="m 16110,3366.88 c -9.6,11.09 -19.5,21.74 -29.7,31.99 -146.5,-98.91 -302.9,-226.49 -466.4,-391.82 -167,-168.92 -303.6,-345.67 -415.4,-520.48 -23.5,141.99 -72.3,573.34 99.6,1017.41 -14,1.56 -27.6,3.86 -41,6.67 -195.7,-514.98 -104.1,-1010.7 -90.7,-1075.64 -169.7,-276.67 -277.6,-545.16 -346.7,-767.59 h 42.5 c 107.3,340.74 308,789.58 682,1204.7 46.8,-13.12 210.9,-54.77 401.7,-54.77 115,0 239.5,15.37 354.1,60.91 -0.9,15.28 -2.2,30.48 -3.8,45.5 -271.2,-112.08 -613.3,-42.64 -719.8,-16.15 21.5,23.12 43.3,46.19 65.9,69.05 163.6,165.46 320.8,292.52 467.7,390.22" /></g><g
         transform="scale(1.97342)"
         id="g62"><path
           id="path64"
           style="fill:#7dcbff;fill-opacity:1;fill-rule:nonzero;stroke:none"
           d="m 13911.8,7517.04 c 356.5,-172.44 745.6,-455.96 1058.7,-922.61 150.3,-223.98 283.7,-504.3 402.7,-816.55 -201.6,58.53 -1024.7,284.63 -1642.2,265.37 4.8,-16.36 9.3,-32.58 14.5,-49.1 656.3,17.08 1545.1,-242.98 1649.9,-274.39 210.7,-568.2 374.8,-1235.73 505,-1865.39 -127.5,52.49 -527.1,190.43 -1056,123.54 7.8,-15.76 15.4,-31.47 23,-47.23 566.8,67.3 976.9,-104.13 1045.2,-135.25 21.6,-106.36 42.3,-211.35 62.2,-314.63 -368.8,151.37 -702.8,163.17 -959.3,130.33 6.9,-15.81 13.6,-31.46 20.4,-47.22 254.5,30.5 585.4,15.1 950,-141.13 60,-315.39 111.6,-611.83 156.4,-869.55 42.4,-243.89 77.8,-447.35 108.9,-601.44 h 48.8 c -31.4,154.4 -67.4,360.94 -110.8,610.25 -202,1162.45 -540.3,3107.95 -1179.5,4060.82 -313,466.39 -700.8,752.7 -1058.6,929.09 -13.4,-11.2 -26.6,-22.65 -39.3,-34.91" /></g><g
         transform="scale(1.88767)"
         id="g66"><path
           id="path68"
           style="fill:#c9eaff;fill-opacity:1;fill-rule:nonzero;stroke:none"
           d="m 16218.5,4285.71 c -45,0 -81.5,36.5 -81.5,81.47 v 4999.14 c 0,44.97 36.5,81.47 81.5,81.47 45,0 81.5,-36.5 81.5,-81.47 V 4367.18 c 0,-44.97 -36.5,-81.47 -81.5,-81.47" /></g><g
         transform="scale(2.02402)"
         id="g70"><path
           id="path72"
           style="fill:#c9eaff;fill-opacity:1;fill-rule:nonzero;stroke:none"
           d="M 16017,16042.4 V 9336.52 c 0,-244.81 -199.2,-443.96 -444,-443.96 h -2471.1 c -78.2,0 -141.5,-63.39 -141.5,-141.5 0,-78.12 63.3,-141.5 141.5,-141.5 H 15573 c 400.9,0 727,326.13 727,726.96 v 6705.88 h -283" /></g><g
         transform="scale(2.61512)"
         id="g74"><path
           id="path76"
           style="fill:#c9eaff;fill-opacity:1;fill-rule:nonzero;stroke:none"
           d="m 16190.5,1860.49 h -3342.7 c -248.8,0 -451.2,202.36 -451.2,451.14 v 475.66 c 0,128.02 -104.1,232.15 -232.1,232.15 h -1949.4 c -60.5,0 -109.5,49.02 -109.5,109.51 0,60.5 49,109.52 109.5,109.52 h 1949.4 c 248.8,0 451.2,-202.4 451.2,-451.18 v -475.66 c 0,-127.99 104.1,-232.11 232.1,-232.11 h 3342.7 c 60.5,0 109.5,-49.02 109.5,-109.52 0,-60.49 -49,-109.51 -109.5,-109.51" /></g><g
         transform="scale(1.78569)"
         id="g78"><path
           id="path80"
           style="fill:#e0f3ff;fill-opacity:1;fill-rule:nonzero;stroke:none"
           d="m 15899.6,3796.63 h -355.7 c -221.2,0 -400.4,179.26 -400.4,400.41 v 6003.56 c 0,221.2 179.2,400.4 400.4,400.4 h 355.7 c 221.1,0 400.4,-179.2 400.4,-400.4 V 4197.04 c 0,-221.15 -179.3,-400.41 -400.4,-400.41" /></g><g
         transform="scale(1.75384)"
         id="g82"><path
           id="path84"
           style="fill:#bde5ff;fill-opacity:1;fill-rule:nonzero;stroke:none"
           d="m 15892.4,3865.57 h -362.2 c -225.2,0 -407.7,182.52 -407.7,407.68 v 6112.55 c 0,225.2 182.5,407.7 407.7,407.7 h 362.2 c 225.1,0 407.6,-182.5 407.6,-407.7 V 4273.25 c 0,-225.16 -182.5,-407.68 -407.6,-407.68" /></g><g
         transform="scale(1.73432)"
         id="g86"><path
           id="path88"
           style="fill:#9ed9ff;fill-opacity:1;fill-rule:nonzero;stroke:none"
           d="m 15476.2,4297.48 v 6229.22 c 0,115.2 93.4,208.6 208.6,208.6 h 406.6 c 115.2,0 208.6,-93.4 208.6,-208.6 V 4297.42 c 0,-115.2 -93.4,-208.61 -208.6,-208.61 h -406.6 c -115.2,0 -208.6,93.41 -208.6,208.67" /></g><g
         transform="scale(1.71815)"
         id="g90"><path
           id="path92"
           style="fill:#e0f3ff;fill-opacity:1;fill-rule:nonzero;stroke:none"
           d="m 15883.9,3945.86 h -369.7 c -229.8,0 -416.2,186.31 -416.2,416.15 v 6239.59 c 0,229.8 186.4,416.1 416.2,416.1 h 369.7 c 229.8,0 416.1,-186.3 416.1,-416.1 V 4362.01 c 0,-229.84 -186.3,-416.15 -416.1,-416.15" /></g><g
         transform="scale(1.68631)"
         id="g94"><path
           id="path96"
           style="fill:#bde5ff;fill-opacity:1;fill-rule:nonzero;stroke:none"
           d="m 15876,4020.37 h -376.7 c -234.2,0 -424,189.82 -424,424 v 6357.33 c 0,234.2 189.8,424 424,424 h 376.7 c 234.1,0 424,-189.8 424,-424 V 4444.37 c 0,-234.18 -189.9,-424 -424,-424" /></g><g
         transform="scale(1.66679)"
         id="g98"><path
           id="path100"
           style="fill:#9ed9ff;fill-opacity:1;fill-rule:nonzero;stroke:none"
           d="m 15442.8,4471.6 v 6481.6 c 0,119.9 97.2,217 217.1,217 h 423 c 120,0 217.1,-97.1 217.1,-217 V 4471.54 c 0,-119.87 -97.1,-217.06 -217.1,-217.06 h -423 c -119.9,0 -217.1,97.19 -217.1,217.12" /></g><g
         transform="scale(1.65063)"
         id="g102"><path
           id="path104"
           style="fill:#e0f3ff;fill-opacity:1;fill-rule:nonzero;stroke:none"
           d="m 15866.8,4107.29 h -384.9 c -239.1,0 -433.1,193.93 -433.1,433.17 v 6494.84 c 0,239.2 194,433.1 433.1,433.1 h 384.9 c 239.2,0 433.2,-193.9 433.2,-433.1 V 4540.46 c 0,-239.24 -194,-433.17 -433.2,-433.17" /></g><g
         transform="scale(1.61878)"
         id="g106"><path
           id="path108"
           style="fill:#bde5ff;fill-opacity:1;fill-rule:nonzero;stroke:none"
           d="m 15858.3,4188.09 h -392.4 c -243.9,0 -441.7,197.75 -441.7,441.69 v 6622.62 c 0,243.9 197.8,441.7 441.7,441.7 h 392.4 c 244,0 441.7,-197.8 441.7,-441.7 V 4629.78 c 0,-243.94 -197.7,-441.69 -441.7,-441.69" /></g><g
         transform="scale(1.59926)"
         id="g110"><path
           id="path112"
           style="fill:#9ed9ff;fill-opacity:1;fill-rule:nonzero;stroke:none"
           d="m 15406.6,4660.41 v 6755.29 c 0,124.9 101.3,226.2 226.2,226.2 h 441 c 124.9,0 226.2,-101.3 226.2,-226.2 V 4660.35 c 0,-124.94 -101.3,-226.23 -226.2,-226.23 h -441 c -124.9,0 -226.2,101.29 -226.2,226.29" /></g><g
         transform="scale(1.58309)"
         id="g114"><path
           id="path116"
           style="fill:#e0f3ff;fill-opacity:1;fill-rule:nonzero;stroke:none"
           d="m 15848.4,4282.5 h -401.3 c -249.4,0 -451.6,202.2 -451.6,451.65 V 11506 c 0,249.5 202.2,451.7 451.6,451.7 h 401.3 c 249.4,0 451.6,-202.2 451.6,-451.7 V 4734.15 c 0,-249.45 -202.2,-451.65 -451.6,-451.65" /></g><g
         transform="scale(1.55125)"
         id="g118"><path
           id="path120"
           style="fill:#bde5ff;fill-opacity:1;fill-rule:nonzero;stroke:none"
           d="m 15839.1,4370.42 h -409.5 c -254.6,0 -460.9,206.35 -460.9,460.92 v 6910.86 c 0,254.6 206.3,461 460.9,461 h 409.5 c 254.5,0 460.9,-206.4 460.9,-461 V 4831.34 c 0,-254.57 -206.4,-460.92 -460.9,-460.92" /></g><g
         transform="scale(1.53172)"
         id="g122"><path
           id="path124"
           style="fill:#9ed9ff;fill-opacity:1;fill-rule:nonzero;stroke:none"
           d="M 15367.2,4865.89 V 11919 c 0,130.4 105.8,236.2 236.2,236.2 h 460.4 c 130.4,0 236.2,-105.8 236.2,-236.2 V 4865.82 c 0,-130.44 -105.8,-236.2 -236.2,-236.2 h -460.4 c -130.4,0 -236.2,105.76 -236.2,236.27" /></g><g
         transform="scale(1.51556)"
         id="g126"><path
           id="path128"
           style="fill:#e0f3ff;fill-opacity:1;fill-rule:nonzero;stroke:none"
           d="m 15828.2,4473.33 h -419.1 c -260.6,0 -471.8,211.21 -471.8,471.78 v 7073.59 c 0,260.6 211.2,471.8 471.8,471.8 h 419.1 c 260.6,0 471.8,-211.2 471.8,-471.8 V 4945.11 c 0,-260.57 -211.2,-471.78 -471.8,-471.78" /></g><g
         transform="scale(1.48371)"
         id="g130"><path
           id="path132"
           style="fill:#bde5ff;fill-opacity:1;fill-rule:nonzero;stroke:none"
           d="M 15818.1,4569.35 H 15390 c -266.2,0 -481.9,215.74 -481.9,481.9 v 7225.45 c 0,266.2 215.7,481.9 481.9,481.9 h 428.1 c 266.2,0 481.9,-215.7 481.9,-481.9 V 5051.25 c 0,-266.16 -215.7,-481.9 -481.9,-481.9" /></g><g
         transform="scale(1.46419)"
         id="g134"><path
           id="path136"
           style="fill:#9ed9ff;fill-opacity:1;fill-rule:nonzero;stroke:none"
           d="m 15324.2,5090.32 v 7378.38 c 0,136.5 110.6,247.1 247.1,247.1 h 481.6 c 136.5,0 247.1,-110.6 247.1,-247.1 V 5090.25 c 0,-136.46 -110.6,-247.1 -247.1,-247.1 h -481.6 c -136.5,0 -247.1,110.64 -247.1,247.17" /></g><g
         transform="scale(1.44802)"
         id="g138"><path
           id="path140"
           style="fill:#e0f3ff;fill-opacity:1;fill-rule:nonzero;stroke:none"
           d="m 15806.2,4681.96 h -438.6 c -272.8,0 -493.8,221.06 -493.8,493.78 v 7403.56 c 0,272.7 221,493.7 493.8,493.7 h 438.6 c 272.7,0 493.8,-221 493.8,-493.7 V 5175.74 c 0,-272.72 -221.1,-493.78 -493.8,-493.78" /></g><g
         transform="scale(1.41618)"
         id="g142"><path
           id="path144"
           style="fill:#bde5ff;fill-opacity:1;fill-rule:nonzero;stroke:none"
           d="m 15795.1,4787.25 h -448.5 c -278.9,0 -504.9,226.03 -504.9,504.88 v 7570.07 c 0,278.8 226,504.8 504.9,504.8 h 448.5 c 278.9,0 504.9,-226 504.9,-504.8 V 5292.13 c 0,-278.85 -226,-504.88 -504.9,-504.88" /></g><g
         transform="scale(1.39666)"
         id="g146"><path
           id="path148"
           style="fill:#9ed9ff;fill-opacity:1;fill-rule:nonzero;stroke:none"
           d="m 15277,5336.46 v 7735.14 c 0,143.1 116,259.1 259.1,259.1 h 504.9 c 143,0 259,-116 259,-259.1 V 5336.39 c 0,-143.06 -116,-259.05 -259,-259.05 h -504.9 c -143.1,0 -259.1,115.99 -259.1,259.12" /></g><g
         transform="scale(1.38049)"
         id="g150"><path
           id="path152"
           style="fill:#e0f3ff;fill-opacity:1;fill-rule:nonzero;stroke:none"
           d="m 15782.1,4911.01 h -460.2 c -286,0 -517.9,231.87 -517.9,517.93 v 7765.76 c 0,286 231.9,517.9 517.9,517.9 h 460.2 c 286,0 517.9,-231.9 517.9,-517.9 V 5428.94 c 0,-286.06 -231.9,-517.93 -517.9,-517.93" /></g><g
         transform="scale(1.34864)"
         id="g154"><path
           id="path156"
           style="fill:#bde5ff;fill-opacity:1;fill-rule:nonzero;stroke:none"
           d="m 15769.8,5026.97 h -471 c -292.7,0 -530.1,237.35 -530.1,530.16 v 7949.07 c 0,292.8 237.4,530.2 530.1,530.2 h 471 c 292.9,0 530.2,-237.4 530.2,-530.2 V 5557.13 c 0,-292.81 -237.3,-530.16 -530.2,-530.16" /></g><g
         transform="scale(1.32912)"
         id="g158"><path
           id="path160"
           style="fill:#9ed9ff;fill-opacity:1;fill-rule:nonzero;stroke:none"
           d="m 15225,5607.61 v 8128.19 c 0,150.4 121.9,272.2 272.2,272.2 h 530.6 c 150.3,0 272.2,-121.8 272.2,-272.2 V 5607.53 c 0,-150.32 -121.9,-272.21 -272.2,-272.21 h -530.5 c -150.4,0 -272.3,121.89 -272.3,272.29" /></g><g
         transform="scale(1.31296)"
         id="g162"><path
           id="path164"
           style="fill:#e0f3ff;fill-opacity:1;fill-rule:nonzero;stroke:none"
           d="m 15755.4,5163.61 h -483.8 c -300.7,0 -544.5,243.8 -544.5,544.57 v 8165.12 c 0,300.8 243.8,544.6 544.5,544.6 h 483.8 c 300.8,0 544.6,-243.8 544.6,-544.6 V 5708.18 c 0,-300.77 -243.8,-544.57 -544.6,-544.57" /></g><g
         transform="scale(1.28111)"
         id="g166"><path
           id="path168"
           style="fill:#bde5ff;fill-opacity:1;fill-rule:nonzero;stroke:none"
           d="m 15741.9,5291.97 h -495.8 c -308.2,0 -558.1,249.86 -558.1,558.11 v 8368.12 c 0,308.3 249.9,558.1 558.1,558.1 h 495.8 c 308.2,0 558.1,-249.8 558.1,-558.1 V 5850.08 c 0,-308.25 -249.9,-558.11 -558.1,-558.11" /></g><g
         transform="scale(1.26159)"
         id="g170"><path
           id="path172"
           style="fill:#9ed9ff;fill-opacity:1;fill-rule:nonzero;stroke:none"
           d="m 15167.5,5907.79 v 8563.31 c 0,158.4 128.4,286.8 286.8,286.8 h 558.9 c 158.4,0 286.8,-128.4 286.8,-286.8 V 5907.71 c 0,-158.37 -128.4,-286.78 -286.8,-286.78 h -558.9 c -158.4,0 -286.8,128.41 -286.8,286.86" /></g><g
         transform="scale(1.24542)"
         id="g174"><path
           id="path176"
           style="fill:#e0f3ff;fill-opacity:1;fill-rule:nonzero;stroke:none"
           d="m 15725.9,5443.61 h -510 c -317.1,0 -574.1,257.02 -574.1,574.1 v 8607.89 c 0,317.1 257,574.1 574.1,574.1 h 510 c 317.1,0 574.1,-257 574.1,-574.1 V 6017.71 c 0,-317.08 -257,-574.1 -574.1,-574.1" /></g><g
         transform="scale(1.21358)"
         id="g178"><path
           id="path180"
           style="fill:#ccebff;fill-opacity:1;fill-rule:nonzero;stroke:none"
           d="m 15710.8,5586.43 h -523.4 c -325.4,0 -589.1,263.77 -589.1,589.17 v 8833.8 c 0,325.4 263.7,589.1 589.1,589.1 h 523.4 c 325.4,0 589.2,-263.7 589.2,-589.1 V 6175.6 c 0,-325.4 -263.8,-589.17 -589.2,-589.17" /></g><g
         transform="scale(1.19406)"
         id="g182"><path
           id="path184"
           style="fill:#d6efff;fill-opacity:1;fill-rule:nonzero;stroke:none"
           d="m 15103.5,6241.92 v 9047.68 c 0,167.3 135.6,303 303,303 h 590.5 c 167.4,0 303,-135.7 303,-303 V 6241.84 c 0,-167.33 -135.6,-303.01 -303,-303.01 h -590.5 c -167.3,0 -303,135.68 -303,303.09" /></g><g
         transform="scale(1.21923)"
         id="g186"><path
           id="path188"
           style="fill:#ffffff;fill-opacity:1;fill-rule:nonzero;stroke:none"
           d="m 16134.8,15359.2 c -10.4,36.4 -67.4,21.2 -57,-15.4 169.1,-591.5 151.6,-1207.2 140.6,-1816.2 -11.2,-616.5 -22.4,-1233 -33.6,-1849.4 -0.7,-38 58.3,-38.4 59,-0.5 11.5,635.8 23.1,1271.5 34.6,1907.2 10.8,595.3 21.6,1196.4 -143.6,1774.3" /></g><g
         transform="scale(1.21867)"
         id="g190"><path
           id="path192"
           style="fill:#ffffff;fill-opacity:1;fill-rule:nonzero;stroke:none"
           d="m 16244.1,11284.8 c -1.6,37.8 -60.6,38.4 -59,0.4 39.5,-913.9 55.9,-1828.7 49.3,-2743.46 -0.2,-38.08 58.8,-38.49 59.1,-0.49 6.5,914.84 -9.9,1829.65 -49.4,2743.55" /></g><g
         transform="scale(1.31247)"
         id="g194"><path
           id="path196"
           style="fill:#ffffff;fill-opacity:1;fill-rule:nonzero;stroke:none"
           d="m 16155.8,14255.2 c -14.8,31.9 -62,4.1 -47.2,-27.7 148.9,-320.4 136.1,-675.9 130.5,-1021 -6,-371.5 -12,-743.1 -18,-1114.6 l -36,-2229.33 c -0.6,-35.27 54.2,-35.58 54.8,-0.38 12.6,779.41 25.2,1558.71 37.8,2338.01 6.1,377.9 13.4,755.9 18.3,1133.9 4,315.2 -5,630.4 -140.2,921.1" /></g><g
         transform="scale(1.37963)"
         id="g198"><path
           id="path200"
           style="fill:#ffffff;fill-opacity:1;fill-rule:nonzero;stroke:none"
           d="m 16282.9,12842.1 c -8.5,234.5 17.1,529.3 -120.3,733 -18.6,27.7 -63.7,1.6 -44.9,-26.4 145.1,-215.3 109.3,-558.6 116.3,-808.4 7.7,-272.3 5.9,-544.7 -3.6,-817 -1.2,-33.6 51,-33.8 52.1,-0.4 10.8,306.4 11.5,612.9 0.4,919.2" /></g><g
         transform="scale(1.38085)"
         id="g202"><path
           id="path204"
           style="fill:#ffffff;fill-opacity:1;fill-rule:nonzero;stroke:none"
           d="m 16268.2,11521.4 c -2.6,33.2 -54.7,33.8 -52.1,0.4 31.8,-403.2 31.2,-806.8 -1.8,-1209.9 -2.7,-33.5 49.4,-33.6 52.1,-0.4 33,403 33.6,806.8 1.8,1209.9" /></g><g
         transform="scale(1.4516)"
         id="g206"><path
           id="path208"
           style="fill:#ffffff;fill-opacity:1;fill-rule:nonzero;stroke:none"
           d="m 16136.5,12931 c -15.3,28 -58.1,2.9 -42.8,-25.1 164.4,-300.7 156.2,-645.5 143.3,-978.1 -14.5,-371.7 -29.7,-743.3 -44.6,-1115 -1.2,-32 48.3,-32.2 49.6,-0.4 15.9,398.9 34.4,797.7 47.5,1196.7 10.5,316.1 2.2,637.9 -153,921.9" /></g><g
         transform="scale(1.52121)"
         id="g210"><path
           id="path212"
           style="fill:#ffffff;fill-opacity:1;fill-rule:nonzero;stroke:none"
           d="m 16161.4,12319 c -7.1,29.6 -52.8,17.4 -45.7,-12.2 140.9,-583.6 82,-1210.9 76,-1806.1 -6.1,-610.25 -12.3,-1220.49 -18.4,-1830.72 -0.3,-30.44 47,-30.77 47.2,-0.33 6.3,625.88 12.6,1251.76 19,1877.65 5.9,585.2 60.5,1197.7 -78.1,1771.7" /></g><g
         transform="scale(1.51899)"
         id="g214"><path
           id="path216"
           style="fill:#ffffff;fill-opacity:1;fill-rule:nonzero;stroke:none"
           d="m 16299.8,8431.63 c 0.2,30.35 -47,33.84 -47.3,3.36 -3.1,-414.55 -6.3,-829.1 -9.4,-1243.59 -0.2,-30.41 47,-33.83 47.2,-3.35 3.2,414.48 6.3,829.03 9.5,1243.58" /></g><g
         transform="scale(1.58245)"
         id="g218"><path
           id="path220"
           style="fill:#ffffff;fill-opacity:1;fill-rule:nonzero;stroke:none"
           d="m 16297.9,11321.9 c -1.6,209.3 -18.2,422.6 -142.5,598.6 -16.7,23.7 -56.1,1 -39.2,-23 139.6,-197.8 136.5,-441 136.3,-673.3 0,-270.1 -0.3,-540.2 -0.5,-810.2 -0.3,-540.22 -0.7,-1080.4 -1,-1620.57 0,-29.26 45.4,-29.57 45.4,-0.32 0.4,570.2 0.8,1140.38 1.1,1710.49 0.2,272.8 2.5,545.6 0.4,818.3" /></g><g
         transform="scale(1.65621)"
         id="g222"><path
           id="path224"
           style="fill:#ffffff;fill-opacity:1;fill-rule:nonzero;stroke:none"
           d="m 16092,11379.1 c -15.9,22.7 -53.5,1 -37.5,-22 218.8,-313.6 174.2,-725.2 168.9,-1087.5 -6.3,-421.81 -12.5,-843.62 -18.7,-1265.42 -0.5,-28.02 42.9,-28.26 43.4,-0.36 l 20,1351.28 c 5.1,346 31.9,725.9 -176.1,1024" /></g><g
         transform="scale(1.71547)"
         id="g226"><path
           id="path228"
           style="fill:#ffffff;fill-opacity:1;fill-rule:nonzero;stroke:none"
           d="m 16294.7,10580.5 c -3.7,135 -22.7,263.8 -108,372.8 -16.6,21.2 -46,-8.7 -29.5,-29.8 108.6,-138.9 96.2,-323.2 96.4,-489.8 0.2,-187 0.1,-374 -0.6,-561.03 -1.4,-367.01 -4.7,-734.08 -9.7,-1101.09 -0.3,-27.05 41.6,-27.28 42,-0.35 5.5,408.57 8.9,817.21 10,1225.84 0.4,194.33 4.7,389.23 -0.6,583.43" /></g><g
         transform="scale(1.71974)"
         id="g230"><path
           id="path232"
           style="fill:#ffffff;fill-opacity:1;fill-rule:nonzero;stroke:none"
           d="m 16255.2,8530.67 c -2.3,26.57 -44.2,27.1 -41.8,0.29 31.6,-365.29 44.8,-731.51 39.6,-1098.13 -0.4,-26.99 41.4,-27.22 41.8,-0.29 5.2,366.56 -8,732.84 -39.6,1098.13" /></g><g
         transform="scale(1.77925)"
         id="g234"><path
           id="path236"
           style="fill:#ffffff;fill-opacity:1;fill-rule:nonzero;stroke:none"
           d="m 16231,10495.2 c -4.6,25.6 -43.6,15 -39,-10.4 57.3,-314.9 67.2,-633.38 30.6,-951.21 -3,-25.85 37.4,-25.91 40.4,-0.33 37,321.48 25.9,643.64 -32,961.94" /></g><g
         transform="scale(1.45115)"
         id="g238"><path
           id="path240"
           style="fill:#ffffff;fill-opacity:1;fill-rule:nonzero;stroke:none"
           d="m 16268.5,9792.94 c 0,31.97 -49.5,32.32 -49.5,0.41 0.3,-885.85 10.6,-1771.63 30.7,-2657.21 0.7,-31.9 50.3,-32.31 49.5,-0.41 -20.1,885.65 -30.3,1771.43 -30.7,2657.21" /></g><g
         transform="scale(1.18274)"
         id="g242"><path
           id="path244"
           style="fill:#ffffff;fill-opacity:1;fill-rule:nonzero;stroke:none"
           d="m 16236.2,14660.7 c -11.7,-151 -102.4,-282.3 -239.8,-347.7 -146.1,-69.3 -412.5,-45.3 -418.1,164.8 -1,39.1 -61.8,39.6 -60.8,0.4 5.2,-196.6 215.3,-289.5 390.2,-257.5 215.2,39.4 372.7,225.5 389.3,439.6 3,39.1 -57.8,39.3 -60.8,0.4" /></g><g
         transform="scale(1.16728)"
         id="g246"><path
           id="path248"
           style="fill:#ffffff;fill-opacity:1;fill-rule:nonzero;stroke:none"
           d="m 16269.7,7489.49 c -95.9,81.04 -206.2,172.79 -339.5,168.25 -102.5,-3.43 -194.3,-63.31 -222.3,-163.63 -10.6,-38.29 48.8,-54.48 59.5,-16.27 67.3,241.93 351.5,58.68 458.9,-32.13 30.1,-25.44 73.7,18.16 43.4,43.78" /></g><g
         transform="scale(1.17134)"
         id="g250"><path
           id="path252"
           style="fill:#ffffff;fill-opacity:1;fill-rule:nonzero;stroke:none"
           d="m 16224.6,13766.6 c -0.6,39.4 -62,39.9 -61.5,0.4 25.1,-1864.5 50,-3729 75,-5593.57 0.5,-39.44 61.9,-39.95 61.4,-0.42 -25,1864.49 -50,3729.09 -74.9,5593.59" /></g><g
         transform="scale(1.85104)"
         id="g254"><path
           id="path256"
           style="fill:#ffffff;fill-opacity:1;fill-rule:nonzero;stroke:none"
           d="m 16265.3,9652.43 c -104.9,-16.97 -209.5,-19.56 -315.2,-8.86 -24.9,2.48 -24.9,-36.41 -0.3,-38.9 109.3,-11.02 217.2,-7.29 325.6,10.21 24.6,4 14.4,41.49 -10.1,37.55" /></g><g
         transform="scale(1.97863)"
         id="g258"><path
           id="path260"
           style="fill:#ffffff;fill-opacity:1;fill-rule:nonzero;stroke:none"
           d="m 16261.9,9133.43 c -129.9,-82.83 -279.2,-94.26 -429.6,-94.76 -153.6,-0.56 -307.3,2.73 -460.9,4.19 -23.4,0.26 -23.6,-36.08 -0.2,-36.33 172.6,-1.67 346.1,-8.24 518.8,-3.49 137.5,3.79 272.4,23.95 390.3,99.06 19.7,12.48 1.5,43.92 -18.4,31.33" /></g><g
         transform="scale(2.01179)"
         id="g262"><path
           id="path264"
           style="fill:#ffffff;fill-opacity:1;fill-rule:nonzero;stroke:none"
           d="m 16298.4,13603.1 c 1.6,23 -34.2,23.1 -35.7,0.2 -48.6,-703.2 -74.5,-1407.9 -76.6,-2112.9 -1,-346.4 10.4,-692.9 7.4,-1039.3 -3.1,-352.5 -34.3,-703.49 -66.3,-1054.22 -2.1,-22.92 33.7,-22.97 35.7,-0.25 32,350.73 63.2,701.77 66.3,1054.17 3,346.4 -8.3,692.9 -7.3,1039.4 2,704.9 27.9,1409.6 76.5,2112.9" /></g><g
         transform="scale(1.87892)"
         id="g266"><path
           id="path268"
           style="fill:#ffffff;fill-opacity:1;fill-rule:nonzero;stroke:none"
           d="m 16260.8,9200.02 c -6.8,-172.34 -13.5,-344.67 -20.2,-516.95 -1,-24.69 37.3,-24.85 38.3,-0.32 6.7,172.34 13.4,344.67 20.1,517 1,24.64 -37.3,24.86 -38.2,0.27" /></g><g
         transform="scale(1.8428)"
         id="g270"><path
           id="path272"
           style="fill:#ffffff;fill-opacity:1;fill-rule:nonzero;stroke:none"
           d="m 16265.2,4513.63 c -124.2,-22.36 -248.7,-32.62 -374.9,-31.37 -25.1,0.22 -25.3,-38.8 -0.3,-39.07 129.7,-1.25 257.7,9.82 385.3,32.77 24.7,4.4 14.4,42.12 -10.1,37.67" /></g><g
         transform="scale(2.02332)"
         id="g274"><path
           id="path276"
           style="fill:#ffffff;fill-opacity:1;fill-rule:nonzero;stroke:none"
           d="m 16293.9,3605.46 c -47.4,171.15 -106.2,362.77 -270.9,456.28 -178.9,101.57 -424.6,100.48 -621.5,71.86 -22.6,-3.31 -13.2,-37.61 9.2,-34.35 188.1,27.34 424,28.42 594.5,-68.3 156.1,-88.52 209.6,-273.02 254.4,-434.68 6.1,-22 40.4,-12.85 34.3,9.19" /></g><g
         transform="scale(2.14683)"
         id="g278"><path
           id="path280"
           style="fill:#ffffff;fill-opacity:1;fill-rule:nonzero;stroke:none"
           d="m 16278.5,2469.69 c -167.8,8.01 -335.4,8.34 -503.5,9.46 -168.5,1.11 -413.7,41.27 -416.6,258 -0.3,21.57 -33.8,21.8 -33.5,0.24 2.2,-165.69 151.5,-260.53 301.2,-282.89 99.6,-14.9 201.9,-8.01 302.2,-8.61 116.7,-0.7 233.4,-4.15 350,-9.69 21.6,-1.03 21.7,32.47 0.2,33.49" /></g><g
         transform="scale(1.1682)"
         id="g282"><path
           id="path284"
           style="fill:#a3dbff;fill-opacity:1;fill-rule:nonzero;stroke:none"
           d="m 16300,15219.4 c 0,-205.5 -141.6,-372.1 -316.4,-372.1 -174.7,0 -316.4,166.6 -316.4,372.1 0,205.7 141.7,372.2 316.4,372.2 174.8,0 316.4,-166.5 316.4,-372.2" /></g><g
         transform="scale(1.1568)"
         id="g286"><path
           id="path288"
           style="fill:#ccebff;fill-opacity:1;fill-rule:nonzero;stroke:none"
           d="m 16300,15369.5 c 0,-176.6 -107.1,-319.9 -239.1,-319.9 -132.1,0 -239.2,143.3 -239.2,319.9 0,176.7 107.1,319.8 239.2,319.8 132,0 239.1,-143.1 239.1,-319.8" /></g><g
         transform="scale(1.1682)"
         id="g290"><path
           id="path292"
           style="fill:#a3dbff;fill-opacity:1;fill-rule:nonzero;stroke:none"
           d="m 16300,6816.11 c 0,-205.61 -141.6,-372.19 -316.4,-372.19 -174.7,0 -316.4,166.58 -316.4,372.19 0,205.53 141.7,372.2 316.4,372.2 174.8,0 316.4,-166.67 316.4,-372.2" /></g><g
         transform="scale(1.1568)"
         id="g294"><path
           id="path296"
           style="fill:#ccebff;fill-opacity:1;fill-rule:nonzero;stroke:none"
           d="m 16300,6883.31 c 0,-176.69 -107.1,-319.85 -239.1,-319.85 -132.1,0 -239.2,143.16 -239.2,319.85 0,176.61 107.1,319.85 239.2,319.85 132,0 239.1,-143.24 239.1,-319.85" /></g><g
         transform="scale(2.97534)"
         id="g298"><path
           id="path300"
           style="fill:#ffb76e;fill-opacity:1;fill-rule:nonzero;stroke:none"
           d="m 15696.8,1709.75 c 0,0 486.8,-49.74 545,-55.62 58.2,-5.88 -15.1,-286.19 -49,-277.79 -115.2,28.54 -464.5,17.41 -464.5,17.41 l -31.5,316" /></g><g
         transform="scale(3.03234)"
         id="g302"><path
           id="path304"
           style="fill:#171a47;fill-opacity:1;fill-rule:nonzero;stroke:none"
           d="m 15776.1,1667.69 c 4.6,34.49 229.7,150.18 284.5,117.37 54.8,-32.81 120.4,-307.72 156.6,-485.6 27.8,-136.63 82.8,-375.981 3.4,-377.301 -155.8,-2.638 -215.1,189.591 -310.7,258.411 -95.6,68.83 -171.7,114.9 -134.5,183 86.9,159.08 -7,245.75 0.7,304.12" /></g><g
         transform="scale(3.01826)"
         id="g306"><path
           id="path308"
           style="fill:#282e7a;fill-opacity:1;fill-rule:nonzero;stroke:none"
           d="m 16127.5,1761.71 c -5.1,14.38 -28.1,8.31 -23,-6.16 86.9,-246.93 144.1,-502.48 170.2,-762.994 1.5,-15.107 25.3,-15.406 23.8,-0.164 -26.3,262.668 -83.3,520.298 -171,769.318" /></g><g
         transform="scale(2.98358)"
         id="g310"><path
           id="path312"
           style="fill:#282e7a;fill-opacity:1;fill-rule:nonzero;stroke:none"
           d="m 16278.6,1692.06 c -43.2,-9.99 -113,-22.45 -130.5,33.59 -4.6,14.78 -27.9,8.61 -23.2,-6.24 22,-70.75 102.1,-63.98 160,-50.61 15.1,3.49 8.8,26.78 -6.3,23.26" /></g><g
         transform="scale(2.97219)"
         id="g314"><path
           id="path316"
           style="fill:#282e7a;fill-opacity:1;fill-rule:nonzero;stroke:none"
           d="m 16211,1355.4 c -46,32.16 -53.5,61.4 -45.5,116.71 2.3,16.02 4,31.23 4.1,47.41 0.4,53.6 -14.2,106.28 -27.9,157.56 -4.1,15.04 -27.5,8.81 -23.4,-6.26 15.2,-56.39 30.9,-114.32 26.2,-173.31 -2.9,-36.87 -19,-73.91 -2.1,-109.64 11.4,-24.13 35.5,-38.83 56.5,-53.4 55.3,-38.46 75.6,-76.27 68.9,-145.38 -1.5,-15.51 22.7,-15.55 24.2,-0.17 8,82.73 -16.2,121.12 -81,166.48" /></g><g
         transform="scale(2.95621)"
         id="g318"><path
           id="path320"
           style="fill:#282e7a;fill-opacity:1;fill-rule:nonzero;stroke:none"
           d="m 16283.4,1649.75 c -4.8,14.85 -28.3,8.62 -23.5,-6.29 11.2,-34.68 15.7,-69.76 13.6,-106.09 -0.8,-15.66 23.5,-15.76 24.4,-0.17 2.1,38.43 -2.7,75.91 -14.5,112.55" /></g><g
         transform="scale(2.97991)"
         id="g322"><path
           id="path324"
           style="fill:#282e7a;fill-opacity:1;fill-rule:nonzero;stroke:none"
           d="m 16280.7,1291.88 c -7.7,19.83 -18.2,38.06 -32.3,54 -28.3,31.74 -91.8,57.35 -73.5,111.58 4.9,14.76 -18.4,21.04 -23.3,6.37 -15.3,-45.47 12.7,-76.31 45.7,-104.53 67.9,-58.22 78.7,-127.89 78.4,-214.07 0,-15.57 24.1,-15.7 24.1,-0.2 0.2,49.23 -0.9,100.37 -19.1,146.85" /></g><g
         transform="scale(2.91241)"
         id="g326"><path
           id="path328"
           style="fill:#1e2c61;fill-opacity:1;fill-rule:nonzero;stroke:none"
           d="m 15624.7,4033.7 c 158.4,-631.06 -240.3,-1271.8 -585.6,-2006.79 -47.9,-102.15 550.1,7.21 1033.2,-160.83 227.7,-79.21 226,-596.41 123.8,-631.06 -699.7,-237.223 -1792.2,-399.974 -2108.7,-148.53 -230.5,183.18 -114.6,2314.06 173.4,2974.65 325.8,747.38 1201.5,619.52 1363.9,-27.44" /></g><g
         transform="scale(2.77567)"
         id="g330"><path
           id="path332"
           style="fill:#4054a3;fill-opacity:1;fill-rule:nonzero;stroke:none"
           d="m 16277.1,3833.85 c -136.2,-33.9 -274.5,-41.4 -413.6,-22.98 -16.5,2.19 -16.5,-23.75 -0.2,-25.91 141.5,-18.73 282.1,-10.55 420.5,23.89 16.2,4.03 9.5,29.04 -6.7,25" /></g><g
         transform="scale(2.88903)"
         id="g334"><path
           id="path336"
           style="fill:#4054a3;fill-opacity:1;fill-rule:nonzero;stroke:none"
           d="m 16270.3,1664.88 c -5.7,14.75 -29.8,8.48 -24,-6.47 19.4,-50.12 28.8,-101.52 27.9,-155.31 -0.3,-16.03 24.6,-16.17 24.9,-0.17 0.9,55.93 -8.6,109.76 -28.8,161.95" /></g><g
         transform="scale(2.7377)"
         id="g338"><path
           id="path340"
           style="fill:#4054a3;fill-opacity:1;fill-rule:nonzero;stroke:none"
           d="m 16283.5,3723.49 c -70.4,15.2 -139.8,33.68 -208.4,55.49 -16.1,5.15 -22.9,-20.2 -6.9,-25.32 68.6,-21.84 138,-40.32 208.3,-55.52 16.5,-3.58 23.5,21.77 7,25.35" /></g><g
         transform="scale(2.66423)"
         id="g342"><path
           id="path344"
           style="fill:#ffb76e;fill-opacity:1;fill-rule:nonzero;stroke:none"
           d="m 15623,1814.03 c 0,0 546.3,8.52 611.7,9.61 65.3,1.09 20.7,-319.42 -18,-314.54 -131.5,16.63 -517.5,-41.44 -517.5,-41.44 l -76.2,346.37" /></g><g
         transform="scale(2.73596)"
         id="g346"><path
           id="path348"
           style="fill:#171a47;fill-opacity:1;fill-rule:nonzero;stroke:none"
           d="m 15626.7,1804.16 c 0.6,38.56 233.3,195.1 297.9,166.12 64.6,-29.02 172.5,-323.07 235.4,-514.19 48.4,-146.75 140,-403.08 52.8,-414.85 -171.1,-23.13 -261.4,180.74 -375.6,244.09 -114.1,63.34 -203.9,104.16 -171.8,183.95 75,186.38 -39.6,269.6 -38.7,334.88" /></g><g
         transform="scale(2.68271)"
         id="g350"><path
           id="path352"
           style="fill:#282e7a;fill-opacity:1;fill-rule:nonzero;stroke:none"
           d="m 16105.6,1500.2 c -46.6,20.61 -67.2,43.2 -68.3,98.86 -0.5,28.33 5,53.86 1.4,82.67 -7.3,56.48 -31.4,105.49 -66.3,149.63 -10.7,13.49 -29.5,-5.67 -18.9,-19.05 43.9,-55.39 66.4,-122.49 59.7,-193.39 -3.3,-34.29 -13.6,-61.65 6.9,-92.48 17.7,-26.5 49.2,-39.25 77,-51.77 78.1,-35.3 174.8,-78.62 156.8,-183.96 -2.9,-16.88 22.9,-24.08 25.8,-7.08 20.3,118.83 -80.4,175.12 -174.1,216.57" /></g><g
         transform="scale(2.72444)"
         id="g354"><path
           id="path356"
           style="fill:#282e7a;fill-opacity:1;fill-rule:nonzero;stroke:none"
           d="m 15981.4,1947.7 c -9.2,14.17 -32,0.96 -22.8,-13.36 162.2,-249.7 268.4,-529.1 313.4,-823.32 2.5,-16.78 28,-9.84 25.5,6.82 -45.3,296.43 -152.8,578.36 -316.1,829.86" /></g><g
         transform="scale(2.69202)"
         id="g358"><path
           id="path360"
           style="fill:#282e7a;fill-opacity:1;fill-rule:nonzero;stroke:none"
           d="m 16246.7,1422.2 c -21.2,28.9 -48.2,52.19 -78.3,71.29 -44.6,28.23 -127.4,42.38 -133.9,104.6 -1.7,16.94 -28.5,17.28 -26.7,0.19 6.4,-61.22 52.6,-80.31 103.3,-104.16 104.4,-49.18 185.7,-149.14 135.1,-268.27 -6.7,-15.64 16.4,-29.2 23.1,-13.38 30.7,72.25 24.7,145.4 -22.6,209.73" /></g><g
         transform="scale(2.64965)"
         id="g362"><path
           id="path364"
           style="fill:#282e7a;fill-opacity:1;fill-rule:nonzero;stroke:none"
           d="m 16267.5,1807.86 c -9.4,14.68 -32.8,1.06 -23.4,-13.74 20.4,-32.15 28.5,-68.69 22,-106.35 -2.9,-17.06 23.2,-24.34 26.2,-7.13 7.7,44.83 -0.3,88.65 -24.8,127.22" /></g><g
         transform="scale(2.67649)"
         id="g366"><path
           id="path368"
           style="fill:#282e7a;fill-opacity:1;fill-rule:nonzero;stroke:none"
           d="m 16271.3,1875.52 c -65.2,-35.95 -140.1,-66.06 -192.8,7.62 -9.9,13.93 -33.2,0.52 -23.1,-13.6 23.3,-32.7 56.3,-55.3 96.9,-60.19 49.2,-5.94 91.2,20.17 132.6,43 15.1,8.33 1.5,31.53 -13.6,23.17" /></g><g
         transform="scale(2.68513)"
         id="g370"><path
           id="path372"
           style="fill:#2a3e8a;fill-opacity:1;fill-rule:nonzero;stroke:none"
           d="M 16138.9,4284.1 C 16300,3422.47 14462.2,2255.23 14460,2150.17 c -2.6,-122.41 591.8,76.76 1131.4,-52.33 311.3,-74.52 261.6,-699.25 120.8,-744.87 -762.3,-246.96 -1967.5,-421.249 -2329.9,-174.52 -548.4,373.43 598.6,2976.8 1257.6,3491.11 1009.2,787.48 1366.1,325.68 1499,-385.46" /></g><g
         transform="scale(2.45164)"
         id="g374"><path
           id="path376"
           style="fill:#4054a3;fill-opacity:1;fill-rule:nonzero;stroke:none"
           d="m 16288.7,4021.22 c -162.7,216.91 -239.8,481.31 -218.9,751.66 1.5,18.88 -27.9,18.96 -29.3,0.24 -21.3,-274.75 57.5,-546.28 222.8,-766.75 11.2,-14.93 36.7,-0.28 25.4,14.85" /></g><g
         transform="scale(2.39446)"
         id="g378"><path
           id="path380"
           style="fill:#4054a3;fill-opacity:1;fill-rule:nonzero;stroke:none"
           d="m 16264.1,4043.04 c -343.3,-577 -620,-1191.29 -824.9,-1830.72 -4.2,-13.24 11.1,-22.52 22.1,-16.92 67.1,34.08 135.8,55.5 209,66.49 -75.1,-89.38 -150.1,-178.92 -224.5,-268.83 -12.3,-14.79 9,-36.08 21.3,-21.13 83,100.23 166.4,200.08 250.3,299.65 7.4,8.72 3.4,26.93 -10.6,25.56 -80.3,-7.86 -155.3,-28.4 -227.9,-61.02 203,625.57 474.8,1226.62 811.2,1791.93 9.9,16.62 -16.1,31.61 -26,14.99" /></g><g
         transform="scale(2.54366)"
         id="g382"><path
           id="path384"
           style="fill:#4054a3;fill-opacity:1;fill-rule:nonzero;stroke:none"
           d="m 16281.8,1851.31 c -275,-6.14 -546.3,-50.44 -817.8,-91.25 -143,-21.47 -286.2,-41.75 -430.3,-53.94 -129.6,-10.93 -280.8,-28.78 -387.8,61.25 -13.8,11.64 -33.9,-8.33 -19.9,-20.09 80.5,-67.69 181.6,-80.31 283.7,-77.44 142.5,4.05 285.2,23.43 426.2,43.16 314.5,43.99 627.4,102.92 945.7,110.04 18.2,0.39 18.4,28.66 0.2,28.27" /></g><g
         transform="scale(2.58394)"
         id="g386"><path
           id="path388"
           style="fill:#4054a3;fill-opacity:1;fill-rule:nonzero;stroke:none"
           d="m 16282.4,1818.31 c -24.2,4.37 -48.4,8.74 -72.6,13.16 -17.5,3.17 -24.9,-23.65 -7.3,-26.86 24.2,-4.37 48.4,-8.75 72.5,-13.16 17.6,-3.17 25,23.65 7.4,26.86" /></g><g
         transform="scale(2.63307)"
         id="g390"><path
           id="path392"
           style="fill:#4054a3;fill-opacity:1;fill-rule:nonzero;stroke:none"
           d="m 16282.5,4058.45 c -204.2,-16.37 -406.2,8.05 -600.5,72.77 -16.7,5.54 -23.8,-20.82 -7.2,-26.36 196.5,-65.4 401.1,-90.27 607.5,-73.72 17.4,1.37 17.7,28.72 0.2,27.31" /></g><g
         transform="scale(2.41352)"
         id="g394"><path
           id="path396"
           style="fill:#4054a3;fill-opacity:1;fill-rule:nonzero;stroke:none"
           d="m 16264.7,4231.01 c -14.9,-26.06 -29.8,-52.13 -44.7,-78.19 -9.5,-16.7 16.3,-31.57 25.8,-14.91 14.9,26.06 29.8,52.12 44.7,78.22 9.5,16.66 -16.3,31.57 -25.8,14.88" /></g><g
         transform="scale(2.62466)"
         id="g398"><path
           id="path400"
           style="fill:#4054a3;fill-opacity:1;fill-rule:nonzero;stroke:none"
           d="m 16271.5,3984.9 c -192.7,-126.6 -383.4,-35.39 -557.4,73.99 -14.9,9.41 -28.6,-14.36 -13.7,-23.73 183.4,-115.26 383.8,-206.13 584.9,-73.88 14.7,9.64 0.9,33.38 -13.8,23.62" /></g><g
         transform="scale(2.5851)"
         id="g402"><path
           id="path404"
           style="fill:#4054a3;fill-opacity:1;fill-rule:nonzero;stroke:none"
           d="m 16282.1,4050.99 c -17.9,0 -18.1,-27.82 -0.2,-27.82 17.9,0 18.1,27.82 0.2,27.82" /></g><g
         transform="scale(2.62011)"
         id="g406"><path
           id="path408"
           style="fill:#ffc891;fill-opacity:1;fill-rule:nonzero;stroke:none"
           d="m 15135.1,10198.6 c 0,0 -22.3,-1084.18 482.9,-1122.04 505.3,-37.9 682,691.39 674.7,780.01 -7.2,88.66 -507,316.43 -744,364.93 -237,48.5 -413.6,-22.9 -413.6,-22.9" /></g><g
         transform="scale(2.65215)"
         id="g410"><path
           id="path412"
           style="fill:#ffb76e;fill-opacity:1;fill-rule:nonzero;stroke:none"
           d="m 15510.7,9541.34 c 49.2,-413.29 110.9,-878.46 116.4,-933.28 5.5,-54.86 672.9,50.68 658.4,152.1 -14.5,101.43 -165.5,751.02 -177.7,935.77 -12.2,184.76 -613.9,-13.42 -597.1,-154.59" /></g><g
         transform="scale(2.6597)"
         id="g414"><path
           id="path416"
           style="fill:#192438;fill-opacity:1;fill-rule:nonzero;stroke:none"
           d="m 16235.1,9776.74 c -20.4,36.06 -49.9,67.42 -74.3,101.77 -39.2,55.39 -12.2,99.8 -21.8,155.19 -12.4,72.2 -79.3,130.1 -150.4,173.4 -43.1,26.2 -95,46.3 -134.7,75.9 -60.3,45 -64.3,92 -83.3,149.5 -20.8,62.7 -81.6,137.9 -163.6,158.5 -34.8,8.7 -56.3,-0.8 -88.8,-4.4 -111.6,-12.5 -155.4,59.7 -211.5,124.9 -98,113.6 -298,146.8 -328.7,-6.5 -4.3,-21.9 -2.6,-49.3 -14.7,-69 -18.9,-30.9 -30.1,-18 -62.3,-5 -35.5,14.4 -57.4,25.5 -97.9,20.1 -74.3,-10 -109.3,-66.3 -119.9,-122.4 -30.1,-159.4 60.6,-338.5 204.4,-460.9 35.5,-30.3 75.1,-57.6 117.5,-80.97 74.2,-41.02 146.2,-63.79 169.6,-139.87 22.9,-74.77 65,-132.93 151.5,-167.94 26.8,-68.24 53.7,-136.48 81.9,-204.38 23.4,-56.4 61.5,-125.16 142.2,-139 30.4,-5.23 57.5,0.9 83,11.51 17.3,7.25 33.6,22.97 52.2,27.67 55.2,13.95 89.9,-10.34 122.9,-44.03 49.9,-50.83 120.2,-104.07 200.6,-113.32 75.4,-8.72 99.2,31.81 111.5,83.17 13,54.66 31.9,104.56 68.4,150.54 26.3,33.16 64,62.19 80.9,100.31 30.2,68.21 3.8,157.09 -34.7,225.25" /></g><g
         transform="scale(2.52842)"
         id="g418"><path
           id="path420"
           style="fill:#ffc891;fill-opacity:1;fill-rule:nonzero;stroke:none"
           d="m 16279.2,10084 c -21.4,-114.23 -51.3,-220.98 -112.7,-222.24 -61.4,-1.31 -121.8,104.02 -124.2,220.24 -2.5,116.2 43.7,227.3 140.1,207.4 66.2,-13.8 117.6,-94.7 96.8,-205.4" /></g><g
         transform="scale(2.49534)"
         id="g422"><path
           id="path424"
           style="fill:#1f2c45;fill-opacity:1;fill-rule:nonzero;stroke:none"
           d="m 16293.2,10506.8 c -21.1,53.2 -42.6,108.7 -80.6,152.4 -43.3,49.8 -99.3,65.7 -158.9,88 -185.4,69.5 -301.4,240.5 -301.6,438 -0.1,18.6 -28.9,18.8 -28.9,0.2 0.2,-150.7 62.6,-293.2 181.7,-387.9 52.1,-41.4 109.2,-66.2 171.3,-88.4 106.4,-38 149.2,-108.7 189.1,-209.7 6.8,-17.1 34.7,-9.8 27.9,7.4" /></g><g
         transform="scale(2.51396)"
         id="g426"><path
           id="path428"
           style="fill:#1f2c45;fill-opacity:1;fill-rule:nonzero;stroke:none"
           d="m 16290.9,10447.4 c -38.6,67.8 -59.8,152.3 -123.3,202.5 -77.4,61.1 -188.5,49.7 -254.5,129.2 -11.7,14.2 -31.8,-6.3 -20.1,-20.3 49.8,-60 120.2,-71.4 190.1,-96.8 109.5,-40 131.1,-137.6 183.1,-229.1 9.1,-15.9 33.8,-1.5 24.7,14.5" /></g><g
         transform="scale(2.54269)"
         id="g430"><path
           id="path432"
           style="fill:#1f2c45;fill-opacity:1;fill-rule:nonzero;stroke:none"
           d="m 16286.2,9845.06 c -76.3,66.5 8.7,185.44 -10.2,271.84 -18.2,83.2 -88,117.5 -138.6,178.7 -11.6,14 -31.4,-6.1 -19.9,-20.1 27.9,-33.8 66,-56.5 94,-89.9 53.5,-63.7 41,-128.5 23.5,-202.54 -13.5,-57.22 -16.6,-116.29 31.3,-158.14 13.7,-11.88 33.7,8.14 19.9,20.14" /></g><g
         transform="scale(2.56464)"
         id="g434"><path
           id="path436"
           style="fill:#1f2c45;fill-opacity:1;fill-rule:nonzero;stroke:none"
           d="m 16283.7,9789.8 c -81.7,38.88 -29.8,135.42 -40.9,203.81 -8.8,54.09 -37.5,101.99 -69.5,145.49 -10.5,14.3 -34.8,0.3 -24.2,-14.3 25.8,-35.1 50.2,-72.5 61.6,-115.1 13.8,-52.08 -7.2,-90.52 -8.6,-140.98 -1.4,-47.26 26.2,-83.48 67.6,-103.21 16.2,-7.72 30.3,16.49 14,24.29" /></g><g
         transform="scale(2.6012)"
         id="g438"><path
           id="path440"
           style="fill:#1f2c45;fill-opacity:1;fill-rule:nonzero;stroke:none"
           d="m 16116.9,9778.44 c -1.8,17.49 -29.5,17.84 -27.6,0.19 4.1,-39.64 23.5,-69.2 53.6,-94.99 44.2,-37.83 121,-68.59 108.5,-140.17 -3.1,-17.41 23.6,-24.83 26.6,-7.3 22,125.9 -149.8,134.01 -161.1,242.27" /></g><g
         transform="scale(2.56848)"
         id="g442"><path
           id="path444"
           style="fill:#1f2c45;fill-opacity:1;fill-rule:nonzero;stroke:none"
           d="m 16251.1,10071 c -11.5,13.9 -31.1,-6.1 -19.7,-19.9 20.9,-25 33.4,-54.33 38.7,-86.45 2.9,-17.75 29.9,-10.39 27,7.24 -6,37.11 -22,70.31 -46,99.11" /></g><g
         transform="scale(2.61599)"
         id="g446"><path
           id="path448"
           style="fill:#1f2c45;fill-opacity:1;fill-rule:nonzero;stroke:none"
           d="m 16270.8,9581.96 c -26.6,49.28 -95.9,68.16 -114.1,119.31 -5.8,16.55 -32.4,9.59 -26.5,-7.11 12.9,-36.39 38,-53.02 68.3,-74.51 63.2,-44.72 70.4,-112.53 73.3,-185.13 0.7,-17.66 28.2,-17.89 27.5,-0.19 -2,49.85 -4.2,102.68 -28.5,147.63" /></g><g
         transform="scale(2.44427)"
         id="g450"><path
           id="path452"
           style="fill:#1f2c45;fill-opacity:1;fill-rule:nonzero;stroke:none"
           d="m 16288.5,11170.4 c -44.3,58.1 -87.7,117.3 -99.3,191.2 -3,18.7 -31.4,11 -28.5,-7.6 12.1,-76.3 56.6,-138.3 102.4,-198.5 11.3,-14.8 36.9,-0.1 25.4,14.9" /></g><g
         transform="scale(2.10114)"
         id="g454"><path
           id="path456"
           style="fill:#2e3192;fill-opacity:1;fill-rule:nonzero;stroke:none"
           d="m 15001.9,8212.8 c 0,0 252,-200.84 472.2,-171.39 220.3,29.47 739.8,2571.99 782.9,2798.29 43,226.4 -65.4,169.8 -131.9,22.5 -66.5,-147.2 -732.6,-2480.54 -740.6,-2507 -8,-26.46 -325.5,37.88 -341.4,30.7 -16,-7.19 -70,-151.92 -41.2,-173.1" /></g><g
         transform="scale(2.00256)"
         id="g458"><path
           id="path460"
           style="fill:#2e3192;fill-opacity:1;fill-rule:nonzero;stroke:none"
           d="m 15911.6,9138.26 307,-104.32 81.4,283.24 c 0,0 -330.3,-46.44 -351,-65.07 -20.6,-18.57 -58.4,-106.66 -37.4,-113.85" /></g><g
         transform="scale(2.15517)"
         id="g462"><path
           id="path464"
           style="fill:#ffc891;fill-opacity:1;fill-rule:nonzero;stroke:none"
           d="m 16266.6,10212.8 c -43.4,286 -257.2,429.8 -433.6,459.4 -176.3,29.7 -463.7,-244 -431.1,-402 24.2,-117.2 220.9,43.3 284.6,-114.7 134.1,-332.59 613.5,-161.98 580.1,57.3" /></g><g
         transform="scale(2.89563)"
         id="g466"><path
           id="path468"
           style="fill:#d64511;fill-opacity:1;fill-rule:nonzero;stroke:none"
           d="m 15376,6831.25 c -444.6,-209.93 -1263.2,-369.28 -1778.8,-293.78 -437.6,64.06 -1575.3,768.71 -1678.9,897.9 -63.8,79.43 31.3,311.23 172.9,264.54 101.4,-33.43 1331.5,-374.91 1562.4,-383.51 290,-10.84 850.2,390.55 1444.1,624.8 558.5,220.3 1202.3,-673.7 278.3,-1109.95" /></g><g
         transform="scale(2.6748)"
         id="g470"><path
           id="path472"
           style="fill:#ff5f26;fill-opacity:1;fill-rule:nonzero;stroke:none"
           d="m 15352.5,8755.93 c 0,0 54.3,137.43 167.4,169.77 113.2,32.34 578,52.53 650.8,0 72.7,-52.56 129.3,-206.56 129.3,-206.56 l -947.5,36.79" /></g><g
         transform="scale(2.88499)"
         id="g474"><path
           id="path476"
           style="fill:#f15a24;fill-opacity:1;fill-rule:nonzero;stroke:none"
           d="m 15835.4,3913.6 c -74.3,-359.83 -2378.3,80.38 -2309.5,416.25 325.9,1593.59 -440,3155.71 101.4,3622.82 382.3,329.77 1791,267.9 2174.7,-179.45 498,-580.66 213.6,-2986.31 33.4,-3859.62" /></g><g
         transform="scale(2.60293)"
         id="g478"><path
           id="path480"
           style="fill:#ff5f26;fill-opacity:1;fill-rule:nonzero;stroke:none"
           d="m 16236.3,8062.19 c -1,17.68 -28.7,17.98 -27.6,0.2 63.7,-1034.07 -330.5,-2028.18 -318.1,-3059.75 0.2,-17.79 27.8,-17.98 27.6,-0.19 -12.4,1031.53 381.8,2025.56 318.1,3059.74" /></g><g
         transform="scale(2.84171)"
         id="g482"><path
           id="path484"
           style="fill:#ff5f26;fill-opacity:1;fill-rule:nonzero;stroke:none"
           d="m 16086.2,7442.87 c -3.4,15.91 -27.9,9.33 -24.4,-6.54 213.2,-984.23 -74.1,-1979.87 -92.5,-2968.07 -0.3,-16.33 25,-16.47 25.3,-0.21 18.4,990.84 305.4,1987.95 91.6,2974.82" /></g><g
         transform="scale(2.71285)"
         id="g486"><path
           id="path488"
           style="fill:#ff5f26;fill-opacity:1;fill-rule:nonzero;stroke:none"
           d="m 16285.4,8467.05 c -157.7,94.51 -361.1,107.71 -540.4,124 -215.3,19.57 -431.6,18.87 -646.9,-0.08 -16.9,-1.47 -17.2,-28.01 -0.2,-26.5 198.1,17.4 397,19.5 595.3,4.39 189,-14.41 412.4,-24.92 578.9,-124.74 14.7,-8.81 27.9,14.15 13.3,22.93" /></g><g
         transform="scale(2.73252)"
         id="g490"><path
           id="path492"
           style="fill:#ff5f26;fill-opacity:1;fill-rule:nonzero;stroke:none"
           d="m 16283.2,4512.36 c -312.6,16.84 -624.1,49.04 -933.3,98.04 -146.1,23.17 -291.7,49.78 -436.5,80.33 -142.9,30.16 -286.6,67.34 -404.6,157.62 -13.3,10.14 -32,-8.41 -18.5,-18.73 104.1,-79.64 225.7,-120.85 352.3,-150.23 156.9,-36.42 316.1,-64.67 475.2,-90.32 319.6,-51.6 641.9,-85.64 965.1,-103.02 17,-0.92 17.1,25.43 0.3,26.31" /></g><g
         transform="scale(2.79402)"
         id="g494"><path
           id="path496"
           style="fill:#ff5f26;fill-opacity:1;fill-rule:nonzero;stroke:none"
           d="m 16277,4405.12 c -69.3,-10.55 -138.7,-13.7 -208.7,-10.02 -16.5,0.9 -16.7,-24.87 -0.2,-25.73 72.4,-3.83 144,-0.04 215.5,10.88 16.4,2.5 9.6,27.34 -6.6,24.87" /></g><g
         transform="scale(2.79175)"
         id="g498"><path
           id="path500"
           style="fill:#ff5f26;fill-opacity:1;fill-rule:nonzero;stroke:none"
           d="m 16288.8,7924.71 c -93.7,102.12 -203.9,183.65 -329,243.32 -14.9,7.1 -27.8,-15.15 -12.9,-22.31 123.2,-58.75 231.5,-138.8 323.8,-239.35 11.2,-12.21 29.3,6.13 18.1,18.34" /></g><g
         transform="scale(2.43562)"
         id="g502"><path
           id="path504"
           style="fill:#ff5f26;fill-opacity:1;fill-rule:nonzero;stroke:none"
           d="m 16213.2,6564.69 c -1.8,18.77 -31.3,19.1 -29.6,0.21 28.5,-311.01 87.4,-637.42 34.4,-948.3 -3.2,-18.6 25.2,-26.52 28.4,-7.8 53.6,313.88 -4.5,641.85 -33.2,955.89" /></g><g
         transform="scale(1.99475)"
         id="g506"><path
           id="path508"
           style="fill:#ffc891;fill-opacity:1;fill-rule:nonzero;stroke:none"
           d="m 16237.9,8799.96 c -61.3,169.39 -307,392.83 -503.6,455.89 -196.6,63.07 -609.4,21.76 -631.9,-92.29 -27.2,-138.36 340.1,-172.75 396.9,-299.99 56.9,-127.28 -200.5,2.21 -259.3,-57.4 -58.9,-59.55 215,-222.28 371,-287.55 172.4,-72.14 374.2,-104.68 481.9,-76.45 92,24.11 207.1,186.39 145,357.79" /></g><g
         transform="scale(2.62303)"
         id="g510"><path
           id="path512"
           style="fill:#ff5f26;fill-opacity:1;fill-rule:nonzero;stroke:none"
           d="m 15831.2,7579.4 c -239.8,-576.28 -667.4,-1318.36 -1218.9,-1608.33 -468.2,-246.17 -2282,328.89 -2362.3,411.36 -80.4,82.5 -36,356.76 89.9,368.46 126,11.74 1545.8,-72.7 1792,55.05 97.9,50.86 437,1153.63 712.8,1752.78 300.8,653.37 1455.3,147.89 986.5,-979.32" /></g><g
         transform="scale(2.55758)"
         id="g514"><path
           id="path516"
           style="fill:#c23e0f;fill-opacity:1;fill-rule:nonzero;stroke:none"
           d="m 16269.4,8123.27 c -156.3,-806.27 -641.5,-1532.7 -1327.3,-1984.76 -15,-9.94 -0.9,-34.26 14.2,-24.29 691.7,455.94 1182.6,1188.24 1340.3,2001.63 3.4,17.67 -23.7,25.18 -27.2,7.42" /></g><g
         transform="scale(2.5587)"
         id="g518"><path
           id="path520"
           style="fill:#c23e0f;fill-opacity:1;fill-rule:nonzero;stroke:none"
           d="m 16160.9,8783.06 c -7.6,16.41 -31.8,2.11 -24.3,-14.23 66.9,-145.7 111.3,-298.28 133.7,-456.95 2.6,-17.86 29.7,-10.44 27.2,7.27 -22.8,161.21 -68.7,315.98 -136.6,463.91" /></g><g
         transform="scale(1.97998)"
         id="g522"><path
           id="path524"
           style="fill:#c23e0f;fill-opacity:1;fill-rule:nonzero;stroke:none"
           d="m 16283.8,8481.42 c -59.6,61.97 -86.4,144.8 -72.7,229.9 3.6,22.88 -31.4,32.68 -35,9.6 -15.9,-98.34 12.9,-193.34 82.1,-265.31 16.2,-16.87 41.8,8.94 25.6,25.81" /></g><g
         transform="scale(1.97863)"
         id="g526"><path
           id="path528"
           style="fill:#9ed9ff;fill-opacity:1;fill-rule:nonzero;stroke:none"
           d="M 16300,10104 H 6772.51 v 409.3 h 9225.59 c 166.8,0 301.9,-135.2 301.9,-302 V 10104" /></g><g
         transform="scale(1.99204)"
         id="g530"><path
           id="path532"
           style="fill:#ccebff;fill-opacity:1;fill-rule:nonzero;stroke:none"
           d="M 14875.7,16300 H 6726.94 V 10442.5 H 14875.7 V 16300" /></g><g
         transform="scale(1.99204)"
         id="g534"><path
           id="path536"
           style="fill:#ffffff;fill-opacity:1;fill-rule:nonzero;stroke:none"
           d="m 14521.2,16300 h -3443.5 v -5514.8 h 3443.5 V 16300" /></g><g
         transform="scale(1.99204)"
         id="g538"><path
           id="path540"
           style="fill:#ffffff;fill-opacity:1;fill-rule:nonzero;stroke:none"
           d="M 10630.7,16300 H 7187.17 V 10785.2 H 10630.7 V 16300" /></g><g
         transform="scale(1.15119)"
         id="g542"><path
           id="path544"
           style="fill:#4ac2ff;fill-opacity:1;fill-rule:nonzero;stroke:none"
           d="M 9273.79,15965.2 H 4639.47 c -92.45,0 -167.35,75 -167.35,167.4 0,92.4 74.9,167.4 167.35,167.4 h 4634.32 c 92.43,0 167.31,-75 167.31,-167.4 0,-92.4 -74.88,-167.4 -167.31,-167.4" /></g><g
         transform="scale(1.15119)"
         id="g546"><path
           id="path548"
           style="fill:#4ac2ff;fill-opacity:1;fill-rule:nonzero;stroke:none"
           d="M 13824.2,10139.9 H 7013 c -92.45,0 -167.35,74.9 -167.35,167.3 v 5825.4 c 0,92.4 74.9,167.4 167.35,167.4 92.46,0 167.36,-75 167.36,-167.4 v -5658 h 6643.84 c 92.4,0 167.3,-74.9 167.3,-167.4 0,-92.4 -74.9,-167.3 -167.3,-167.3" /></g><g
         transform="scale(1.00559)"
         id="g550"><path
           id="path552"
           style="fill:#4ac2ff;fill-opacity:1;fill-rule:nonzero;stroke:none"
           d="m 16300,11799.6 c 0,-261.8 -212.3,-474.1 -474.2,-474.1 -261.9,0 -474.2,212.3 -474.2,474.1 0,262 212.3,474.3 474.2,474.3 261.9,0 474.2,-212.3 474.2,-474.3" /></g><g
         transform="scale(2.21047)"
         id="g554"><path
           id="path556"
           style="fill:#4ac2ff;fill-opacity:1;fill-rule:nonzero;stroke:none"
           d="M 6850.86,8878.67 H 808.824 c -416.484,0 -754.1092,337.62 -754.1092,754.09 v 5913.14 c 0,416.5 337.6252,754.1 754.1092,754.1 H 6850.86 c 416.52,0 754.14,-337.6 754.14,-754.1 V 9632.76 c 0,-416.47 -337.62,-754.09 -754.14,-754.09" /></g><g
         transform="scale(2.21789)"
         id="g558"><path
           id="path560"
           style="fill:#2aa3d3;fill-opacity:1;fill-rule:nonzero;stroke:none"
           d="m 806.123,16190.9 c -384.35,0 -697.049,-312.7 -697.049,-697 V 9600.48 c 0,-384.33 312.699,-697.02 697.049,-697.02 H 6827.98 c 384.33,0 697.01,312.69 697.01,697.02 v 5893.42 c 0,384.3 -312.68,697 -697.01,697 z M 6827.98,8794.4 H 806.123 C 361.626,8794.4 0,9156 0,9600.48 v 5893.42 c 0,444.5 361.626,806.1 806.123,806.1 H 6827.98 c 444.47,0 806.13,-361.6 806.13,-806.1 V 9600.48 c 0,-444.48 -361.66,-806.08 -806.13,-806.08" /></g><g
         transform="scale(2.01433)"
         id="g562"><path
           id="path564"
           style="fill:#4483c2;fill-opacity:1;fill-rule:nonzero;stroke:none"
           d="M 1230.67,11355.8 H 5959.09 V 16300 H 1230.67 v -4944.2" /></g><g
         transform="scale(2.02747)"
         id="g566"><path
           id="path568"
           style="fill:#c9eaff;fill-opacity:1;fill-rule:nonzero;stroke:none"
           d="m 5380.56,11193.9 h 519.71 c 70.63,0 127.95,57.3 127.95,128 V 16172 c 0,70.7 -57.32,128 -127.95,128 h -519.71 c -70.68,0 -127.94,-57.3 -127.94,-128 v -4850.1 c 0,-70.7 57.26,-128 127.94,-128" /></g><g
         transform="scale(2.00375)"
         id="g570"><path
           id="path572"
           style="fill:#addfff;fill-opacity:1;fill-rule:nonzero;stroke:none"
           d="m 5902.59,15786.6 h 196.98 v 513.4 h -196.98 c -75.41,0 -136.55,-61.1 -136.55,-136.5 v -240.3 c 0,-75.5 61.14,-136.6 136.55,-136.6" /></g><g
         transform="scale(2.00375)"
         id="g574"><path
           id="path576"
           style="fill:#addfff;fill-opacity:1;fill-rule:nonzero;stroke:none"
           d="m 5511.77,16300 h -196.98 v -513.4 h 196.98 c 75.41,0 136.54,61.1 136.54,136.6 v 240.3 c 0,75.4 -61.13,136.5 -136.54,136.5" /></g><g
         transform="scale(2.00375)"
         id="g578"><path
           id="path580"
           style="fill:#87d0ff;fill-opacity:1;fill-rule:nonzero;stroke:none"
           d="m 5839.61,16300 h 259.96 v -95.9 h -259.96 c -40.63,0 -73.57,-33 -73.57,-73.6 v 95.9 c 0,40.7 32.94,73.6 73.57,73.6" /></g><g
         transform="scale(2.00375)"
         id="g582"><path
           id="path584"
           style="fill:#87d0ff;fill-opacity:1;fill-rule:nonzero;stroke:none"
           d="m 5574.75,16300 c 40.63,0 73.56,-32.9 73.56,-73.6 v -95.9 c 0,40.6 -32.93,73.6 -73.56,73.6 h -259.96 v 95.9 h 259.96" /></g><g
         transform="scale(1.40334)"
         id="g586"><path
           id="path588"
           style="fill:#addfff;fill-opacity:1;fill-rule:nonzero;stroke:none"
           d="m 8609.62,16172.4 h -921.3 c -55.02,0 -99.62,44.6 -99.62,99.6 v 28 h 1120.54 v -28 c 0,-55 -44.61,-99.6 -99.62,-99.6" /></g><g
         transform="scale(2.02747)"
         id="g590"><path
           id="path592"
           style="fill:#def2ff;fill-opacity:1;fill-rule:nonzero;stroke:none"
           d="m 5252.62,16194.4 v 36.7 c 0,38 30.87,68.9 68.95,68.9 h 637.69 c 38.08,0 68.96,-30.9 68.96,-68.9 v -36.7 h -775.6" /></g><g
         transform="scale(2.02747)"
         id="g594"><path
           id="path596"
           style="fill:#c9eaff;fill-opacity:1;fill-rule:nonzero;stroke:none"
           d="m 4541.61,11193.9 h 519.69 c 70.68,0 127.99,57.3 127.99,128 V 16172 c 0,70.7 -57.31,128 -127.99,128 h -519.69 c -70.67,0 -127.95,-57.3 -127.95,-128 v -4850.1 c 0,-70.7 57.28,-128 127.95,-128" /></g><g
         transform="scale(2.00375)"
         id="g598"><path
           id="path600"
           style="fill:#addfff;fill-opacity:1;fill-rule:nonzero;stroke:none"
           d="m 5053.68,15786.6 h 197.03 v 513.4 h -197.03 c -75.4,0 -136.53,-61.1 -136.53,-136.5 v -240.3 c 0,-75.5 61.13,-136.6 136.53,-136.6" /></g><g
         transform="scale(2.00375)"
         id="g602"><path
           id="path604"
           style="fill:#addfff;fill-opacity:1;fill-rule:nonzero;stroke:none"
           d="M 4662.89,16300 H 4465.9 v -513.4 h 196.99 c 75.42,0 136.54,61.1 136.54,136.6 v 240.3 c 0,75.4 -61.12,136.5 -136.54,136.5" /></g><g
         transform="scale(2.00375)"
         id="g606"><path
           id="path608"
           style="fill:#87d0ff;fill-opacity:1;fill-rule:nonzero;stroke:none"
           d="m 4990.75,16300 h 259.96 v -95.9 h -259.96 c -40.66,0 -73.59,-33 -73.59,-73.6 v 95.9 c 0,40.7 32.93,73.6 73.59,73.6" /></g><g
         transform="scale(2.00375)"
         id="g610"><path
           id="path612"
           style="fill:#87d0ff;fill-opacity:1;fill-rule:nonzero;stroke:none"
           d="m 4725.86,16300 c 40.64,0 73.58,-32.9 73.58,-73.6 v -95.9 c 0,40.6 -32.94,73.6 -73.58,73.6 h -259.95 v 95.9 h 259.95" /></g><g
         transform="scale(1.40334)"
         id="g614"><path
           id="path616"
           style="fill:#addfff;fill-opacity:1;fill-rule:nonzero;stroke:none"
           d="m 7397.58,16172.4 h -921.35 c -55.02,0 -99.61,44.6 -99.61,99.6 v 28 H 7497.2 v -28 c 0,-55 -44.61,-99.6 -99.62,-99.6" /></g><g
         transform="scale(2.02747)"
         id="g618"><path
           id="path620"
           style="fill:#def2ff;fill-opacity:1;fill-rule:nonzero;stroke:none"
           d="m 4413.66,16194.4 v 36.7 c 0,38 30.87,68.9 68.95,68.9 h 637.73 c 38.07,0 68.95,-30.9 68.95,-68.9 v -36.7 h -775.63" /></g><g
         transform="scale(2.02747)"
         id="g622"><path
           id="path624"
           style="fill:#c9eaff;fill-opacity:1;fill-rule:nonzero;stroke:none"
           d="m 3702.67,11193.9 h 519.71 c 70.67,0 127.94,57.3 127.94,128 V 16172 c 0,70.7 -57.27,128 -127.94,128 h -519.71 c -70.67,0 -127.95,-57.3 -127.95,-128 v -4850.1 c 0,-70.7 57.28,-128 127.95,-128" /></g><g
         transform="scale(2.00375)"
         id="g626"><path
           id="path628"
           style="fill:#addfff;fill-opacity:1;fill-rule:nonzero;stroke:none"
           d="m 4204.81,15786.6 h 197 v 513.4 h -197 c -75.4,0 -136.54,-61.1 -136.54,-136.5 v -240.3 c 0,-75.5 61.14,-136.6 136.54,-136.6" /></g><g
         transform="scale(2.00375)"
         id="g630"><path
           id="path632"
           style="fill:#addfff;fill-opacity:1;fill-rule:nonzero;stroke:none"
           d="m 3814.03,16300 h -197 v -513.4 h 197 c 75.4,0 136.53,61.1 136.53,136.6 v 240.3 c 0,75.4 -61.13,136.5 -136.53,136.5" /></g><g
         transform="scale(2.00375)"
         id="g634"><path
           id="path636"
           style="fill:#87d0ff;fill-opacity:1;fill-rule:nonzero;stroke:none"
           d="m 4141.85,16300 h 259.96 v -95.9 h -259.96 c -40.63,0 -73.57,-33 -73.57,-73.6 v 95.9 c 0,40.7 32.94,73.6 73.57,73.6" /></g><g
         transform="scale(2.00375)"
         id="g638"><path
           id="path640"
           style="fill:#87d0ff;fill-opacity:1;fill-rule:nonzero;stroke:none"
           d="m 3876.99,16300 c 40.63,0 73.58,-32.9 73.58,-73.6 v -95.9 c 0,40.6 -32.95,73.6 -73.58,73.6 h -259.96 v 95.9 h 259.96" /></g><g
         transform="scale(1.40334)"
         id="g642"><path
           id="path644"
           style="fill:#addfff;fill-opacity:1;fill-rule:nonzero;stroke:none"
           d="m 6185.51,16172.4 h -921.35 c -55.01,0 -99.6,44.6 -99.6,99.6 v 28 h 1120.55 v -28 c 0,-55 -44.6,-99.6 -99.6,-99.6" /></g><g
         transform="scale(2.02747)"
         id="g646"><path
           id="path648"
           style="fill:#def2ff;fill-opacity:1;fill-rule:nonzero;stroke:none"
           d="m 3574.72,16194.4 v 36.7 c 0,38 30.87,68.9 68.94,68.9 h 637.72 c 38.07,0 68.94,-30.9 68.94,-68.9 v -36.7 h -775.6" /></g><g
         transform="scale(2.02747)"
         id="g650"><path
           id="path652"
           style="fill:#c9eaff;fill-opacity:1;fill-rule:nonzero;stroke:none"
           d="m 2863.72,11193.9 h 519.71 c 70.67,0 127.95,57.3 127.95,128 V 16172 c 0,70.7 -57.28,128 -127.95,128 h -519.71 c -70.67,0 -127.95,-57.3 -127.95,-128 v -4850.1 c 0,-70.7 57.28,-128 127.95,-128" /></g><g
         transform="scale(2.00375)"
         id="g654"><path
           id="path656"
           style="fill:#addfff;fill-opacity:1;fill-rule:nonzero;stroke:none"
           d="m 3355.94,15786.6 h 197 v 513.4 h -197 c -75.4,0 -136.54,-61.1 -136.54,-136.5 v -240.3 c 0,-75.5 61.14,-136.6 136.54,-136.6" /></g><g
         transform="scale(2.00375)"
         id="g658"><path
           id="path660"
           style="fill:#addfff;fill-opacity:1;fill-rule:nonzero;stroke:none"
           d="m 2965.15,16300 h -197 v -513.4 h 197 c 75.41,0 136.54,61.1 136.54,136.6 v 240.3 c 0,75.4 -61.13,136.5 -136.54,136.5" /></g><g
         transform="scale(2.00375)"
         id="g662"><path
           id="path664"
           style="fill:#87d0ff;fill-opacity:1;fill-rule:nonzero;stroke:none"
           d="m 3292.98,16300 h 259.96 v -95.9 h -259.96 c -40.64,0 -73.57,-33 -73.57,-73.6 v 95.9 c 0,40.7 32.93,73.6 73.57,73.6" /></g><g
         transform="scale(2.00375)"
         id="g666"><path
           id="path668"
           style="fill:#87d0ff;fill-opacity:1;fill-rule:nonzero;stroke:none"
           d="m 3028.12,16300 c 40.62,0 73.57,-32.9 73.57,-73.6 v -95.9 c 0,40.6 -32.95,73.6 -73.57,73.6 h -259.96 v 95.9 h 259.96" /></g><g
         transform="scale(1.40334)"
         id="g670"><path
           id="path672"
           style="fill:#addfff;fill-opacity:1;fill-rule:nonzero;stroke:none"
           d="M 4973.45,16172.4 H 4052.1 c -55.01,0 -99.6,44.6 -99.6,99.6 v 28 h 1120.54 v -28 c 0,-55 -44.59,-99.6 -99.59,-99.6" /></g><g
         transform="scale(2.02747)"
         id="g674"><path
           id="path676"
           style="fill:#def2ff;fill-opacity:1;fill-rule:nonzero;stroke:none"
           d="m 2735.78,16194.4 v 36.7 c 0,38 30.86,68.9 68.93,68.9 h 637.73 c 38.07,0 68.94,-30.9 68.94,-68.9 v -36.7 h -775.6" /></g><g
         transform="scale(2.02747)"
         id="g678"><path
           id="path680"
           style="fill:#c9eaff;fill-opacity:1;fill-rule:nonzero;stroke:none"
           d="m 2024.77,11193.9 h 519.72 c 70.66,0 127.95,57.3 127.95,128 V 16172 c 0,70.7 -57.29,128 -127.95,128 h -519.72 c -70.66,0 -127.94,-57.3 -127.94,-128 v -4850.1 c 0,-70.7 57.28,-128 127.94,-128" /></g><g
         transform="scale(2.00375)"
         id="g682"><path
           id="path684"
           style="fill:#addfff;fill-opacity:1;fill-rule:nonzero;stroke:none"
           d="m 2507.07,15786.6 h 197 v 513.4 h -197 c -75.41,0 -136.54,-61.1 -136.54,-136.5 v -240.3 c 0,-75.5 61.13,-136.6 136.54,-136.6" /></g><g
         transform="scale(2.00375)"
         id="g686"><path
           id="path688"
           style="fill:#addfff;fill-opacity:1;fill-rule:nonzero;stroke:none"
           d="m 2116.28,16300 h -197 v -513.4 h 197 c 75.4,0 136.53,61.1 136.53,136.6 v 240.3 c 0,75.4 -61.13,136.5 -136.53,136.5" /></g><g
         transform="scale(2.00375)"
         id="g690"><path
           id="path692"
           style="fill:#87d0ff;fill-opacity:1;fill-rule:nonzero;stroke:none"
           d="m 2444.1,16300 h 259.96 v -95.9 H 2444.1 c -40.63,0 -73.57,-33 -73.57,-73.6 v 95.9 c 0,40.7 32.94,73.6 73.57,73.6" /></g><g
         transform="scale(2.00375)"
         id="g694"><path
           id="path696"
           style="fill:#87d0ff;fill-opacity:1;fill-rule:nonzero;stroke:none"
           d="m 2179.24,16300 c 40.63,0 73.57,-32.9 73.57,-73.6 v -95.9 c 0,40.6 -32.94,73.6 -73.57,73.6 h -259.96 v 95.9 h 259.96" /></g><g
         transform="scale(1.40334)"
         id="g698"><path
           id="path700"
           style="fill:#addfff;fill-opacity:1;fill-rule:nonzero;stroke:none"
           d="m 3761.39,16172.4 h -921.35 c -55.01,0 -99.6,44.6 -99.6,99.6 v 28 h 1120.54 v -28 c 0,-55 -44.59,-99.6 -99.59,-99.6" /></g><g
         transform="scale(2.02747)"
         id="g702"><path
           id="path704"
           style="fill:#def2ff;fill-opacity:1;fill-rule:nonzero;stroke:none"
           d="m 1896.83,16194.4 v 36.7 c 0,38 30.87,68.9 68.94,68.9 h 637.72 c 38.07,0 68.94,-30.9 68.94,-68.9 v -36.7 h -775.6" /></g><g
         transform="scale(2.02747)"
         id="g706"><path
           id="path708"
           style="fill:#c9eaff;fill-opacity:1;fill-rule:nonzero;stroke:none"
           d="m 1185.83,11193.9 h 519.71 c 70.67,0 127.95,57.3 127.95,128 V 16172 c 0,70.7 -57.28,128 -127.95,128 h -519.71 c -70.67,0 -127.95,-57.3 -127.95,-128 v -4850.1 c 0,-70.7 57.28,-128 127.95,-128" /></g><g
         transform="scale(2.00375)"
         id="g710"><path
           id="path712"
           style="fill:#addfff;fill-opacity:1;fill-rule:nonzero;stroke:none"
           d="m 1658.19,15786.6 h 197 v 513.4 h -197 c -75.4,0 -136.53,-61.1 -136.53,-136.5 v -240.3 c 0,-75.5 61.13,-136.6 136.53,-136.6" /></g><g
         transform="scale(2.00375)"
         id="g714"><path
           id="path716"
           style="fill:#addfff;fill-opacity:1;fill-rule:nonzero;stroke:none"
           d="m 1267.4,16300 h -197 v -513.4 h 197 c 75.41,0 136.54,61.1 136.54,136.6 v 240.3 c 0,75.4 -61.13,136.5 -136.54,136.5" /></g><g
         transform="scale(2.00375)"
         id="g718"><path
           id="path720"
           style="fill:#87d0ff;fill-opacity:1;fill-rule:nonzero;stroke:none"
           d="m 1595.23,16300 h 259.96 v -95.9 h -259.96 c -40.63,0 -73.57,-33 -73.57,-73.6 v 95.9 c 0,40.7 32.94,73.6 73.57,73.6" /></g><g
         transform="scale(2.00375)"
         id="g722"><path
           id="path724"
           style="fill:#87d0ff;fill-opacity:1;fill-rule:nonzero;stroke:none"
           d="m 1330.37,16300 c 40.62,0 73.57,-32.9 73.57,-73.6 v -95.9 c 0,40.6 -32.95,73.6 -73.57,73.6 h -259.96 v 95.9 h 259.96" /></g><g
         transform="scale(1.40334)"
         id="g726"><path
           id="path728"
           style="fill:#addfff;fill-opacity:1;fill-rule:nonzero;stroke:none"
           d="m 2549.32,16172.4 h -921.34 c -55.01,0 -99.6,44.6 -99.6,99.6 v 28 h 1120.54 v -28 c 0,-55 -44.59,-99.6 -99.6,-99.6" /></g><g
         transform="scale(2.02747)"
         id="g730"><path
           id="path732"
           style="fill:#def2ff;fill-opacity:1;fill-rule:nonzero;stroke:none"
           d="m 1057.89,16194.4 v 36.7 c 0,38 30.86,68.9 68.94,68.9 h 637.72 c 38.07,0 68.94,-30.9 68.94,-68.9 v -36.7 h -775.6" /></g><g
         transform="scale(1.98094)"
         id="g734"><path
           id="path736"
           style="fill:#2ba0ff;fill-opacity:1;fill-rule:nonzero;stroke:none"
           d="m 1082.74,15614.8 h -12.24 c -33.43,0 -60.53,27.1 -60.53,60.5 v 564.2 c 0,33.4 27.1,60.5 60.53,60.5 h 12.24 v -685.2" /></g><g
         transform="scale(1.95926)"
         id="g738"><path
           id="path740"
           style="fill:#5ec0ff;fill-opacity:1;fill-rule:nonzero;stroke:none"
           d="m 1021.14,15967.8 h -8.04 c -21.973,0 -39.785,17.8 -39.785,39.8 v 252.6 c 0,22 17.812,39.8 39.785,39.8 h 8.04 v -332.2" /></g><g
         transform="scale(1.52215)"
         id="g742"><path
           id="path744"
           style="fill:#2ba0ff;fill-opacity:1;fill-rule:nonzero;stroke:none"
           d="m 1409.08,15408.2 h -15.93 c -43.5,0 -78.78,35.3 -78.78,78.8 v 734.2 c 0,43.5 35.28,78.8 78.78,78.8 h 15.93 v -891.8" /></g><g
         transform="scale(1.50048)"
         id="g746"><path
           id="path748"
           style="fill:#5ec0ff;fill-opacity:1;fill-rule:nonzero;stroke:none"
           d="m 1333.36,15866.3 h -10.5 c -28.69,0 -51.95,23.2 -51.95,51.9 v 329.9 c 0,28.7 23.26,51.9 51.95,51.9 h 10.5 v -433.7" /></g><g
         transform="scale(1.52215)"
         id="g750"><path
           id="path752"
           style="fill:#2990ff;fill-opacity:1;fill-rule:nonzero;stroke:none"
           d="m 8218.82,15408.2 h -189.41 v 891.8 h 189.41 v -891.8" /></g><g
         transform="scale(1.49311)"
         id="g754"><path
           id="path756"
           style="fill:#2990ff;fill-opacity:1;fill-rule:nonzero;stroke:none"
           d="m 9114.73,16025 h -736.05 v 275 h 736.05 v -275" /></g><g
         transform="scale(1.98094)"
         id="g758"><path
           id="path760"
           style="fill:#2990ff;fill-opacity:1;fill-rule:nonzero;stroke:none"
           d="m 6315.35,15614.8 h -145.54 v 685.2 h 145.54 v -685.2" /></g><g
         transform="scale(1.95189)"
         id="g762"><path
           id="path764"
           style="fill:#2990ff;fill-opacity:1;fill-rule:nonzero;stroke:none"
           d="m 6972.36,16089.6 h -563.05 v 210.4 h 563.05 v -210.4" /></g><g
         transform="scale(2.02008)"
         id="g766"><path
           id="path768"
           style="fill:#ffffff;fill-opacity:1;fill-rule:nonzero;stroke:none"
           d="m 1551.82,16299.2 c -130.74,-3.6 -261.5,-7.2 -392.24,-10.7 -27.42,-0.8 -27.53,-43.5 0,-42.7 130.74,3.5 261.5,7.1 392.24,10.7 27.42,0.8 27.54,43.5 0,42.7" /></g><g
         transform="scale(2.01915)"
         id="g770"><path
           id="path772"
           style="fill:#ffffff;fill-opacity:1;fill-rule:nonzero;stroke:none"
           d="m 2265.48,16296.4 c -85.67,3.6 -171.04,1.7 -256.46,-5.7 -27.18,-2.4 -27.43,-45.1 0,-42.7 85.42,7.4 170.79,9.3 256.46,5.7 27.49,-1.2 27.43,41.5 0,42.7" /></g><g
         transform="scale(2.01908)"
         id="g774"><path
           id="path776"
           style="fill:#ffffff;fill-opacity:1;fill-rule:nonzero;stroke:none"
           d="m 3066.58,16298.5 c -64.04,-3.5 -128.08,-7 -192.11,-10.5 -27.35,-1.5 -27.52,-44.3 0,-42.8 64.03,3.6 128.07,7.1 192.11,10.6 27.34,1.5 27.52,44.2 0,42.7" /></g><g
         transform="scale(2.01778)"
         id="g778"><path
           id="path780"
           style="fill:#ffffff;fill-opacity:1;fill-rule:nonzero;stroke:none"
           d="m 3926.28,16300 h -264.52 c -27.51,0 -27.55,-42.7 0,-42.7 h 264.52 c 27.51,0 27.56,42.7 0,42.7" /></g><g
         transform="scale(2.01778)"
         id="g782"><path
           id="path784"
           style="fill:#ffffff;fill-opacity:1;fill-rule:nonzero;stroke:none"
           d="m 4759.91,16300 h -256.5 c -27.51,0 -27.56,-42.7 0,-42.7 h 256.5 c 27.5,0 27.55,42.7 0,42.7" /></g><g
         transform="scale(2.01778)"
         id="g786"><path
           id="path788"
           style="fill:#ffffff;fill-opacity:1;fill-rule:nonzero;stroke:none"
           d="m 5593.56,16300 h -216.42 c -27.51,0 -27.56,-42.7 0,-42.7 h 216.42 c 27.51,0 27.56,42.7 0,42.7" /></g><g
         transform="scale(1.89153)"
         id="g790"><path
           id="path792"
           style="fill:#ffffff;fill-opacity:1;fill-rule:nonzero;stroke:none"
           d="m 1891.77,16270.6 c -0.83,29.3 -46.44,29.4 -45.61,0 10.89,-381.9 21.77,-763.7 32.66,-1145.6 0.84,-29.3 46.44,-29.4 45.61,0 -10.89,381.9 -21.78,763.7 -32.66,1145.6" /></g><g
         transform="scale(1.89649)"
         id="g794"><path
           id="path796"
           style="fill:#ffffff;fill-opacity:1;fill-rule:nonzero;stroke:none"
           d="m 2724.09,16270.7 -8.5,-588.4 c -0.43,-29.3 45.06,-29.3 45.48,0 l 8.51,588.4 c 0.42,29.3 -45.06,29.3 -45.49,0" /></g><g
         transform="scale(1.89749)"
         id="g798"><path
           id="path800"
           style="fill:#ffffff;fill-opacity:1;fill-rule:nonzero;stroke:none"
           d="m 3637.47,16270.7 c -4.72,-744.4 -9.44,-1488.8 -14.17,-2233.3 -0.18,-29.2 45.28,-29.2 45.47,0 4.72,744.5 9.44,1488.9 14.16,2233.3 0.18,29.3 -45.28,29.3 -45.46,0" /></g><g
         transform="scale(1.8945)"
         id="g802"><path
           id="path804"
           style="fill:#ffffff;fill-opacity:1;fill-rule:nonzero;stroke:none"
           d="m 4574.31,16270.6 c -0.85,29.3 -46.38,29.4 -45.53,0 4.14,-142.1 8.27,-284.3 12.4,-426.5 0.85,-29.2 46.39,-29.3 45.53,0 -4.13,142.2 -8.26,284.4 -12.4,426.5" /></g><g
         transform="scale(1.82603)"
         id="g806"><path
           id="path808"
           style="fill:#ffffff;fill-opacity:1;fill-rule:nonzero;stroke:none"
           d="m 4719.04,16269.6 c -8.56,-442.8 -17.13,-885.6 -25.68,-1328.5 -0.58,-30.4 46.65,-30.4 47.24,0 8.55,442.9 17.12,885.7 25.68,1328.5 0.58,30.4 -46.66,30.4 -47.24,0" /></g><g
         transform="scale(1.89649)"
         id="g810"><path
           id="path812"
           style="fill:#ffffff;fill-opacity:1;fill-rule:nonzero;stroke:none"
           d="m 5479.96,16270.7 c 1.16,29.3 -44.35,29.3 -45.46,0 -3.85,-99.7 -1.1,-199 8.23,-298.4 2.69,-28.9 48.19,-29.2 45.45,0 -9.33,99.4 -12.07,198.7 -8.22,298.4" /></g><g
         transform="scale(1.8856)"
         id="g814"><path
           id="path816"
           style="fill:#ffffff;fill-opacity:1;fill-rule:nonzero;stroke:none"
           d="m 6392.04,16270.5 c -0.32,29.4 -46.09,29.5 -45.72,0 8.22,-683.4 16.44,-1366.7 24.66,-2050.1 0.37,-29.4 46.09,-29.5 45.72,0 -8.22,683.4 -16.44,1366.7 -24.66,2050.1" /></g><g
         transform="scale(1.42582)"
         id="g818"><path
           id="path820"
           style="fill:#ffffff;fill-opacity:1;fill-rule:nonzero;stroke:none"
           d="m 2096.42,16297.3 c -128.57,-9.1 -256.82,-9.2 -385.4,-0.4 -38.86,2.7 -38.69,-57.8 0,-60.5 128.58,-8.9 256.83,-8.7 385.4,0.3 38.62,2.8 38.92,63.3 0,60.6" /></g><g
         transform="scale(1.42658)"
         id="g822"><path
           id="path824"
           style="fill:#ffffff;fill-opacity:1;fill-rule:nonzero;stroke:none"
           d="m 3353.9,16299.5 c -151.13,-2.1 -302.28,-4.2 -453.42,-6.2 -38.87,-0.6 -38.98,-61 0,-60.5 151.14,2.1 302.29,4.2 453.42,6.2 38.88,0.6 38.99,61 0,60.5" /></g><g
         transform="scale(1.96754)"
         id="g826"><path
           id="path828"
           style="fill:#ed7279;fill-opacity:1;fill-rule:nonzero;stroke:none"
           d="m 5412.6,12031.3 h -65.25 v 467.9 h 65.25 v -467.9 m -864.5,0 h -65.27 v 467.9 h 65.27 v -467.9 m -864.5,0 h -65.27 v 467.9 h 65.27 v -467.9 m -864.5,0 h -65.27 v 467.9 h 65.27 v -467.9 m 2593.5,3800.8 h -65.25 v 245.1 222.8 h 65.25 v -467.9 m -864.5,0 h -65.27 v 245.1 222.8 h 65.27 v -467.9 m -864.5,0 h -65.27 v 245.1 222.8 h 65.27 v -467.9 m -864.5,0 h -65.27 v 245.1 222.8 h 65.27 v -467.9" /></g><g
         transform="scale(1.96754)"
         id="g830"><path
           id="path832"
           style="fill:#f2767c;fill-opacity:1;fill-rule:nonzero;stroke:none"
           d="M 6211.83,12031.3 H 5412.6 v 467.9 h 201.12 v 3332.9 H 5412.6 v 467.9 -222.8 h 200.61 c 76.8,0 139.06,62.2 139.06,139 v 83.8 h 119.89 v -83.8 c 0,-76.8 62.26,-139 139.06,-139 h 200.61 v -245.1 h -201.17 v -3332.9 h 201.17 v -467.9" /></g><g
         transform="scale(1.96754)"
         id="g834"><path
           id="path836"
           style="fill:#f1767c;fill-opacity:1;fill-rule:nonzero;stroke:none"
           d="m 6211.83,16077.2 v 0 h -200.61 c -76.8,0 -139.06,62.2 -139.06,139 v 83.8 h 339.67 v -222.8" /></g><g
         transform="scale(1.96754)"
         id="g838"><path
           id="path840"
           style="fill:#f1767c;fill-opacity:1;fill-rule:nonzero;stroke:none"
           d="M 5613.21,16077.2 H 5412.6 v 222.8 h 339.67 v -83.8 c 0,-76.8 -62.26,-139 -139.06,-139" /></g><g
         transform="scale(1.96754)"
         id="g842"><path
           id="path844"
           style="fill:#f2767c;fill-opacity:1;fill-rule:nonzero;stroke:none"
           d="M 5347.35,12031.3 H 4548.1 v 467.9 h 201.14 v 3332.9 H 4548.1 v 467.9 -222.8 h 200.61 c 76.8,0 139.05,62.2 139.05,139 v 83.8 h 119.89 v -83.8 c 0,-76.8 62.26,-139 139.04,-139 h 200.66 v -245.1 h -201.17 v -3332.9 h 201.17 v -467.9" /></g><g
         transform="scale(1.96754)"
         id="g846"><path
           id="path848"
           style="fill:#f1767c;fill-opacity:1;fill-rule:nonzero;stroke:none"
           d="m 5347.35,16077.2 v 0 h -200.66 c -76.78,0 -139.04,62.2 -139.04,139 v 83.8 h 339.7 v -222.8" /></g><g
         transform="scale(1.96754)"
         id="g850"><path
           id="path852"
           style="fill:#f1767c;fill-opacity:1;fill-rule:nonzero;stroke:none"
           d="M 4748.71,16077.2 H 4548.1 v 222.8 h 339.66 v -83.8 c 0,-76.8 -62.25,-139 -139.05,-139" /></g><g
         transform="scale(1.96754)"
         id="g854"><path
           id="path856"
           style="fill:#f2767c;fill-opacity:1;fill-rule:nonzero;stroke:none"
           d="M 4482.83,12031.3 H 3683.6 v 467.9 h 201.13 v 3332.9 H 3683.6 v 467.9 -222.8 h 200.62 c 76.79,0 139.05,62.2 139.05,139 v 83.8 h 119.88 v -83.8 c 0,-76.8 62.26,-139 139.05,-139 h 200.63 v -245.1 h -201.14 v -3332.9 h 201.14 v -467.9" /></g><g
         transform="scale(1.96754)"
         id="g858"><path
           id="path860"
           style="fill:#f1767c;fill-opacity:1;fill-rule:nonzero;stroke:none"
           d="m 4482.83,16077.2 v 0 H 4282.2 c -76.79,0 -139.05,62.2 -139.05,139 v 83.8 h 339.68 v -222.8" /></g><g
         transform="scale(1.96754)"
         id="g862"><path
           id="path864"
           style="fill:#f1767c;fill-opacity:1;fill-rule:nonzero;stroke:none"
           d="M 3884.22,16077.2 H 3683.6 v 222.8 h 339.67 v -83.8 c 0,-76.8 -62.26,-139 -139.05,-139" /></g><g
         transform="scale(1.96754)"
         id="g866"><path
           id="path868"
           style="fill:#f2767c;fill-opacity:1;fill-rule:nonzero;stroke:none"
           d="M 3618.33,12031.3 H 2819.1 v 467.9 h 201.14 v 3332.9 H 2819.1 v 467.9 -222.8 h 200.62 c 76.8,0 139.06,62.2 139.06,139 v 83.8 h 119.88 v -83.8 c 0,-76.8 62.25,-139 139.04,-139 h 200.63 v -245.1 h -201.14 v -3332.9 h 201.14 v -467.9" /></g><g
         transform="scale(1.96754)"
         id="g870"><path
           id="path872"
           style="fill:#f1767c;fill-opacity:1;fill-rule:nonzero;stroke:none"
           d="m 3618.33,16077.2 v 0 H 3417.7 c -76.79,0 -139.04,62.2 -139.04,139 v 83.8 h 339.67 v -222.8" /></g><g
         transform="scale(1.96754)"
         id="g874"><path
           id="path876"
           style="fill:#f1767c;fill-opacity:1;fill-rule:nonzero;stroke:none"
           d="M 3019.72,16077.2 H 2819.1 v 222.8 h 339.68 v -83.8 c 0,-76.8 -62.26,-139 -139.06,-139" /></g><g
         transform="scale(1.96754)"
         id="g878"><path
           id="path880"
           style="fill:#ed7279;fill-opacity:1;fill-rule:nonzero;stroke:none"
           d="m 1954.61,12031.3 h -65.28 v 467.9 h 65.28 v -467.9 m 0,3800.8 h -65.28 v 245.1 222.8 h 65.28 v -467.9" /></g><g
         transform="scale(1.96754)"
         id="g882"><path
           id="path884"
           style="fill:#f2767c;fill-opacity:1;fill-rule:nonzero;stroke:none"
           d="m 2753.83,12031.3 h -799.22 v 467.9 h 201.13 v 3332.9 h -201.13 v 467.9 -222.8 h 200.62 c 76.79,0 139.04,62.2 139.04,139 v 83.8 h 119.89 v -83.8 c 0,-76.8 62.25,-139 139.05,-139 h 200.62 v -245.1 h -201.14 v -3332.9 h 201.14 v -467.9" /></g><g
         transform="scale(1.96754)"
         id="g886"><path
           id="path888"
           style="fill:#f1767c;fill-opacity:1;fill-rule:nonzero;stroke:none"
           d="m 2753.83,16077.2 v 0 h -200.62 c -76.8,0 -139.05,62.2 -139.05,139 v 83.8 h 339.67 v -222.8" /></g><g
         transform="scale(1.96754)"
         id="g890"><path
           id="path892"
           style="fill:#f1767c;fill-opacity:1;fill-rule:nonzero;stroke:none"
           d="m 2155.23,16077.2 h -200.62 v 222.8 h 339.66 v -83.8 c 0,-76.8 -62.25,-139 -139.04,-139" /></g><g
         transform="scale(1.96754)"
         id="g894"><path
           id="path896"
           style="fill:#f2767c;fill-opacity:1;fill-rule:nonzero;stroke:none"
           d="m 1889.33,12031.3 h -622.09 c -62.76,0 -113.64,50.9 -113.64,113.7 v 240.6 c 0,62.8 50.88,113.6 113.64,113.6 h 24 v 3332.9 h -24 c -62.76,0 -113.64,50.9 -113.64,113.7 v 131.4 h 137.13 c 76.8,0 139.05,62.2 139.05,139 v 83.8 h 119.88 v -83.8 c 0,-76.8 62.26,-139 139.05,-139 h 200.62 v -245.1 H 1688.2 v -3332.9 h 201.13 v -467.9" /></g><g
         transform="scale(1.96754)"
         id="g898"><path
           id="path900"
           style="fill:#f1767c;fill-opacity:1;fill-rule:nonzero;stroke:none"
           d="m 1889.33,16077.2 v 0 h -200.62 c -76.79,0 -139.05,62.2 -139.05,139 v 83.8 h 339.67 v -222.8" /></g><g
         transform="scale(1.96754)"
         id="g902"><path
           id="path904"
           style="fill:#f1767c;fill-opacity:1;fill-rule:nonzero;stroke:none"
           d="M 1290.73,16077.2 H 1153.6 v 109.2 c 0,62.7 50.88,113.6 113.64,113.6 h 162.54 v -83.8 c 0,-76.8 -62.25,-139 -139.05,-139" /></g><g
         transform="scale(1.94569)"
         id="g906"><path
           id="path908"
           style="fill:#d11920;fill-opacity:1;fill-rule:nonzero;stroke:none"
           d="m 1559.93,13810.4 h -106.97 v 2436.1 c 0,29.5 23.94,53.5 53.48,53.5 H 7722 v -107 H 1559.93 v -2382.6" /></g><g
         transform="scale(1.91934)"
         id="g910"><path
           id="path912"
           style="fill:#ed1c24;fill-opacity:1;fill-rule:nonzero;stroke:none"
           d="m 6018.86,16154.3 h -121.4 v 145.7 h 121.4 v -145.7" /></g><g
         transform="scale(1.65747)"
         id="g914"><path
           id="path916"
           style="fill:#ed1c24;fill-opacity:1;fill-rule:nonzero;stroke:none"
           d="M 6969.78,15956.2 H 6829.2 v 343.8 h 140.58 v -343.8" /></g><g
         transform="scale(1.72739)"
         id="g918"><path
           id="path920"
           style="fill:#ed1c24;fill-opacity:1;fill-rule:nonzero;stroke:none"
           d="m 6687.67,15970.1 h -134.89 v 329.9 h 134.89 v -329.9" /></g><g
         transform="scale(1.79731)"
         id="g922"><path
           id="path924"
           style="fill:#ed1c24;fill-opacity:1;fill-rule:nonzero;stroke:none"
           d="m 6427.51,15982.9 h -129.64 v 317.1 h 129.64 v -317.1" /></g><g
         transform="scale(1.86723)"
         id="g926"><path
           id="path928"
           style="fill:#ed1c24;fill-opacity:1;fill-rule:nonzero;stroke:none"
           d="m 6186.83,15994.8 h -124.79 v 305.2 h 124.79 v -305.2" /></g><g
         transform="scale(1.91934)"
         id="g930"><path
           id="path932"
           style="fill:#ed1c24;fill-opacity:1;fill-rule:nonzero;stroke:none"
           d="m 5132.66,16154.3 h -121.38 v 145.7 h 121.38 v -145.7" /></g><g
         transform="scale(1.65747)"
         id="g934"><path
           id="path936"
           style="fill:#ed1c24;fill-opacity:1;fill-rule:nonzero;stroke:none"
           d="m 5943.57,15956.2 h -140.55 v 343.8 h 140.55 v -343.8" /></g><g
         transform="scale(1.72739)"
         id="g938"><path
           id="path940"
           style="fill:#ed1c24;fill-opacity:1;fill-rule:nonzero;stroke:none"
           d="M 5703,15970.1 H 5568.14 V 16300 H 5703 v -329.9" /></g><g
         transform="scale(1.79731)"
         id="g942"><path
           id="path944"
           style="fill:#ed1c24;fill-opacity:1;fill-rule:nonzero;stroke:none"
           d="m 5481.14,15982.9 h -129.61 v 317.1 h 129.61 v -317.1" /></g><g
         transform="scale(1.86723)"
         id="g946"><path
           id="path948"
           style="fill:#ed1c24;fill-opacity:1;fill-rule:nonzero;stroke:none"
           d="m 5275.9,15994.8 h -124.76 v 305.2 h 124.76 v -305.2" /></g><g
         transform="scale(1.91934)"
         id="g950"><path
           id="path952"
           style="fill:#ed1c24;fill-opacity:1;fill-rule:nonzero;stroke:none"
           d="m 4246.45,16154.3 h -121.38 v 145.7 h 121.38 v -145.7" /></g><g
         transform="scale(1.65747)"
         id="g954"><path
           id="path956"
           style="fill:#ed1c24;fill-opacity:1;fill-rule:nonzero;stroke:none"
           d="m 4917.35,15956.2 h -140.56 v 343.8 h 140.56 v -343.8" /></g><g
         transform="scale(1.72739)"
         id="g958"><path
           id="path960"
           style="fill:#ed1c24;fill-opacity:1;fill-rule:nonzero;stroke:none"
           d="m 4718.31,15970.1 h -134.86 v 329.9 h 134.86 v -329.9" /></g><g
         transform="scale(1.79731)"
         id="g962"><path
           id="path964"
           style="fill:#ed1c24;fill-opacity:1;fill-rule:nonzero;stroke:none"
           d="m 4534.76,15982.9 h -129.62 v 317.1 h 129.62 v -317.1" /></g><g
         transform="scale(1.86723)"
         id="g966"><path
           id="path968"
           style="fill:#ed1c24;fill-opacity:1;fill-rule:nonzero;stroke:none"
           d="m 4364.96,15994.8 h -124.77 v 305.2 h 124.77 v -305.2" /></g><g
         transform="scale(1.91934)"
         id="g970"><path
           id="path972"
           style="fill:#ed1c24;fill-opacity:1;fill-rule:nonzero;stroke:none"
           d="m 3360.24,16154.3 h -121.38 v 145.7 h 121.38 v -145.7" /></g><g
         transform="scale(1.65747)"
         id="g974"><path
           id="path976"
           style="fill:#ed1c24;fill-opacity:1;fill-rule:nonzero;stroke:none"
           d="m 3891.12,15956.2 h -140.55 v 343.8 h 140.55 v -343.8" /></g><g
         transform="scale(1.72739)"
         id="g978"><path
           id="path980"
           style="fill:#ed1c24;fill-opacity:1;fill-rule:nonzero;stroke:none"
           d="m 3733.63,15970.1 h -134.87 v 329.9 h 134.87 v -329.9" /></g><g
         transform="scale(1.79731)"
         id="g982"><path
           id="path984"
           style="fill:#ed1c24;fill-opacity:1;fill-rule:nonzero;stroke:none"
           d="m 3588.38,15982.9 h -129.62 v 317.1 h 129.62 v -317.1" /></g><g
         transform="scale(1.86723)"
         id="g986"><path
           id="path988"
           style="fill:#ed1c24;fill-opacity:1;fill-rule:nonzero;stroke:none"
           d="m 3454.01,15994.8 h -124.76 v 305.2 h 124.76 v -305.2" /></g><g
         transform="scale(1.91934)"
         id="g990"><path
           id="path992"
           style="fill:#ed1c24;fill-opacity:1;fill-rule:nonzero;stroke:none"
           d="m 2474.03,16154.3 h -121.38 v 145.7 h 121.38 v -145.7" /></g><g
         transform="scale(1.65747)"
         id="g994"><path
           id="path996"
           style="fill:#ed1c24;fill-opacity:1;fill-rule:nonzero;stroke:none"
           d="m 2864.9,15956.2 h -140.55 v 343.8 h 140.55 v -343.8" /></g><g
         transform="scale(1.72739)"
         id="g998"><path
           id="path1000"
           style="fill:#ed1c24;fill-opacity:1;fill-rule:nonzero;stroke:none"
           d="m 2748.94,15970.1 h -134.86 v 329.9 h 134.86 v -329.9" /></g><g
         transform="scale(1.79731)"
         id="g1002"><path
           id="path1004"
           style="fill:#ed1c24;fill-opacity:1;fill-rule:nonzero;stroke:none"
           d="M 2642,15982.9 H 2512.39 V 16300 H 2642 v -317.1" /></g><g
         transform="scale(1.86723)"
         id="g1006"><path
           id="path1008"
           style="fill:#ed1c24;fill-opacity:1;fill-rule:nonzero;stroke:none"
           d="m 2543.07,15994.8 h -124.76 v 305.2 h 124.76 v -305.2" /></g><g
         transform="scale(1.58755)"
         id="g1010"><path
           id="path1012"
           style="fill:#309eff;fill-opacity:1;fill-rule:nonzero;stroke:none"
           d="m 7276.74,15941.1 h -146.77 v 358.9 h 146.77 v -358.9" /></g><g
         transform="scale(1.51763)"
         id="g1014"><path
           id="path1016"
           style="fill:#309eff;fill-opacity:1;fill-rule:nonzero;stroke:none"
           d="m 7611.99,16115.8 h -153.53 v 184.2 h 153.53 v -184.2" /></g><g
         transform="scale(1.58755)"
         id="g1018"><path
           id="path1020"
           style="fill:#309eff;fill-opacity:1;fill-rule:nonzero;stroke:none"
           d="m 6205.33,15941.1 h -146.74 v 358.9 h 146.74 v -358.9" /></g><g
         transform="scale(1.51763)"
         id="g1022"><path
           id="path1024"
           style="fill:#309eff;fill-opacity:1;fill-rule:nonzero;stroke:none"
           d="m 6491.22,16115.8 h -153.5 v 184.2 h 153.5 v -184.2" /></g><g
         transform="scale(1.58755)"
         id="g1026"><path
           id="path1028"
           style="fill:#309eff;fill-opacity:1;fill-rule:nonzero;stroke:none"
           d="m 5133.92,15941.1 h -146.75 v 358.9 h 146.75 v -358.9" /></g><g
         transform="scale(1.51763)"
         id="g1030"><path
           id="path1032"
           style="fill:#309eff;fill-opacity:1;fill-rule:nonzero;stroke:none"
           d="m 5370.45,16115.8 h -153.51 v 184.2 h 153.51 v -184.2" /></g><g
         transform="scale(1.58755)"
         id="g1034"><path
           id="path1036"
           style="fill:#309eff;fill-opacity:1;fill-rule:nonzero;stroke:none"
           d="m 4062.5,15941.1 h -146.75 v 358.9 h 146.75 v -358.9" /></g><g
         transform="scale(1.51763)"
         id="g1038"><path
           id="path1040"
           style="fill:#309eff;fill-opacity:1;fill-rule:nonzero;stroke:none"
           d="m 4249.66,16115.8 h -153.5 v 184.2 h 153.5 v -184.2" /></g><g
         transform="scale(1.58755)"
         id="g1042"><path
           id="path1044"
           style="fill:#309eff;fill-opacity:1;fill-rule:nonzero;stroke:none"
           d="m 2991.08,15941.1 h -146.74 v 358.9 h 146.74 v -358.9" /></g><g
         transform="scale(1.51763)"
         id="g1046"><path
           id="path1048"
           style="fill:#309eff;fill-opacity:1;fill-rule:nonzero;stroke:none"
           d="m 3128.88,16115.8 h -153.5 v 184.2 h 153.5 v -184.2" /></g><g
         transform="scale(1.96563)"
         id="g1050"><path
           id="path1052"
           style="fill:#ff1e27;fill-opacity:1;fill-rule:nonzero;stroke:none"
           d="m 7352.2,15863.3 v 436.7 l -366.65,-218.3 366.65,-218.4" /></g><g
         transform="scale(1.64851)"
         id="g1054"><path
           id="path1056"
           style="fill:#006aff;fill-opacity:1;fill-rule:nonzero;stroke:none"
           d="M 9114.05,14575.8 H 1778.01 c -34.87,0 -63.13,28.2 -63.13,63.1 V 16300 h 126.26 v -1597.9 h 7272.91 v -126.3" /></g><g
         transform="scale(1.50685)"
         id="g1058"><path
           id="path1060"
           style="fill:#309eff;fill-opacity:1;fill-rule:nonzero;stroke:none"
           d="m 9280.84,16300 v -569.6 l 478.28,284.8 -478.28,284.8" /></g><g
         transform="scale(2.16998)"
         id="g1062"><path
           id="path1064"
           style="fill:#ffffff;fill-opacity:1;fill-rule:nonzero;stroke:none"
           d="m 7111.37,16300 c 0,0 -2209.71,0 -2297.45,0 -87.74,0 -63.82,-666 0,-666 63.83,0 2233.67,0 2297.45,0 63.82,0 79.77,666 0,666" /></g><g
         transform="scale(2.05725)"
         id="g1066"><path
           id="path1068"
           style="fill:#ffffff;fill-opacity:1;fill-rule:nonzero;stroke:none"
           d="m 4701.76,15735.8 c -6.07,0 -12.23,1.5 -17.82,4.9 -16.6,9.9 -22.05,31.3 -12.19,47.9 l 293.85,494.3 c 6.32,10.6 17.74,17.1 30.04,17.1 h 1489.07 c 19.3,0 34.95,-15.7 34.95,-35 0,-19.2 -15.65,-34.9 -34.95,-34.9 H 5015.52 l -283.67,-477.2 c -6.55,-11 -18.17,-17.1 -30.09,-17.1" /></g><g
         transform="scale(2.00434)"
         id="g1070"><path
           id="path1072"
           style="fill:#ffffff;fill-opacity:1;fill-rule:nonzero;stroke:none"
           d="m 4712.99,16187.1 c 0,-62.4 50.56,-113 112.93,-113 62.37,0 112.94,50.6 112.94,113 0,62.3 -50.57,112.9 -112.94,112.9 -62.37,0 -112.93,-50.6 -112.93,-112.9" /></g><g
         transform="scale(1.33134)"
         id="g1074"><path
           id="path1076"
           style="fill:#ffffff;fill-opacity:1;fill-rule:nonzero;stroke:none"
           d="m 2465.57,15214.5 c 0,0 3601.63,0 3744.65,0 143.03,0 104.03,1085.5 0,1085.5 -104.01,0 -3640.63,0 -3744.65,0 -104.02,0 -130.03,-1085.5 0,-1085.5" /></g><g
         transform="scale(1.48555)"
         id="g1078"><path
           id="path1080"
           style="fill:#ffffff;fill-opacity:1;fill-rule:nonzero;stroke:none"
           d="M 5679.2,14872 H 3617.12 c -26.74,0 -48.4,21.6 -48.4,48.4 0,26.7 21.66,48.4 48.4,48.4 h 2031.1 l 597.98,1296.3 c 11.18,24.3 39.93,34.9 64.21,23.7 24.28,-11.2 34.88,-40 23.67,-64.3 l -610.93,-1324.4 c -7.9,-17.2 -25.07,-28.1 -43.95,-28.1" /></g><g
         transform="scale(1.4944)"
         id="g1082"><path
           id="path1084"
           style="fill:#ffffff;fill-opacity:1;fill-rule:nonzero;stroke:none"
           d="m 6404.32,16148.5 c 0,83.6 -67.81,151.5 -151.47,151.5 -83.65,0 -151.46,-67.9 -151.46,-151.5 0,-83.6 67.81,-151.4 151.46,-151.4 83.66,0 151.47,67.8 151.47,151.4" /></g></g></g></svg>