<svg xmlns="http://www.w3.org/2000/svg" version="1.1" xmlns:xlink="http://www.w3.org/1999/xlink" xmlns:svgjs="http://svgjs.com/svgjs" width="512" height="512" x="0" y="0" viewBox="0 0 512 512" style="enable-background:new 0 0 512 512" xml:space="preserve" class=""><g><path d="M497 348.309h-2.637V143.734H497c8.285 0 15-6.714 15-15 0-8.28-6.715-15-15-15h-2.637V46.22C494.363 20.734 473.633 0 448.145 0c-25.485 0-46.22 20.734-46.22 46.219v67.515h-26.218V46.22C375.707 20.734 354.973 0 329.488 0S283.27 20.734 283.27 46.219v67.515h-26.22V46.22C257.05 20.734 236.317 0 210.833 0s-46.219 20.734-46.219 46.219v67.515h-26.222V46.22C138.39 20.734 117.66 0 92.17 0 66.688 0 45.954 20.734 45.954 46.219v67.515H30v-7.976c0-8.285-6.715-15-15-15s-15 6.715-15 15v45.957c0 8.285 6.715 15 15 15s15-6.715 15-15v-7.98h15.957v289.35c0 25.485 20.73 46.216 46.219 46.216 25.484 0 46.219-20.73 46.219-46.215v-54.777h26.218v54.777c0 25.484 20.735 46.215 46.219 46.215s46.219-20.73 46.219-46.215v-54.777h26.222v54.777c0 25.484 20.73 46.215 46.22 46.215 25.484 0 46.218-20.73 46.218-46.215v-54.777h26.219v54.777c0 25.484 20.734 46.215 46.218 46.215 25.489 0 46.22-20.73 46.22-46.215v-54.777H497c8.285 0 15-6.715 15-15s-6.715-15-15-15zm-388.605 84.777c0 8.941-7.278 16.215-16.22 16.215-8.945 0-16.218-7.274-16.218-16.215V46.219C75.957 37.273 83.23 30 92.176 30c8.941 0 16.219 7.273 16.219 16.219zm30-84.777V143.734h26.218V348.31zm88.656 84.777c0 8.941-7.278 16.215-16.219 16.215-8.941 0-16.219-7.274-16.219-16.215V46.219c0-8.946 7.274-16.219 16.219-16.219 8.941 0 16.219 7.273 16.219 16.219zm30-84.777V143.734h26.219V348.31zm88.656 84.777c0 8.941-7.273 16.215-16.219 16.215-8.941 0-16.218-7.274-16.218-16.215V46.219c0-8.946 7.277-16.219 16.218-16.219 8.942 0 16.219 7.273 16.219 16.219zm30-84.777V143.734h26.223V348.31zm88.656 84.777c0 8.941-7.273 16.215-16.218 16.215-8.942 0-16.22-7.274-16.22-16.215V46.219c0-8.946 7.278-16.219 16.22-16.219 8.945 0 16.218 7.273 16.218 16.219zm0 0" fill="#ffffff" data-original="#000000" opacity="1"></path></g></svg>