<svg xmlns="http://www.w3.org/2000/svg" width="500" height="372.56" viewBox="0 0 500 372.56">
  <g id="Smart_home-rafiki" data-name="Smart home-rafiki" transform="translate(0 -55)">
    <g id="freepik--background-complete--inject-10">
      <rect id="Rectangle_1" data-name="Rectangle 1" width="500" height="0.25" transform="translate(0 382.4)" fill="#ebebeb"/>
      <rect id="Rectangle_2" data-name="Rectangle 2" width="33.12" height="0.25" transform="translate(416.78 398.49)" fill="#ebebeb"/>
      <rect id="Rectangle_3" data-name="Rectangle 3" width="8.69" height="0.25" transform="translate(322.53 401.21)" fill="#ebebeb"/>
      <rect id="Rectangle_4" data-name="Rectangle 4" width="19.19" height="0.25" transform="translate(396.59 389.21)" fill="#ebebeb"/>
      <rect id="Rectangle_5" data-name="Rectangle 5" width="43.19" height="0.25" transform="translate(52.46 390.89)" fill="#ebebeb"/>
      <rect id="Rectangle_6" data-name="Rectangle 6" width="6.33" height="0.25" transform="translate(104.56 390.89)" fill="#ebebeb"/>
      <rect id="Rectangle_7" data-name="Rectangle 7" width="93.68" height="0.25" transform="translate(131.47 395.11)" fill="#ebebeb"/>
      <path id="Path_1" data-name="Path 1" d="M237,337.8H43.91a5.71,5.71,0,0,1-5.7-5.71V60.66A5.71,5.71,0,0,1,43.91,55H237a5.71,5.71,0,0,1,5.71,5.71V332.09A5.71,5.71,0,0,1,237,337.8ZM43.91,55.2a5.46,5.46,0,0,0-5.45,5.46V332.09a5.46,5.46,0,0,0,5.45,5.46H237a5.47,5.47,0,0,0,5.46-5.46V60.66A5.47,5.47,0,0,0,237,55.2Z" fill="#ebebeb"/>
      <path id="Path_2" data-name="Path 2" d="M453.31,337.8H260.21a5.72,5.72,0,0,1-5.71-5.71V60.66A5.72,5.72,0,0,1,260.21,55h193.1A5.71,5.71,0,0,1,459,60.66V332.09A5.71,5.71,0,0,1,453.31,337.8ZM260.21,55.2a5.47,5.47,0,0,0-5.46,5.46V332.09a5.47,5.47,0,0,0,5.46,5.46h193.1a5.47,5.47,0,0,0,5.46-5.46V60.66a5.47,5.47,0,0,0-5.46-5.46Z" fill="#ebebeb"/>
      <rect id="Rectangle_8" data-name="Rectangle 8" width="150.21" height="220.23" transform="translate(428.42 381.43) rotate(180)" fill="#f0f0f0"/>
      <rect id="Rectangle_9" data-name="Rectangle 9" width="139.59" height="40.67" transform="translate(423.11 208.81) rotate(180)" fill="#e0e0e0"/>
      <rect id="Rectangle_10" data-name="Rectangle 10" width="7.93" height="34.09" transform="translate(423.1 208.81) rotate(180)" fill="#ebebeb"/>
      <rect id="Rectangle_11" data-name="Rectangle 11" width="7.93" height="34.09" transform="translate(384.76 208.81) rotate(180)" fill="#ebebeb"/>
      <rect id="Rectangle_12" data-name="Rectangle 12" width="7.93" height="34.09" transform="matrix(-0.985, -0.17, 0.17, -0.985, 335.338, 208.796)" fill="#ebebeb"/>
      <rect id="Rectangle_13" data-name="Rectangle 13" width="7.93" height="29.6" transform="translate(413.28 208.81) rotate(180)" fill="#ebebeb"/>
      <rect id="Rectangle_14" data-name="Rectangle 14" width="7.93" height="29.6" transform="translate(395.06 208.81) rotate(180)" fill="#ebebeb"/>
      <rect id="Rectangle_15" data-name="Rectangle 15" width="7.93" height="29.6" transform="translate(349.05 208.81) rotate(180)" fill="#ebebeb"/>
      <rect id="Rectangle_16" data-name="Rectangle 16" width="7.93" height="29.6" transform="translate(367.75 208.8) rotate(-167.47)" fill="#ebebeb"/>
      <rect id="Rectangle_17" data-name="Rectangle 17" width="3.96" height="35.78" transform="translate(402.46 208.81) rotate(180)" fill="#ebebeb"/>
      <rect id="Rectangle_18" data-name="Rectangle 18" width="3.96" height="35.78" transform="translate(355.29 208.81) rotate(180)" fill="#ebebeb"/>
      <rect id="Rectangle_19" data-name="Rectangle 19" width="139.59" height="40.67" transform="translate(283.51 215.25)" fill="#e0e0e0"/>
      <rect id="Rectangle_20" data-name="Rectangle 20" width="7.93" height="34.09" transform="translate(283.51 221.84)" fill="#ebebeb"/>
      <rect id="Rectangle_21" data-name="Rectangle 21" width="7.93" height="34.09" transform="translate(321.86 221.84)" fill="#ebebeb"/>
      <rect id="Rectangle_22" data-name="Rectangle 22" width="7.93" height="34.09" transform="matrix(0.985, -0.17, 0.17, 0.985, 365.509, 222.313)" fill="#ebebeb"/>
      <rect id="Rectangle_23" data-name="Rectangle 23" width="7.93" height="29.6" transform="translate(293.34 226.33)" fill="#ebebeb"/>
      <rect id="Rectangle_24" data-name="Rectangle 24" width="7.93" height="29.6" transform="translate(311.57 226.33)" fill="#ebebeb"/>
      <rect id="Rectangle_25" data-name="Rectangle 25" width="7.93" height="29.6" transform="translate(357.57 226.33)" fill="#ebebeb"/>
      <rect id="Rectangle_26" data-name="Rectangle 26" width="7.93" height="29.6" transform="translate(332.468 227.007) rotate(-12.53)" fill="#ebebeb"/>
      <rect id="Rectangle_27" data-name="Rectangle 27" width="3.96" height="35.78" transform="translate(304.16 220.14)" fill="#ebebeb"/>
      <rect id="Rectangle_28" data-name="Rectangle 28" width="3.96" height="35.78" transform="translate(351.33 220.14)" fill="#ebebeb"/>
      <rect id="Rectangle_29" data-name="Rectangle 29" width="7.93" height="34.09" transform="translate(423.1 255.92) rotate(180)" fill="#ebebeb"/>
      <rect id="Rectangle_30" data-name="Rectangle 30" width="7.93" height="29.6" transform="translate(413.28 255.92) rotate(180)" fill="#ebebeb"/>
      <rect id="Rectangle_31" data-name="Rectangle 31" width="7.93" height="29.6" transform="translate(395.06 255.92) rotate(180)" fill="#ebebeb"/>
      <rect id="Rectangle_32" data-name="Rectangle 32" width="3.96" height="35.78" transform="translate(402.46 255.93) rotate(180)" fill="#ebebeb"/>
      <rect id="Rectangle_33" data-name="Rectangle 33" width="139.59" height="40.67" transform="translate(423.11 303.04) rotate(180)" fill="#e0e0e0"/>
      <rect id="Rectangle_34" data-name="Rectangle 34" width="7.93" height="34.09" transform="translate(342.98 303.04) rotate(180)" fill="#ebebeb"/>
      <rect id="Rectangle_35" data-name="Rectangle 35" width="7.93" height="34.09" transform="matrix(-0.985, -0.17, 0.17, -0.985, 293.568, 303.032)" fill="#ebebeb"/>
      <rect id="Rectangle_36" data-name="Rectangle 36" width="7.93" height="29.6" transform="translate(371.5 303.04) rotate(180)" fill="#ebebeb"/>
      <rect id="Rectangle_37" data-name="Rectangle 37" width="7.93" height="29.6" transform="translate(353.27 303.04) rotate(180)" fill="#ebebeb"/>
      <rect id="Rectangle_38" data-name="Rectangle 38" width="7.93" height="29.6" transform="translate(307.27 303.04) rotate(180)" fill="#ebebeb"/>
      <rect id="Rectangle_39" data-name="Rectangle 39" width="7.93" height="29.6" transform="translate(325.969 303.027) rotate(-167.47)" fill="#ebebeb"/>
      <rect id="Rectangle_40" data-name="Rectangle 40" width="3.96" height="35.78" transform="translate(360.68 303.04) rotate(180)" fill="#ebebeb"/>
      <rect id="Rectangle_41" data-name="Rectangle 41" width="3.96" height="35.78" transform="translate(313.51 303.04) rotate(180)" fill="#ebebeb"/>
      <rect id="Rectangle_42" data-name="Rectangle 42" width="7.93" height="34.09" transform="matrix(-0.985, -0.17, 0.17, -0.985, 384.794, 303.025)" fill="#ebebeb"/>
      <rect id="Rectangle_43" data-name="Rectangle 43" width="7.93" height="29.6" transform="translate(398.5 303.04) rotate(180)" fill="#ebebeb"/>
      <rect id="Rectangle_44" data-name="Rectangle 44" width="7.93" height="29.6" transform="translate(417.211 303.027) rotate(-167.47)" fill="#ebebeb"/>
      <rect id="Rectangle_45" data-name="Rectangle 45" width="3.96" height="35.78" transform="translate(404.74 303.04) rotate(180)" fill="#ebebeb"/>
      <rect id="Rectangle_46" data-name="Rectangle 46" width="25.91" height="220.8" transform="translate(428.41 161.21)" fill="#e0e0e0"/>
      <rect id="Rectangle_47" data-name="Rectangle 47" width="31.01" height="43.87" transform="translate(193.44 112.89) rotate(90)" fill="#e0e0e0"/>
      <rect id="Rectangle_48" data-name="Rectangle 48" width="26.96" height="39.75" transform="translate(191.38 114.91) rotate(90)" fill="#ebebeb"/>
      <rect id="Rectangle_49" data-name="Rectangle 49" width="31.01" height="43.87" transform="translate(178.23 151.84) rotate(90)" fill="#e0e0e0"/>
      <rect id="Rectangle_50" data-name="Rectangle 50" width="26.96" height="39.75" transform="translate(176.17 153.86) rotate(90)" fill="#ebebeb"/>
      <rect id="Rectangle_51" data-name="Rectangle 51" width="27.92" height="39.5" transform="translate(141.25 143.9) rotate(180)" fill="#e0e0e0"/>
      <rect id="Rectangle_52" data-name="Rectangle 52" width="24.28" height="35.79" transform="translate(139.43 142.04) rotate(180)" fill="#ebebeb"/>
      <rect id="Rectangle_53" data-name="Rectangle 53" width="31.01" height="43.87" transform="translate(128.45 195.72) rotate(180)" fill="#e0e0e0"/>
      <rect id="Rectangle_54" data-name="Rectangle 54" width="26.96" height="39.75" transform="translate(126.43 193.65) rotate(180)" fill="#ebebeb"/>
      <rect id="Rectangle_55" data-name="Rectangle 55" width="24.28" height="34.35" transform="translate(69.5 143.9) rotate(-90)" fill="#e0e0e0"/>
      <rect id="Rectangle_56" data-name="Rectangle 56" width="21.11" height="31.12" transform="translate(71.12 142.32) rotate(-90)" fill="#ebebeb"/>
    </g>
    <g id="freepik--Shadow--inject-10">
      <ellipse id="freepik--path--inject-10" cx="193.89" cy="11.32" rx="193.89" ry="11.32" transform="translate(56.11 404.92)" fill="#f5f5f5"/>
    </g>
    <g id="freepik--air-conditioner--inject-10">
      <path id="Path_3" data-name="Path 3" d="M435,69v39.32a3.74,3.74,0,0,1-4,3.68H298.21S282.86,104.84,284,94.84c.87-8,1.77-14.49,2.51-19.44A12.23,12.23,0,0,1,298.62,65H431A4,4,0,0,1,435,69Z" fill="#0756fb"/>
      <path id="Path_4" data-name="Path 4" d="M435,69v39.32a3.74,3.74,0,0,1-4,3.68H298.21S282.86,104.84,284,94.84c.87-8,1.77-14.49,2.51-19.44A12.23,12.23,0,0,1,298.62,65H431A4,4,0,0,1,435,69Z" fill="#fff" opacity="0.6"/>
      <path id="Path_5" data-name="Path 5" d="M435,69v39.32a3.74,3.74,0,0,1-4,3.68H419.29S403.93,104.84,405,94.84c.87-8,1.77-14.49,2.51-19.44A12.22,12.22,0,0,1,419.7,65H431A4,4,0,0,1,435,69Z" opacity="0.2" style="isolation: isolate"/>
      <path id="Path_6" data-name="Path 6" d="M287,98H403s3.83,8.5,10.33,12H300S288,104.5,287,98Z" fill="#0756fb"/>
      <path id="Path_7" data-name="Path 7" d="M287,98H403s3.83,8.5,10.33,12H300S288,104.5,287,98Z" opacity="0.2" style="isolation: isolate"/>
      <path id="Path_8" data-name="Path 8" d="M295,106H407l-1.67,4H295Z" fill="#0756fb"/>
      <path id="Path_9" data-name="Path 9" d="M291,101H403l-1.67,4H291Z" fill="#0756fb"/>
      <rect id="Rectangle_57" data-name="Rectangle 57" width="2.83" height="1.17" transform="translate(396.17 95)" fill="#0756fb"/>
      <rect id="Rectangle_58" data-name="Rectangle 58" width="2.83" height="1.17" transform="translate(392.16 95)" fill="#0756fb"/>
      <path id="Path_10" data-name="Path 10" d="M277.8,90.64a3,3,0,0,1,0-4.28" fill="none" stroke="#0756fb" stroke-linecap="round" stroke-linejoin="round" stroke-width="1"/>
      <path id="Path_11" data-name="Path 11" d="M276.23,92.22a5.25,5.25,0,0,1,0-7.44" fill="none" stroke="#0756fb" stroke-linecap="round" stroke-linejoin="round" stroke-width="1.057"/>
      <path id="Path_12" data-name="Path 12" d="M274.77,93.68a7.31,7.31,0,0,1,0-10.36" fill="none" stroke="#0756fb" stroke-linecap="round" stroke-linejoin="round" stroke-width="1"/>
      <circle id="Ellipse_1" data-name="Ellipse 1" cx="0.85" cy="0.85" r="0.85" transform="translate(279 87.65)" fill="#0756fb"/>
    </g>
    <g id="freepik--Table--inject-10">
      <path id="Path_13" data-name="Path 13" d="M50,315V417h7V330H174v87h9V315Z" fill="#263238"/>
      <path id="Path_14" data-name="Path 14" d="M50,315V417h7V330H174v87h9V315Z" opacity="0.3" style="isolation: isolate"/>
      <path id="Path_15" data-name="Path 15" d="M50,315V417h7V330H174v87h9V315Z" fill="#fff" opacity="0.4" style="isolation: isolate"/>
      <path id="Path_16" data-name="Path 16" d="M118,315V417h7V330H242v87h9V315Z" fill="#263238"/>
      <path id="Path_17" data-name="Path 17" d="M118,315V417h7V330H242v87h9V315Z" fill="#fff" opacity="0.5" style="isolation: isolate"/>
      <rect id="Rectangle_59" data-name="Rectangle 59" width="47.56" height="70.31" rx="4.49" transform="translate(195.33 244.69)" fill="#263238"/>
      <rect id="Rectangle_60" data-name="Rectangle 60" width="47.56" height="70.31" rx="4.49" transform="translate(195.33 244.69)" fill="#fff" opacity="0.1"/>
      <rect id="Rectangle_61" data-name="Rectangle 61" width="21.22" height="70.31" rx="4.49" transform="translate(221.67 244.69)" fill="#fff" opacity="0.1"/>
      <path id="Path_18" data-name="Path 18" d="M233,266.42a7.13,7.13,0,1,1,7.12-7.13,7.13,7.13,0,0,1-7.12,7.13Z" opacity="0.3" style="isolation: isolate"/>
      <path id="Path_19" data-name="Path 19" d="M239.19,259.29a6.23,6.23,0,1,1-6.23-6.23,6.23,6.23,0,0,1,6.23,6.23Z" fill="#fff" opacity="0.2"/>
      <path id="Path_20" data-name="Path 20" d="M235.46,259.29a3.12,3.12,0,1,1-3.11-3.11,3.12,3.12,0,0,1,3.11,3.11Z" opacity="0.3" style="isolation: isolate"/>
      <path id="Path_21" data-name="Path 21" d="M234.9,259.29a2.55,2.55,0,1,1-2.55-2.55A2.55,2.55,0,0,1,234.9,259.29Z" fill="#fff" opacity="0.2"/>
      <path id="Path_22" data-name="Path 22" d="M233,288.42a8,8,0,1,1,8-8A8,8,0,0,1,233,288.42Z" opacity="0.3" style="isolation: isolate"/>
      <path id="Path_23" data-name="Path 23" d="M239.92,280.46a7,7,0,1,1-7-7,7,7,0,0,1,7,7Z" fill="#fff" opacity="0.2"/>
      <path id="Path_24" data-name="Path 24" d="M235.76,280.46a3.48,3.48,0,1,1-3.48-3.48A3.48,3.48,0,0,1,235.76,280.46Z" opacity="0.3" style="isolation: isolate"/>
      <path id="Path_25" data-name="Path 25" d="M235.13,280.46a2.85,2.85,0,1,1-2.85-2.85,2.85,2.85,0,0,1,2.85,2.85Z" fill="#fff" opacity="0.2"/>
      <rect id="Rectangle_62" data-name="Rectangle 62" width="65.57" height="24.88" transform="translate(120.83 290.12)" fill="#263238"/>
      <rect id="Rectangle_63" data-name="Rectangle 63" width="72.19" height="20.02" rx="1.77" transform="translate(118 272.8)" fill="#263238"/>
      <rect id="Rectangle_64" data-name="Rectangle 64" width="43.52" height="20.02" rx="1.77" transform="translate(146.67 272.8)" fill="#fff" opacity="0.2" style="isolation: isolate"/>
      <rect id="Rectangle_65" data-name="Rectangle 65" width="72.19" height="20.02" rx="1.77" transform="translate(118 293.81)" fill="#263238"/>
      <rect id="Rectangle_66" data-name="Rectangle 66" width="43.52" height="20.02" rx="1.77" transform="translate(146.67 293.81)" fill="#fff" opacity="0.2" style="isolation: isolate"/>
      <rect id="Rectangle_67" data-name="Rectangle 67" width="72.19" height="20.02" rx="1.77" transform="translate(118 272.8)" fill="#fff" opacity="0.1"/>
      <rect id="Rectangle_68" data-name="Rectangle 68" width="72.19" height="20.02" rx="1.77" transform="translate(118 293.81)" fill="#fff" opacity="0.1"/>
      <rect id="Rectangle_69" data-name="Rectangle 69" width="15.05" height="7.15" transform="translate(162.17 280)" fill="#0756fb" style="isolation: isolate"/>
      <rect id="Rectangle_70" data-name="Rectangle 70" width="17.67" height="8.27" transform="translate(160.83 279.42)" opacity="0.3" style="isolation: isolate"/>
      <path id="Path_26" data-name="Path 26" d="M160.92,304.09a4.59,4.59,0,1,1-4.59-4.59A4.59,4.59,0,0,1,160.92,304.09Z" fill="#263238"/>
      <path id="Path_27" data-name="Path 27" d="M162.92,304.09a4.58,4.58,0,1,1-1.341-3.249,4.59,4.59,0,0,1,1.341,3.249Z" fill="#263238"/>
      <path id="Path_28" data-name="Path 28" d="M162.92,304.09a4.58,4.58,0,1,1-1.341-3.249,4.59,4.59,0,0,1,1.341,3.249Z" fill="#fff" opacity="0.5"/>
      <path id="Path_29" data-name="Path 29" d="M186.93,304.09a4.58,4.58,0,1,1-1.338-3.245,4.58,4.58,0,0,1,1.338,3.245Z" fill="#263238"/>
      <path id="Path_30" data-name="Path 30" d="M188.93,304.09a4.58,4.58,0,1,1-1.338-3.245,4.58,4.58,0,0,1,1.338,3.245Z" fill="#263238"/>
      <path id="Path_31" data-name="Path 31" d="M188.93,304.09a4.58,4.58,0,1,1-1.338-3.245,4.58,4.58,0,0,1,1.338,3.245Z" fill="#fff" opacity="0.5"/>
      <rect id="Rectangle_71" data-name="Rectangle 71" width="2.04" height="2.04" transform="translate(164.58 303.17)" fill="#fff" opacity="0.5"/>
      <rect id="Rectangle_72" data-name="Rectangle 72" width="2.04" height="2.04" transform="translate(167.41 303.17)" fill="#fff" opacity="0.5"/>
      <rect id="Rectangle_73" data-name="Rectangle 73" width="2.04" height="2.04" transform="translate(170.23 303.17)" fill="#fff" opacity="0.5"/>
      <rect id="Rectangle_74" data-name="Rectangle 74" width="2.04" height="2.04" transform="translate(173.06 303.17)" fill="#fff" opacity="0.5"/>
      <rect id="Rectangle_75" data-name="Rectangle 75" width="47.56" height="70.31" rx="4.49" transform="translate(63.33 244.69)" fill="#263238"/>
      <rect id="Rectangle_76" data-name="Rectangle 76" width="47.56" height="70.31" rx="4.49" transform="translate(63.33 244.69)" fill="#fff" opacity="0.1"/>
      <rect id="Rectangle_77" data-name="Rectangle 77" width="21.22" height="70.31" rx="4.49" transform="translate(89.67 244.69)" fill="#fff" opacity="0.1"/>
      <path id="Path_32" data-name="Path 32" d="M101,266.42a7.13,7.13,0,1,1,7.12-7.13,7.13,7.13,0,0,1-7.12,7.13Z" opacity="0.3" style="isolation: isolate"/>
      <path id="Path_33" data-name="Path 33" d="M107.19,259.29a6.23,6.23,0,1,1-6.23-6.23A6.23,6.23,0,0,1,107.19,259.29Z" fill="#fff" opacity="0.2"/>
      <path id="Path_34" data-name="Path 34" d="M103.46,259.29a3.12,3.12,0,1,1-3.11-3.11,3.12,3.12,0,0,1,3.11,3.11Z" opacity="0.3" style="isolation: isolate"/>
      <path id="Path_35" data-name="Path 35" d="M102.9,259.29a2.55,2.55,0,1,1-2.55-2.55,2.55,2.55,0,0,1,2.55,2.55Z" fill="#fff" opacity="0.2"/>
      <path id="Path_36" data-name="Path 36" d="M101,288.42a8,8,0,1,1,8-8A8,8,0,0,1,101,288.42Z" opacity="0.3" style="isolation: isolate"/>
      <path id="Path_37" data-name="Path 37" d="M107.92,280.46a7,7,0,1,1-7-7A7,7,0,0,1,107.92,280.46Z" fill="#fff" opacity="0.2"/>
      <path id="Path_38" data-name="Path 38" d="M103.76,280.46a3.48,3.48,0,1,1-3.48-3.48A3.48,3.48,0,0,1,103.76,280.46Z" opacity="0.3" style="isolation: isolate"/>
      <path id="Path_39" data-name="Path 39" d="M103.13,280.46a2.85,2.85,0,1,1-2.85-2.85,2.85,2.85,0,0,1,2.85,2.85Z" fill="#fff" opacity="0.2"/>
      <path id="Path_40" data-name="Path 40" d="M156,263.55a3,3,0,0,1,4.29,0" fill="none" stroke="#0756fb" stroke-linecap="round" stroke-linejoin="round" stroke-width="1"/>
      <path id="Path_41" data-name="Path 41" d="M154.42,262a5.27,5.27,0,0,1,7.44,0" fill="none" stroke="#0756fb" stroke-linecap="round" stroke-linejoin="round" stroke-width="1.057"/>
      <path id="Path_42" data-name="Path 42" d="M153,260.51a7.34,7.34,0,0,1,10.37,0" fill="none" stroke="#0756fb" stroke-linecap="round" stroke-linejoin="round" stroke-width="1"/>
      <path id="Path_43" data-name="Path 43" d="M159,265.59a.86.86,0,1,1-.85-.85A.85.85,0,0,1,159,265.59Z" fill="#0756fb"/>
    </g>
    <g id="freepik--Sofa--inject-10">
      <rect id="Rectangle_78" data-name="Rectangle 78" width="83.49" height="70.61" rx="11.63" transform="translate(232.68 327.74)" fill="#0756fb"/>
      <rect id="Rectangle_79" data-name="Rectangle 79" width="83.49" height="70.61" rx="11.63" transform="translate(232.68 327.74)" fill="#fff" opacity="0.1" style="isolation: isolate"/>
      <path id="Path_44" data-name="Path 44" d="M244.3,398.36h0a11.63,11.63,0,0,1-11.62-11.63V339.37a11.63,11.63,0,0,1,11.62-11.63h0a11.63,11.63,0,0,1,11.63,11.63v47.36A11.63,11.63,0,0,1,244.3,398.36Z" fill="#fff" opacity="0.2" style="isolation: isolate"/>
      <path id="Path_45" data-name="Path 45" d="M100,395.57,96.5,417H104l6.89-20.44Z" fill="#263238"/>
      <path id="Path_46" data-name="Path 46" d="M202.39,395.57l3.5,21.43h-7.5l-6.89-20.44Z" fill="#263238"/>
      <path id="Path_47" data-name="Path 47" d="M100,395.57,96.5,417H104l6.89-20.44Z" fill="#fff" opacity="0.1" style="isolation: isolate"/>
      <path id="Path_48" data-name="Path 48" d="M202.39,395.57l3.5,21.43h-7.5l-6.89-20.44Z" fill="#fff" opacity="0.1" style="isolation: isolate"/>
      <path id="Path_49" data-name="Path 49" d="M309,395.57,305.5,417H313l6.89-20.44Z" fill="#263238"/>
      <path id="Path_50" data-name="Path 50" d="M411.39,395.57l3.5,21.43h-7.5l-6.89-20.44Z" fill="#263238"/>
      <rect id="Rectangle_80" data-name="Rectangle 80" width="341" height="51" rx="8.64" transform="translate(85 350)" fill="#0756fb"/>
      <rect id="Rectangle_81" data-name="Rectangle 81" width="341" height="51" rx="8.64" transform="translate(85 350)" fill="#fff" opacity="0.1" style="isolation: isolate"/>
      <rect id="Rectangle_82" data-name="Rectangle 82" width="129" height="51" rx="8.64" transform="translate(85 350)" fill="#fff" opacity="0.2" style="isolation: isolate"/>
      <path id="Path_51" data-name="Path 51" d="M298,351.18H421l18.74-96.78A17.15,17.15,0,0,0,422.85,234H334.79A17.15,17.15,0,0,0,318,247.88Z" fill="#0756fb"/>
      <g id="Group_1" data-name="Group 1" opacity="0.1" style="isolation: isolate">
        <path id="Path_52" data-name="Path 52" d="M298,351.18H421l18.74-96.78A17.15,17.15,0,0,0,422.85,234H334.79A17.15,17.15,0,0,0,318,247.88Z" fill="#fff"/>
      </g>
      <path id="Path_53" data-name="Path 53" d="M298,351h88l20-103.21A17.07,17.07,0,0,1,422.85,234H334.79A17.07,17.07,0,0,0,318,247.8Z" fill="#fff" opacity="0.2" style="isolation: isolate"/>
      <rect id="Rectangle_83" data-name="Rectangle 83" width="83.49" height="70.61" rx="11.63" transform="translate(362.76 327.74)" fill="#0756fb"/>
      <rect id="Rectangle_84" data-name="Rectangle 84" width="83.49" height="70.61" rx="11.63" transform="translate(362.76 327.74)" fill="#fff" opacity="0.1" style="isolation: isolate"/>
      <path id="Path_54" data-name="Path 54" d="M374.38,398.36h0a11.63,11.63,0,0,1-11.62-11.63V339.37a11.63,11.63,0,0,1,11.62-11.63h0A11.63,11.63,0,0,1,386,339.37v47.36a11.63,11.63,0,0,1-11.62,11.63Z" fill="#fff" opacity="0.2" style="isolation: isolate"/>
    </g>
    <g id="freepik--Character--inject-10">
      <g id="freepik--group--inject-10">
        <path id="Path_55" data-name="Path 55" d="M324.11,340.63s-9.44,13.37-24,12.37c-27.27-1.87-60.41-40-64.41-40.33-6.33-.53-59,28-59,28L167,329.83s56.65-44.71,69-45.44S324.11,340.63,324.11,340.63Z" fill="#0756fb"/>
        <path id="Path_56" data-name="Path 56" d="M324.25,340.63a.7.7,0,0,0-.25.53h0a34,34,0,0,1-10.21,8.6A24.449,24.449,0,0,1,300.15,353c-27.27-1.87-60.44-40-64.44-40.33-6.33-.53-59,28-59,28L167,329.83s22-17.33,41.51-30.59c11.85-8,22.82-14.57,27.48-14.85,11.46-.67,77.58,48.32,87.05,55.39C323.79,340.33,324.25,340.63,324.25,340.63Z" fill="#fff" opacity="0.6" style="isolation: isolate"/>
        <path id="Path_57" data-name="Path 57" d="M308.92,236.35s-5.36-.1-5.54.85.16,8.78.87,9.88a17,17,0,0,0,2.67,2.69L303,261.44l6.61,3.35,2.9-12.72s3.28-3.21,2.32-7.28S308.92,236.35,308.92,236.35Z" fill="#eec1bb"/>
        <path id="Path_58" data-name="Path 58" d="M308.92,236.35s-5.36-.1-5.54.85.16,8.78.87,9.88a17,17,0,0,0,2.67,2.69L303,261.44l6.61,3.35,2.9-12.72s3.28-3.21,2.32-7.28S308.92,236.35,308.92,236.35Z" opacity="0.2" style="isolation: isolate"/>
        <path id="Path_59" data-name="Path 59" d="M302,261.59l1.63-3.44,8.08,3.44-.53,4.16Z" fill="#263238"/>
        <path id="Path_60" data-name="Path 60" d="M331.5,251.5c-8,.17-21.67,32.17-21.67,32.17s3.09-15.67,2.38-17.5-7.54-6.34-11.21-5.34-11.5,26.76-6,35.8,15.67,11.2,29.83,1.7S331.5,251.5,331.5,251.5Z" fill="#263238"/>
        <path id="Path_61" data-name="Path 61" d="M326,297.45c-.37.31-.76.57-1.16.85-8.12,5.44-14.92,6.7-20.29,5.7h0a15.49,15.49,0,0,1-9.53-7.41c-5.5-9,2.33-34.78,6-35.78s10.5,3.51,11.21,5.35S310,283,309.84,283.65c.42-1,13.78-32,21.66-32.15C331.5,251.5,338.58,286.73,326,297.45Z" opacity="0.3" style="isolation: isolate"/>
        <path id="Path_62" data-name="Path 62" d="M326,297.45a14.14,14.14,0,0,1-1.16.88c-8.12,5.44-14.92,7.06-20.29,5.74,11.29-5.42,19.75-19.68,19.75-19.68Z" opacity="0.2" style="isolation: isolate"/>
        <path id="Path_63" data-name="Path 63" d="M344.72,250.67s3.93-7.18,19.1-4.34,12.24,8.79,7.36,10.89-22.42,0-22.42,0S343.74,253.33,344.72,250.67Z" fill="#263238"/>
        <path id="Path_64" data-name="Path 64" d="M344.72,250.67s3.93-7.18,19.1-4.34,12.24,8.79,7.36,10.89-22.42,0-22.42,0S343.74,253.33,344.72,250.67Z" opacity="0.2" style="isolation: isolate"/>
        <path id="Path_65" data-name="Path 65" d="M302,318.62s15.25-10.36,20-26,9.5-41.13,9.5-41.13,22.75-5.75,44.75,2.5-2.68,80.21-22.91,87.81Z" fill="#263238"/>
        <path id="Path_66" data-name="Path 66" d="M366.58,231.61c-2,6-4.63,17.15-.84,21.82A19.89,19.89,0,0,1,351,257.65c-7.93-.82-4.37-6.65-4.37-6.65,7.08-.77,7.55-5.9,7-10.84Z" fill="#eec1bb"/>
        <path id="Path_67" data-name="Path 67" d="M361.27,235.1l-7.72,5.06a20.12,20.12,0,0,1,.16,3.47c2.68,0,6.65-2.47,7.28-5.18a9.24,9.24,0,0,0,.28-3.35Z" opacity="0.2" style="isolation: isolate"/>
        <path id="Path_68" data-name="Path 68" d="M354,213.41c3.07,2.83.93,6.52-7.7,11.51-2.53-4.53-1.87-12.5.91-14.12S351.32,211,354,213.41Z" fill="#263238"/>
        <path id="Path_69" data-name="Path 69" d="M367.72,222c-1.18,6.09-1.78,10.37-3.91,13.69a13.19,13.19,0,0,1-3,3.25c-7.19,5.61-17,.43-17.89-8.16,0-.27-.05-.55-.06-.83-.54-7.75,2.32-19.23,10.63-21.39A11.5,11.5,0,0,1,367.72,222Z" fill="#eec1bb"/>
        <path id="Path_70" data-name="Path 70" d="M363.81,235.64a13.191,13.191,0,0,1-3,3.25c-7.19,5.61-17,.43-17.89-8.16,0-.27-.05-.55-.06-.83,1.56.87,3.74,1.85,5.38,1.71,2.87-.23,5.94-2.2,7.93-2.83a8.68,8.68,0,0,1,3.75-.1s3.19-2,4-5l.8,1.74a22.94,22.94,0,0,1-.91,10.22Z" opacity="0.3" style="isolation: isolate"/>
        <path id="Path_71" data-name="Path 71" d="M355,222.6c-.09.68-.53,1.18-1,1.12s-.73-.65-.64-1.33.52-1.18,1-1.13S355,221.93,355,222.6Z" fill="#263238"/>
        <path id="Path_72" data-name="Path 72" d="M347.23,221.6c-.09.68-.52,1.18-1,1.12s-.74-.65-.65-1.34.52-1.18,1-1.12S347.32,220.92,347.23,221.6Z" fill="#263238"/>
        <path id="Path_73" data-name="Path 73" d="M349.71,222.25a24.25,24.25,0,0,1-4,5.38,3.92,3.92,0,0,0,3.17,1Z" fill="#d58745"/>
        <path id="Path_74" data-name="Path 74" d="M357.39,220.44a.34.34,0,0,0,.26,0,.42.42,0,0,0,.16-.55,4,4,0,0,0-3-2.07.38.38,0,0,0-.42.35h0a.42.42,0,0,0,.37.43h0a3.19,3.19,0,0,1,2.38,1.66.4.4,0,0,0,.25.18Z" fill="#263238"/>
        <path id="Path_75" data-name="Path 75" d="M344.06,218.53a.41.41,0,0,0,.39-.18,3.22,3.22,0,0,1,2.49-1.51.4.4,0,0,0,.4-.4A.41.41,0,0,0,347,216a4,4,0,0,0-3.17,1.88.4.4,0,0,0,.11.55h0a.439.439,0,0,0,.12.1Z" fill="#263238"/>
        <path id="Path_76" data-name="Path 76" d="M365.37,214.11c-4.08.83-4.15,5.1.66,13.82,4.51-2.57,8.07-9.74,6.5-12.55S368.93,213.4,365.37,214.11Z" fill="#263238"/>
        <path id="Path_77" data-name="Path 77" d="M370.82,229.15a8,8,0,0,1-4.4,4.26c-2.63,1-4.2-1.28-3.69-3.89.45-2.36,2.37-5.72,5.11-5.6S371.85,226.76,370.82,229.15Z" fill="#eec1bb"/>
        <path id="Path_78" data-name="Path 78" d="M354.92,231s-1.85,2.51-5.87,1.78" fill="none" stroke="#263238" stroke-linecap="round" stroke-linejoin="round" stroke-width="0.526"/>
        <path id="Path_79" data-name="Path 79" d="M347.13,208.12c-.16.94.12,2.46,5.2,3.21s9.75-1.41,11.34,0,3.23,5.95,3.23,5.95l5.6-1.25s1.25-3.7-1.75-7.91-19.74-1-21-3.29A5.352,5.352,0,0,0,347.13,208.12Z" fill="#263238"/>
        <path id="Path_80" data-name="Path 80" d="M160.39,349.98l-3.88-7.04,14.52-12.2,3.87,7.04Z" fill="#eec1bb"/>
        <path id="Path_81" data-name="Path 81" d="M174.9,337.78l-3.87-7.03-8.31,6.97,4.19,6.79Z" opacity="0.2" style="isolation: isolate"/>
        <path id="Path_82" data-name="Path 82" d="M174.86,344.36,163.4,330.9l5.16-5.71,12.28,15Z" fill="#0756fb"/>
        <path id="Path_83" data-name="Path 83" d="M174.86,344.36,163.4,330.9l5.16-5.71,12.28,15Z" fill="#fff" opacity="0.2"/>
        <path id="Path_84" data-name="Path 84" d="M157,343.55h-.42c0-.13.79-2.17.45-3.22a1.61,1.61,0,0,0-.82-.67.92.92,0,0,0-1,.16,2.86,2.86,0,0,0-.31,2c-.49-.71-1.15-1.45-1.72-1.51a.72.72,0,0,0-.64.27,1,1,0,0,0-.29,1,2.19,2.19,0,0,0,1.15,1,10.19,10.19,0,0,0,2,.73h.12c.06,0,.31.11.34.09l.7.09Zm-1.62-3.49a.34.34,0,0,1,.44-.07h.09a.53.53,0,0,1,.27.33,4,4,0,0,1-.69,2.45l-.09-.16a3.81,3.81,0,0,1-.02-2.55Zm-2.77,1.42a.66.66,0,0,1,.19-.65.31.31,0,0,1,.31-.13c.56.06,1.43,1.27,2,2.23C153.69,342.51,152.77,342,152.61,341.48Z" fill="#0756fb"/>
        <path id="Path_85" data-name="Path 85" d="M156.57,342.76l8,4.18a.57.57,0,0,1,.28.76h0l-2.92,6.53a1.41,1.41,0,0,1-1.9.6c-2.77-1.5-4-2.36-7.51-4.23-2.15-1.13-6.52-3.17-9.22-5.19s-.64-4.63.69-4c3.14,1.45,8.34,1.65,11.17,1.12a2.27,2.27,0,0,1,1.41.23Z" fill="#263238"/>
        <path id="Path_86" data-name="Path 86" d="M351,257.65s.68-4.22,10.36-8.1,17.86.43,16.69,3.28c0,0,6.29.65,3.06,4.82S351,257.65,351,257.65Z" fill="#263238"/>
        <path id="Path_87" data-name="Path 87" d="M348.76,257.22A8.76,8.76,0,0,1,350,248s-1.45-2.66-4.32,0C345.7,248,334.19,250.94,348.76,257.22Z" fill="#263238"/>
        <path id="Path_88" data-name="Path 88" d="M351,257.65s.68-4.22,10.36-8.1,17.86.43,16.69,3.28c0,0,6.29.65,3.06,4.82S351,257.65,351,257.65Z" opacity="0.2" style="isolation: isolate"/>
        <path id="Path_89" data-name="Path 89" d="M348.76,257.22A8.76,8.76,0,0,1,350,248s-1.45-2.66-4.32,0C345.7,248,334.19,250.94,348.76,257.22Z" opacity="0.2" style="isolation: isolate"/>
        <path id="Path_90" data-name="Path 90" d="M346.39,255.69s-5.64,2.11-6.14,16S333,285.44,333,285.44" fill="none" stroke="#fff" stroke-linecap="round" stroke-linejoin="round" stroke-width="1"/>
        <path id="Path_91" data-name="Path 91" d="M353,256.63s-2.78,4.37-1,12.87.77,18.13-5,21.25" fill="none" stroke="#fff" stroke-linecap="round" stroke-linejoin="round" stroke-width="1"/>
        <path id="Path_92" data-name="Path 92" d="M318,243.2a.8.8,0,0,1-.89.85l-9.12-.71a1.06,1.06,0,0,1-1-1l-.63-18.15a.91.91,0,0,1,.9-1l9.11.7a1.19,1.19,0,0,1,.95,1.12Z" fill="#263238"/>
        <path id="Path_93" data-name="Path 93" d="M316.37,224.86l.65,18.32a.69.69,0,0,1-.78.8l-7.73-.6c-.52,0-1.44-.4-1.46-.92l-.65-18.38c0-.51.9-.85,1.42-.81l7.72.6a.94.94,0,0,1,.83.99Z" fill="#fff" opacity="0.5"/>
        <path id="Path_94" data-name="Path 94" d="M327.27,257l-3.46-8.08s-1.13-10.84-1.68-12-9.36-.73-10.32-.8S311,246.85,312,248s4.52,2.05,4.52,2.05l4.42,11.56Z" fill="#eec1bb"/>
        <path id="Path_95" data-name="Path 95" d="M319.23,261.59l-1.22-4.96,9.26-4.61,1.4,4.79Z" fill="#263238"/>
        <path id="Path_96" data-name="Path 96" d="M318,261.59c1.07-2.85,5.82-7.2,10.66-5.9s15.84,36.14,18.67,37.81,22.39-28.33,27.78-30.5,9.5.13,9.69,12.48-19.9,46.47-37.1,43.66S313.5,273.69,318,261.59Z" fill="#263238"/>
        <path id="Path_97" data-name="Path 97" d="M318,261.59c1.07-2.85,5.82-7.2,10.66-5.9s15.84,36.14,18.67,37.81,22.39-28.33,27.78-30.5,9.5.13,9.69,12.48-19.9,46.47-37.1,43.66S313.5,273.69,318,261.59Z" opacity="0.2" style="isolation: isolate"/>
        <path id="Path_98" data-name="Path 98" d="M319.4,350a28.848,28.848,0,0,1-5.68-.27c-28.94-4-69-47.65-70.94-50-1.38-1.67-21.18-1.1-34.24-.53,11.85-8,22.81-14.57,27.47-14.85,11.46-.67,77.65,48.32,87.12,55.39.27.47-.13.93.87,1.38h0C326,346.3,325.5,349.69,319.4,350Z" opacity="0.3" style="isolation: isolate"/>
        <path id="Path_99" data-name="Path 99" d="M362.36,334.77S351.5,357.59,317.5,352.5c-27-4.05-62.54-57.23-65.92-59.39-5.34-3.43-65.22-2.92-65.22-2.92l-3.49-14.08s71-13,82.25-7.83c6.17,2.82,63.13,52,63.13,52Z" fill="#0756fb"/>
        <path id="Path_100" data-name="Path 100" d="M362.36,334.77S351.5,357.59,317.5,352.5c-27-4.05-62.54-57.23-65.92-59.39-5.34-3.43-65.22-2.92-65.22-2.92l-3.49-14.08s71-13,82.25-7.83c6.17,2.82,63.13,52,63.13,52Z" fill="#fff" opacity="0.6" style="isolation: isolate"/>
        <path id="Path_101" data-name="Path 101" d="M167.6,290.82l-.13-8.04,18.54-3.97.12,8.03Z" fill="#eec1bb"/>
        <path id="Path_102" data-name="Path 102" d="M186.13,286.84l-.13-8.03-10.6,2.27.52,7.96Z" opacity="0.2" style="isolation: isolate"/>
        <path id="Path_103" data-name="Path 103" d="M183.01,292.63l-3.82-17.25,7.24-2.64,3.82,19.01Z" fill="#0756fb"/>
        <path id="Path_104" data-name="Path 104" d="M183.01,292.63l-3.82-17.25,7.24-2.64,3.82,19.01Z" fill="#fff" opacity="0.2"/>
        <path id="Path_105" data-name="Path 105" d="M168,283.52h0l-.57-.17a6.7,6.7,0,0,0,1.81-2.63,2.213,2.213,0,0,0-.46-1,.94.94,0,0,0-1-.33,2.92,2.92,0,0,0-1.22,1.6,3.3,3.3,0,0,0-.81-2.13.73.73,0,0,0-.7-.07,1,1,0,0,0-.74.78,2.15,2.15,0,0,0,.52,1.46,10.279,10.279,0,0,0,1.43,1.59s0,0,0,.06h.07s.23.25.26.24.76.41.77.4Zm-.18-3.8c.1-.05.24-.07.42.14l.06.07a.52.52,0,0,1,.08.42c-.1.66-1.12,1.43-1.76,1.85V282a3.76,3.76,0,0,1,1.2-2.28Zm-3.12-.05a.68.68,0,0,1,.47-.49.35.35,0,0,1,.34,0c.47.32.67,1.8.71,2.9-1.05-.99-1.61-1.89-1.52-2.41Z" fill="#0756fb"/>
        <path id="Path_106" data-name="Path 106" d="M167.6,282.65l5.1,7.44a.57.57,0,0,1-.11.8h0l-5.64,4.4a1.43,1.43,0,0,1-2-.35c-1.73-2.63-2.43-4-4.65-7.26a73.93,73.93,0,0,1-5.71-8.9c-1.44-3.04,1.6-4.39,2.48-3.23,2.1,2.75,6.6,5.36,9.35,6.22A2.31,2.31,0,0,1,167.6,282.65Z" fill="#263238"/>
      </g>
      <path id="Path_107" data-name="Path 107" d="M310.06,218.43a3,3,0,0,1,4.29,0" fill="none" stroke="#0756fb" stroke-linecap="round" stroke-linejoin="round" stroke-width="1"/>
      <path id="Path_108" data-name="Path 108" d="M308.49,216.85a5.27,5.27,0,0,1,7.44,0" fill="none" stroke="#0756fb" stroke-linecap="round" stroke-linejoin="round" stroke-width="1.057"/>
      <path id="Path_109" data-name="Path 109" d="M307,215.39a7.34,7.34,0,0,1,10.37,0" fill="none" stroke="#0756fb" stroke-linecap="round" stroke-linejoin="round" stroke-width="1"/>
      <path id="Path_110" data-name="Path 110" d="M313.06,220.47a.86.86,0,1,1-.85-.85.85.85,0,0,1,.85.85Z" fill="#0756fb"/>
    </g>
    <g id="freepik--Bubble--inject-10">
      <rect id="Rectangle_85" data-name="Rectangle 85" width="121.03" height="74.58" rx="6.18" transform="translate(165.57 131.92)" fill="#0756fb"/>
      <rect id="Rectangle_86" data-name="Rectangle 86" width="119" height="72.55" rx="5.44" transform="translate(166.59 132.93)" fill="#0756fb"/>
      <rect id="Rectangle_87" data-name="Rectangle 87" width="119" height="72.55" rx="5.44" transform="translate(166.59 132.93)" fill="#fff" opacity="0.6" style="isolation: isolate"/>
      <rect id="Rectangle_88" data-name="Rectangle 88" width="119" height="68.55" rx="5.44" transform="translate(166.59 132.93)" fill="#fff" opacity="0.2" style="isolation: isolate"/>
      <rect id="Rectangle_89" data-name="Rectangle 89" width="95.21" height="11.4" rx="1.67" transform="translate(174.48 138.96)" fill="#fff"/>
      <text id="LAMP" transform="translate(177.42 148.35)" fill="#0756fb" font-size="8.032" font-family="Helvetica"><tspan x="0" y="0">L</tspan><tspan y="0" letter-spacing="0.021em">A</tspan><tspan y="0" letter-spacing="0.028em">M</tspan><tspan y="0">P</tspan></text>
      <rect id="Rectangle_90" data-name="Rectangle 90" width="95.21" height="11.4" rx="1.67" transform="translate(174.48 138.96)" fill="#fff" opacity="0.3"/>
      <rect id="Rectangle_91" data-name="Rectangle 91" width="95.21" height="11.4" rx="1.67" transform="translate(174.48 153.32)" fill="#fff"/>
      <text id="AIR_CONDITIoNER" data-name="AIR CONDITIoNER" transform="translate(177.42 162.72)" fill="#0756fb" font-size="8.032" font-family="Helvetica"><tspan x="0" y="0" letter-spacing="0.021em">A</tspan><tspan y="0" letter-spacing="0.028em">I</tspan><tspan y="0">R </tspan><tspan y="0" letter-spacing="0.016em">C</tspan><tspan y="0" letter-spacing="0.026em">O</tspan><tspan y="0" letter-spacing="0.028em">N</tspan><tspan y="0" letter-spacing="0.026em">D</tspan><tspan y="0" letter-spacing="0.016em">IT</tspan><tspan y="0" letter-spacing="0.026em">I</tspan><tspan y="0" letter-spacing="0.026em">o</tspan><tspan y="0" letter-spacing="0.028em">N</tspan><tspan y="0">ER</tspan></text>
      <rect id="Rectangle_92" data-name="Rectangle 92" width="95.21" height="11.4" rx="1.67" transform="translate(174.48 153.32)" fill="#fff" opacity="0.3"/>
      <rect id="Rectangle_93" data-name="Rectangle 93" width="95.21" height="11.4" rx="1.67" transform="translate(174.48 167.69)" fill="#fff"/>
      <text id="MUSIC" transform="translate(177.42 177.08)" fill="#0756fb" font-size="8.032" font-family="Helvetica"><tspan x="0" y="0" letter-spacing="0.027em">M</tspan><tspan y="0" letter-spacing="0.018em">U</tspan><tspan y="0" letter-spacing="0.019em">S</tspan><tspan y="0" letter-spacing="0.026em">I</tspan><tspan y="0">C</tspan></text>
      <rect id="Rectangle_94" data-name="Rectangle 94" width="95.21" height="11.4" rx="1.67" transform="translate(174.48 167.69)" fill="#fff" opacity="0.3"/>
      <rect id="Rectangle_95" data-name="Rectangle 95" width="95.21" height="11.4" rx="1.67" transform="translate(174.48 182.05)" fill="#fff"/>
      <text id="TV" transform="translate(177.42 191.45)" fill="#0756fb" font-size="8.032" font-family="Helvetica"><tspan x="0" y="0">TV</tspan></text>
      <rect id="Rectangle_96" data-name="Rectangle 96" width="95.21" height="11.4" rx="1.67" transform="translate(174.48 182.05)" fill="#fff" opacity="0.3"/>
      <rect id="Rectangle_97" data-name="Rectangle 97" width="17.67" height="7.93" rx="1.58" transform="translate(249.69 140.69)" fill="#263238"/>
      <rect id="Rectangle_98" data-name="Rectangle 98" width="7.66" height="7.93" rx="1.58" transform="translate(249.69 140.69)" fill="#fff" opacity="0.5"/>
      <rect id="Rectangle_99" data-name="Rectangle 99" width="17.67" height="7.93" rx="1.58" transform="translate(249.69 140.69)" fill="#fff" opacity="0.5"/>
      <rect id="Rectangle_100" data-name="Rectangle 100" width="17.67" height="7.93" rx="1.58" transform="translate(249.69 183.72)" fill="#263238"/>
      <rect id="Rectangle_101" data-name="Rectangle 101" width="7.66" height="7.93" rx="1.58" transform="translate(249.69 183.72)" fill="#fff" opacity="0.5"/>
      <rect id="Rectangle_102" data-name="Rectangle 102" width="17.67" height="7.93" rx="1.58" transform="translate(249.69 183.72)" fill="#fff" opacity="0.5"/>
      <rect id="Rectangle_103" data-name="Rectangle 103" width="17.67" height="7.93" rx="1.58" transform="translate(249.69 169.37)" fill="#0756fb"/>
      <rect id="Rectangle_104" data-name="Rectangle 104" width="7.66" height="7.93" rx="1.58" transform="translate(259.7 169.37)" fill="#fff" opacity="0.5"/>
      <rect id="Rectangle_105" data-name="Rectangle 105" width="17.67" height="7.93" rx="1.58" transform="translate(249.69 155.03)" fill="#0756fb"/>
      <rect id="Rectangle_106" data-name="Rectangle 106" width="7.66" height="7.93" rx="1.58" transform="translate(259.7 155.03)" fill="#fff" opacity="0.5"/>
      <path id="Path_111" data-name="Path 111" d="M269.69,205.25v-7.52a1.66,1.66,0,0,0-1.66-1.67H176.15a1.67,1.67,0,0,0-1.67,1.67v7.52Z" fill="#fff"/>
      <path id="Path_112" data-name="Path 112" d="M250.22,205.25h16.61a1.57,1.57,0,0,0,.53-1.17V199.3a1.57,1.57,0,0,0-1.58-1.57H251.27a1.57,1.57,0,0,0-1.58,1.57v4.78a1.57,1.57,0,0,0,.53,1.17Z" fill="#263238"/>
      <path id="Path_113" data-name="Path 113" d="M250.22,205.25h6.61a1.56,1.56,0,0,0,.52-1.17V199.3a1.57,1.57,0,0,0-1.58-1.57h-4.5a1.57,1.57,0,0,0-1.58,1.57v4.78a1.57,1.57,0,0,0,.53,1.17Z" fill="#fff" opacity="0.5"/>
      <path id="Path_114" data-name="Path 114" d="M250.22,205.25h16.61a1.57,1.57,0,0,0,.53-1.17V199.3a1.57,1.57,0,0,0-1.58-1.57H251.27a1.57,1.57,0,0,0-1.58,1.57v4.78a1.57,1.57,0,0,0,.53,1.17Z" fill="#fff" opacity="0.5"/>
      <path id="Path_115" data-name="Path 115" d="M276.63,201.76h0a2.13,2.13,0,0,1-2.13-2.13V141.08a2.12,2.12,0,0,1,2.13-2.12h0a2.12,2.12,0,0,1,2.12,2.12v58.55a2.12,2.12,0,0,1-2.12,2.13Z" opacity="0.2"/>
      <path id="Path_116" data-name="Path 116" d="M276.63,161.73h0a2.12,2.12,0,0,1-2.13-2.12V141.08a2.12,2.12,0,0,1,2.13-2.12h0a2.12,2.12,0,0,1,2.12,2.12v18.53a2.12,2.12,0,0,1-2.12,2.12Z" fill="#fff"/>
      <line id="Line_1" data-name="Line 1" y2="3" transform="translate(224.5 206)" fill="none" stroke="#0756fb" stroke-linecap="round" stroke-linejoin="round" stroke-width="1"/>
      <line id="Line_2" data-name="Line 2" y2="14" transform="translate(224.5 211)" fill="none" stroke="#0756fb" stroke-linecap="round" stroke-linejoin="round" stroke-width="1" stroke-dasharray="5 2"/>
      <path id="Path_117" data-name="Path 117" d="M224.5,226v2.5H227" fill="none" stroke="#0756fb" stroke-linecap="round" stroke-linejoin="round" stroke-width="1"/>
      <line id="Line_3" data-name="Line 3" x2="69" transform="translate(229 228.5)" fill="none" stroke="#0756fb" stroke-linecap="round" stroke-linejoin="round" stroke-width="1" stroke-dasharray="5 2"/>
      <line id="Line_4" data-name="Line 4" x2="3" transform="translate(299 228.5)" fill="none" stroke="#0756fb" stroke-linecap="round" stroke-linejoin="round" stroke-width="1"/>
      <circle id="Ellipse_2" data-name="Ellipse 2" cx="1.15" cy="1.15" r="1.15" transform="translate(302.33 227.35)" fill="#0756fb"/>
    </g>
  </g>
</svg>
