<svg xmlns="http://www.w3.org/2000/svg" version="1.1" xmlns:xlink="http://www.w3.org/1999/xlink" xmlns:svgjs="http://svgjs.com/svgjs" width="512" height="512" x="0" y="0" viewBox="0 0 512 512" style="enable-background:new 0 0 512 512" xml:space="preserve"><g><path d="M380.486 501.823a6.923 6.923 0 0 1-5.874 7.827c-3.752.525-7.289-2.09-7.829-5.872l-16.096-112.693-15.672 113.47c-.506 3.662-4.116 6.427-7.802 5.908a6.922 6.922 0 0 1-5.91-7.8l22.411-162.259a6.928 6.928 0 0 1 6.856-5.973 6.926 6.926 0 0 1 6.852 5.942zm64.166-252.717a20.915 20.915 0 0 1-7.027 1.194c-7.324 0-15.862-3.695-22.774-13.973l1.246 54.2 16.442 209.548c.237 3.025-1.669 5.85-4.475 6.932-4.136 1.595-8.972-1.421-9.318-5.851l-16.465-209.929-1.981-85.615-18.788 32.544c1.948 2.47 3.024 4.948 3.552 7.06 1.842 7.388-.946 15.972-7.847 24.168-7.586 9.012-12.694 12.341-18.506 12.341-.73 0-1.483-.095-2.241-.195l-57.785 100.083 14.956 8.634a6.917 6.917 0 0 1 2.532 9.451l-12.059 20.889-15.929 85.784c-.854 4.602-6.209 7.071-10.262 4.728L236.6 487.241a6.925 6.925 0 0 1-3.275-7.582 6.904 6.904 0 0 1-8.203.955l-23.627-13.64c-2.912-1.681-4.211-5.489-2.951-8.595-2.53 2.337-5.769 3.569-9.005 1.692l-27.929-16.127c-4.006-2.313-4.563-8.197-1.072-11.219l65.77-57.03 12.073-20.911c1.85-3.204 6.268-4.366 9.451-2.532l14.955 8.635 11.905-20.619.719-44.453.295-33.23-19.922-2.139c-12.649-1.356-21.97-11.971-21.681-24.693l1.329-58.796c0-23.499 17.771-41.095 50.039-49.392 12.53-3.223 25.194-5.355 37.936-6.604-20.057-10.28-34.273-35.285-34.273-64.481 0-34.838 20.902-56.481 54.544-56.481 33.646 0 54.548 21.643 54.548 56.481 0 28.632-13.661 53.265-33.109 63.902a261.676 261.676 0 0 1 33.306 4.475l20.944-36.676a6.926 6.926 0 0 1 4.203-3.248 6.877 6.877 0 0 1 5.266.687l23.911 13.807a6.916 6.916 0 0 1 2.613 9.305l-12.033 22.056c.78.594 1.51 1.244 2.123 2.001 5.093 6.286 8.565 15.088 9.694 24.305l7.545 35.635c6.753 31.896-4.613 51.584-18.037 56.377zM424.268 144.76c-4.036 3.761-4.613 9.865-1.761 17.512l18.141-7.924a37.246 37.246 0 0 0-2.513-7.251 30.418 30.418 0 0 0-1.75-3.219c-.899-1.431-1.367-2.623-3.237-2.623-2.186 0-6.01.833-8.88 3.505zm-67.46 80.867c4.403 1.241 8.968 2.679 13.015 4.306.131.052.232.114.36.167l38.292-66.326c-4.435-15.429 1.464-26.285 9.657-31.74a26.916 26.916 0 0 1 11.045-4.207l10.799-19.794-12.046-6.953zm-13.135-113.475c22.447 0 40.71-24.974 40.71-55.674 0-27.101-14.839-42.642-40.71-42.642s-40.705 15.541-40.705 42.642c0 30.699 18.263 55.674 40.705 55.674zm-86.415 134.535 58.922 6.325 10.275-20.803-48.516-13.821a6.92 6.92 0 0 1-5.023-6.683l.117-27.204c.018-3.811 3.113-6.89 6.951-6.89a6.919 6.919 0 0 1 6.888 6.949l-.095 21.958c18.667 5.317 37.299 10.895 56.136 15.534l48.251-84.492c-34.516-6.257-68.869-5.179-102.247 3.406-18.091 4.651-39.651 14.697-39.651 36.146l-1.329 58.954c-.125 5.472 3.88 10.037 9.321 10.621zm31.672 68.915 28.052-48.588-27.452-2.947-.284 31.92zm.901 106.1-57.306-33.086-55.587 48.201 15.113 8.726 30.304-27.911a6.922 6.922 0 0 1 9.014-.311 6.917 6.917 0 0 1 1.667 8.861l-18.632 32.27 12.942 7.469 19.253-20.044a6.924 6.924 0 0 1 8.685-1.059 6.925 6.925 0 0 1 2.779 8.293l-9.46 25.085 27.758 16.026zm10.898-22.932-53.827-31.076-5.735 9.934 53.826 31.077zm-14.027-24.076 56.341-97.583-12.895-5.227-55.379 95.92zm84.932-126.129c-.685-2.75-4.167-4.667-6.969-5.791-7.901-3.176-16.219-5.103-24.465-7.139l-10.453 21.158 21.175 8.582c8.577 3.532 8.586 3.552 15.708-4.903 3.797-4.508 5.712-9.069 5.004-11.907zm77.509-52.969-5.784-27.33-4.644 2.028-13.433 5.868-5.879 35.809 4.951 13.33c4.505 8.5 10.487 12.609 15.645 10.773 7.987-2.854 13.906-18.008 9.144-40.478zM149.031 407.744c-8.265.932-17.5-.194-22.762-5.945-4.361-4.766-5.915-11.881-4.888-22.391 1.478-15.131 7-32.004 18.055-33.977 3.649-.651 10.51-.088 15.821 10.881 3.05 6.309 6.388 7.627 10.253 9.154 4.184 1.651 11.191 4.415 11.194 14.608.004 11.69-7.584 22.237-18.715 25.784-2.64.841-5.725 1.521-8.958 1.886zm13.835-27.662a6.31 6.31 0 0 0-.036-.714c-.536-.295-1.595-.712-2.401-1.029-4.572-1.806-12.23-4.829-17.632-16.003-.563-1.164-1.054-1.96-1.437-2.489-2.018 2.581-5.122 9.818-6.203 20.909-.315 3.229-1.121 7.199.434 10.233 2.085 4.067 9.822 3.304 13.596 2.927 7.439-.744 13.679-5.947 13.679-13.834zm-36.277 64.064c1.396 2.275 2.428 6.115-.581 11.498-4.924 8.798-21.889 22.366-34.34 22.366-13.627 0-16.1-3.268-22.573-14.609-1.951-3.417-4.379-7.672-7.96-13.289-6.203-9.728-6.514-21.121-.833-30.468 2.922-4.812 7.418-8.957 12.624-11.174 4.875-2.077 10.618-2.375 15.444-.186 5.334 2.419 8.319 7.183 10.344 12.448 7.361 19.154 7.541 19.129 17.375 18.749 6.103-.277 9.112 2.399 10.5 4.665zm-16.141 9.059c-14.568-1.257-18.01-10.219-24.655-27.508-1.185-3.084-2.841-5.825-6.58-4.703-2.895.868-5.539 3.291-7.087 5.838-1.716 2.827-3.915 8.642.676 15.841 3.761 5.904 6.392 10.507 8.311 13.87 4.356 7.629 4.356 7.629 10.555 7.629 5.108 0 13.789-6.057 18.78-10.967zm-32.781-70.68c-10.091 0-27.191-8.982-29.966-22.519-1.77-8.647 1.514-21.267 27.245-32.277 13.249-5.674 29.394-11.021 36.754-2.086 5.505 6.685 3.036 17.51-7.554 33.094-3.779 5.563-6.122 9.591-7.829 12.532-5.307 9.123-7.663 11.256-18.65 11.256zm0-13.838c.901 0 3.144 0 4.077-.151.559-.691 1.599-2.482 2.608-4.221 1.815-3.12 4.298-7.39 8.347-13.354 6.099-8.973 7.757-14.14 7.991-16.24-1.915-.169-7.338.185-20.303 5.73-12.992 5.561-20.145 11.832-19.132 16.776 1.168 5.685 11.371 11.46 16.412 11.46z" fill="#ffffff" data-original="#000000" opacity="1"></path></g></svg>