<svg xmlns="http://www.w3.org/2000/svg" version="1.1" xmlns:xlink="http://www.w3.org/1999/xlink" xmlns:svgjs="http://svgjs.com/svgjs" width="512" height="512" x="0" y="0" viewBox="0 0 512 512" style="enable-background:new 0 0 512 512" xml:space="preserve"><g><path d="M201.887 350.368V80.101c0-8.284-6.716-15-15-15s-15 6.716-15 15v270.267c-20.718 6.414-35.811 25.752-35.811 48.549 0 28.017 22.793 50.811 50.811 50.811s50.811-22.793 50.811-50.811c0-22.798-15.093-42.135-35.811-48.549zm-15 69.36c-11.475 0-20.811-9.335-20.811-20.811s9.335-20.811 20.811-20.811 20.811 9.336 20.811 20.811-9.336 20.811-20.811 20.811z" fill="#ffffff" data-original="#000000"></path><path d="M263.356 315.611V76.615c0-42.165-34.304-76.469-76.469-76.469s-76.469 34.304-76.469 76.469v9.866H75.677c-8.284 0-15 6.716-15 15s6.716 15 15 15h34.742v30.877H75.677c-8.284 0-15 6.716-15 15s6.716 15 15 15h34.742v30.07H75.677c-8.284 0-15 6.716-15 15s6.716 15 15 15h34.742v30.867H75.677c-8.284 0-15 6.716-15 15s6.716 15 15 15h34.742v17.316c-23.357 21.412-36.614 51.376-36.614 83.305 0 30.503 11.962 59.098 33.682 80.519 21.332 21.037 49.467 32.565 79.384 32.564.539 0 1.081-.004 1.621-.011 29.607-.412 57.491-12.289 78.515-33.445 21.022-21.153 32.728-49.11 32.96-78.72.254-32.285-13.003-62.579-36.611-84.212zm-75.282 166.381c-22.457.305-43.568-8.182-59.523-23.917-15.958-15.738-24.747-36.748-24.747-59.158 0-25.27 11.307-48.868 31.022-64.745a15 15 0 0 0 5.592-11.683V76.615c0-25.623 20.846-46.469 46.469-46.469s46.469 20.846 46.469 46.469v245.874a15 15 0 0 0 5.592 11.683c19.915 16.038 31.221 39.881 31.02 65.416-.353 44.815-37.09 81.781-81.894 82.404zM324.284 54.557c-8.284 0-15 6.716-15 15s6.716 15 15 15c23.425 0 42.482 19.057 42.482 42.482 0 8.284 6.716 15 15 15s15-6.716 15-15c0-39.967-32.515-72.482-72.482-72.482z" fill="#ffffff" data-original="#000000"></path><path d="M324.284 0c-8.284 0-15 6.716-15 15s6.716 15 15 15c53.507 0 97.039 43.532 97.039 97.039 0 8.284 6.716 15 15 15s15-6.716 15-15C451.323 56.989 394.334 0 324.284 0z" fill="#ffffff" data-original="#000000"></path><circle cx="324.284" cy="127.039" r="15" fill="#ffffff" data-original="#000000"></circle></g></svg>