<svg xmlns="http://www.w3.org/2000/svg" version="1.1" xmlns:xlink="http://www.w3.org/1999/xlink" xmlns:svgjs="http://svgjs.com/svgjs" width="512" height="512" x="0" y="0" viewBox="0 0 512 512" style="enable-background:new 0 0 512 512" xml:space="preserve"><g><path d="M392 16H120A104.12 104.12 0 0 0 16 120v272a104.12 104.12 0 0 0 104 104h272a104.12 104.12 0 0 0 104-104V120A104.12 104.12 0 0 0 392 16zm88 376a88.1 88.1 0 0 1-88 88H120a88.1 88.1 0 0 1-88-88V120a88.1 88.1 0 0 1 88-88h272a88.1 88.1 0 0 1 88 88z" fill="#ffffff" data-original="#000000"></path><path d="M256 424h-32v-16h-16v24a8 8 0 0 0 8 8h48a8 8 0 0 0 8-8v-24h-16z" fill="#ffffff" data-original="#000000"></path><path d="m285 393.75-40-32a8.032 8.032 0 0 0-10 0l-40 32a8 8 0 0 0 10 12.5l35-28.008 35 28.008a8 8 0 1 0 10-12.5zM404 392.43V392c0-17.648-12.562-32-28-32s-28 14.352-28 32v.43A24.22 24.22 0 0 0 328 416c0 13.234 11.062 24 24.664 24h46.672c13.6 0 24.664-10.766 24.664-24a24.22 24.22 0 0 0-20-23.57zM399.336 424h-46.672c-4.773 0-8.664-3.586-8.664-8s3.891-8 8.664-8a9.034 9.034 0 0 1 2.531.43 8 8 0 0 0 9.828-10.157A20.325 20.325 0 0 1 364 392c0-8.672 5.492-16 12-16s12 7.328 12 16a20.325 20.325 0 0 1-1.023 6.273 8 8 0 0 0 9.828 10.157 9.034 9.034 0 0 1 2.531-.43c4.773 0 8.664 3.586 8.664 8s-3.891 8-8.664 8zM160 360a72.079 72.079 0 0 0-72 72 8 8 0 0 0 8 8 72.079 72.079 0 0 0 72-72 8 8 0 0 0-8-8zm-55.328 63.328a56.113 56.113 0 0 1 46.656-46.656 56.113 56.113 0 0 1-46.656 46.656zM200 112h-64a8 8 0 0 0 0 16h56v56h-56a8 8 0 0 0-8 8v72a8 8 0 0 0 8 8h64a8 8 0 0 0 0-16h-56v-56h56a8 8 0 0 0 8-8v-72a8 8 0 0 0-8-8zM304 112h-64a8 8 0 0 0 0 16h56v56h-56a8 8 0 0 0-8 8v72a8 8 0 0 0 8 8h64a8 8 0 0 0 0-16h-56v-56h56a8 8 0 0 0 8-8v-72a8 8 0 0 0-8-8zM360 168a24 24 0 1 0 24 24 24.027 24.027 0 0 0-24-24zm0 32a8 8 0 1 1 8-8 8.005 8.005 0 0 1-8 8z" fill="#ffffff" data-original="#000000"></path><circle cx="360" cy="144" r="8" fill="#ffffff" data-original="#000000"></circle><circle cx="360" cy="240" r="8" fill="#ffffff" data-original="#000000"></circle><circle cx="360" cy="112" r="8" fill="#ffffff" data-original="#000000"></circle><circle cx="360" cy="272" r="8" fill="#ffffff" data-original="#000000"></circle><path d="M400 56H112a56.068 56.068 0 0 0-56 56v208a8 8 0 0 0 8 8h384a8 8 0 0 0 8-8V112a56.068 56.068 0 0 0-56-56zm40 256H72V112a40.047 40.047 0 0 1 40-40h288a40.047 40.047 0 0 1 40 40z" fill="#ffffff" data-original="#000000"></path></g></svg>