<svg xmlns="http://www.w3.org/2000/svg" version="1.1" xmlns:xlink="http://www.w3.org/1999/xlink" xmlns:svgjs="http://svgjs.com/svgjs" width="512" height="512" x="0" y="0" viewBox="0 0 164.97 164.97" style="enable-background:new 0 0 512 512" xml:space="preserve"><g><path d="M153.679 103.607c-7.948-6.581-16.133-7.965-23.354-9.186-4.795-.811-8.715-1.483-12.168-3.469 19.313-4.195 33.809-14.162 41.238-28.565 7.123-13.809 6.648-30.314-1.299-45.279-4.818-9.086-15.28-15.717-26.651-16.893-10.926-1.129-21.093 2.913-27.905 11.106-6.58 7.948-7.964 16.133-9.185 23.354-.805 4.761-1.474 8.658-3.426 12.093-4.191-19.323-14.16-33.826-28.567-41.259-13.809-7.123-30.314-6.65-45.282 1.297C7.993 11.626 1.362 22.088.186 33.461-.943 44.386 3.1 54.552 11.292 61.363c7.949 6.581 16.134 7.965 23.355 9.186 4.796.811 8.716 1.483 12.17 3.47-19.314 4.194-33.81 14.161-41.24 28.564-7.123 13.809-6.649 30.314 1.298 45.28 4.819 9.087 15.282 15.718 26.655 16.893 1.206.125 2.401.187 3.585.187 9.542 0 18.257-4.005 24.316-11.292 6.581-7.948 7.965-16.133 9.186-23.354.805-4.761 1.474-8.659 3.426-12.094 4.191 19.323 14.16 33.826 28.567 41.258 6.499 3.353 13.594 5.022 20.846 5.022 8.157 0 16.512-2.113 24.435-6.32 9.087-4.819 15.717-15.282 16.893-26.655 1.129-10.924-2.914-21.09-11.105-27.901zm-71.194-2.463c-10.289 0-18.66-8.371-18.66-18.659s8.371-18.659 18.66-18.659 18.66 8.371 18.66 18.659-8.371 18.659-18.66 18.659zm26.659-63.969c1.038-6.138 1.934-11.439 5.938-16.276 4.861-5.845 11.371-6.121 14.818-5.764 6.335.655 12.48 4.356 14.945 9.005 5.692 10.717 6.125 21.858 1.218 31.371-5.252 10.183-15.963 17.376-30.521 20.663-1.572-8.248-6.161-15.437-12.575-20.372 4.081-6.309 5.217-12.953 6.177-18.627zM20.87 49.82c-5.845-4.86-6.12-11.369-5.763-14.816.655-6.337 4.356-12.482 9.005-14.947 10.719-5.691 21.861-6.123 31.372-1.217 10.199 5.261 17.4 15.997 20.679 30.59-8.23 1.571-15.403 6.147-20.335 12.54-6.324-4.108-12.99-5.249-18.68-6.211-6.139-1.038-11.441-1.934-16.278-5.939zm34.957 77.975c-1.038 6.138-1.935 11.439-5.94 16.277-4.86 5.845-11.373 6.12-14.815 5.763-6.336-.655-12.482-4.356-14.947-9.004-5.692-10.718-6.124-21.859-1.217-31.372 5.252-10.182 15.962-17.376 30.52-20.661 1.572 8.248 6.162 15.436 12.576 20.371-4.081 6.308-5.218 12.953-6.177 18.626zm94.037 2.171c-.655 6.337-4.356 12.482-9.004 14.947-10.719 5.692-21.859 6.124-31.373 1.217-10.199-5.261-17.4-15.997-20.678-30.591 8.23-1.571 15.403-6.146 20.335-12.541 6.324 4.109 12.99 5.25 18.679 6.212 6.138 1.038 11.439 1.934 16.277 5.939 5.845 4.861 6.12 11.37 5.764 14.817z" fill="#ffffff" data-original="#000000" opacity="1"></path></g></svg>